<?xml version="1.0" encoding="utf-8"?>
<!-- Generator: Adobe Illustrator 27.3.1, SVG Export Plug-In . SVG Version: 6.00 Build 0)  -->
<svg version="1.1" id="Layer_1" xmlns="http://www.w3.org/2000/svg" xmlns:xlink="http://www.w3.org/1999/xlink" x="0px" y="0px"
	 viewBox="0 0 216 144" style="enable-background:new 0 0 216 144;" xml:space="preserve">
<style type="text/css">
	.st0{fill-rule:evenodd;clip-rule:evenodd;fill:#3B4A67;}
	.st1{fill:#41627C;}
	.st2{fill:#96A23B;}
	.st3{fill:#313332;}
	.st4{fill:#3B4A67;}
	.st5{fill:#991E20;}
</style>
<path class="st0" d="M7.4,71.8h4.9V61.6h1.9v10.2h4.8V45.9h-4.8v8.3h-2v-8.3H7.4L7.4,71.8z M69.8,64.4c0,0.9,0,1.9,0.2,2.8
	c0.4,2.7,1.7,5.4,5.7,5.4c2.6,0,3.8-1.2,4.6-2.6c0.9-1.6,1.4-3.7,1.4-6.4c0-1.7-0.3-3.2-0.7-4.4c-0.5-1.2-1.2-2.5-2.8-3.3L76.5,55
	c-1.6-0.8-1.8-2.1-1.8-3c0-1.1,0.4-1.9,0.9-1.9c0.5,0,1,0.8,1,2.6h4.5c0-2.3-0.5-4.5-1.5-5.9C79.1,46,77.9,45,76,45
	c-4.6,0-6,4-6,8.5c0,2,0.3,3.6,0.9,4.9c0.4,0.8,1.1,1.8,2.7,2.7l1.4,0.8c1.5,0.8,1.7,2,1.7,3.2c0,1.4-0.5,2.3-1,2.3
	c-0.5,0-1.1-0.7-1.1-3H69.8z M26.3,62.4l0.8-9.8l0.8,9.8H26.3z M63.2,71.8H68V45.9h-4.8L63.2,71.8z M20.4,71.8h5.2l0.4-4.2h2.5
	l0.3,4.2h5.2l-3.4-25.9h-6.7L20.4,71.8z"/>
<g>
	<path class="st1" d="M84.8,45.6h8.9v2h-7.3v9.6h6.8v2h-6.8v10.7H94v2h-9.1V45.6z"/>
	<path class="st1" d="M100.4,60.6l-4.2,11.3h-1.6l4.9-13.4l-4.6-12.9h1.7l3.8,10.7l3.9-10.7h1.6l-4.6,12.9l5,13.4h-1.7L100.4,60.6z"
		/>
	<path class="st1" d="M107.6,45.6h4.9c3.5,0,4.9,3,4.9,7.4c0,4-1.4,7.4-5.5,7.4h-2.7v11.4h-1.6V45.6z M109.2,58.5h2.7
		c2.1,0,3.8-1.4,3.8-5.4c0-3.9-1.4-5.4-3.8-5.4h-2.7V58.5z"/>
	<path class="st1" d="M119.7,45.6h1.6v24.3h7.4v2h-9.1V45.6z"/>
	<path class="st1" d="M136,45.2c3.7,0,5.7,4.2,5.7,13.6s-2.1,13.6-5.7,13.6c-3.7,0-5.7-4.2-5.7-13.6S132.3,45.2,136,45.2z M136,70.3
		c2.6,0,4.1-3.1,4.1-11.6s-1.6-11.6-4.1-11.6s-4.1,3.1-4.1,11.6S133.5,70.3,136,70.3z"/>
	<path class="st1" d="M144.4,45.6h5.4c3,0,4.7,2.5,4.7,6.6c0,3.2-0.9,6-3.2,6.7v0.1c2.2,0.3,3,2.2,3.1,6.2l0.1,2.9
		c0,1.4,0.1,2.8,0.8,3.9h-1.9c-0.4-0.9-0.5-2.3-0.5-3.7l-0.1-2.2c-0.1-4.6-0.7-6.1-3.6-6.1h-3v12h-1.6V45.6z M146,57.9h2.8
		c2.5,0,4-1.7,4-5.1c0-3.2-0.9-5.1-3.8-5.1H146V57.9z"/>
	<path class="st1" d="M160.9,45.6h2l5.3,26.2h-1.7l-1.5-7.6h-6.3l-1.5,7.6h-1.7L160.9,45.6z M164.7,62.2l-2.8-14.8h-0.1l-2.8,14.8
		H164.7z"/>
	<path class="st1" d="M171.6,47.6h-4.6v-2h10.9v2h-4.6v24.3h-1.6V47.6z"/>
	<path class="st1" d="M179.5,45.6h1.6v26.2h-1.6V45.6z"/>
	<path class="st1" d="M189.6,45.2c3.7,0,5.7,4.2,5.7,13.6s-2.1,13.6-5.7,13.6s-5.7-4.2-5.7-13.6S185.9,45.2,189.6,45.2z M189.6,70.3
		c2.6,0,4.1-3.1,4.1-11.6s-1.6-11.6-4.1-11.6s-4.1,3.1-4.1,11.6S187,70.3,189.6,70.3z"/>
	<path class="st1" d="M198,45.6h2.2l6.9,22.9h0.1V45.6h1.6v26.2h-2.2L199.7,49h-0.1v22.9H198V45.6z"/>
</g>
<g>
	<path class="st2" d="M88.3,94.1c-0.4-0.5-0.6-0.9-1.2-0.9c-0.8,0-1.5,0.4-1.5,1.2c0,0.7,0.8,1,1.3,1.3l0.5,0.3c1,0.5,2,1,2,2.4
		c0,1.4-1.2,2.6-2.6,2.6c-1.3,0-2.4-0.9-2.6-2.1l0.9-0.3c0.1,0.8,0.7,1.4,1.6,1.4c0.9,0,1.8-0.5,1.8-1.4c0-0.9-0.8-1.3-1.6-1.7
		l-0.5-0.3c-0.9-0.4-1.8-0.9-1.8-2.1c0-1.3,1-2.1,2.4-2.1c0.9,0,1.7,0.5,2.1,1.3L88.3,94.1z"/>
	<path class="st2" d="M92,98.4l-1,2.4h-1l3.8-8.8l3.8,8.8h-1l-1-2.4H92z M93.7,94.2l-1.3,3.2l2.7,0L93.7,94.2z"/>
	<path class="st2" d="M99.5,93.3v2.5h2.7v0.9h-2.7v4.2h-0.9v-8.4h3.8v0.9h-2.9L99.5,93.3z"/>
	<path class="st2" d="M103.8,92.4h4.3v0.9h-3.4v2.5h3.3v0.9h-3.3v3.3h3.4v0.9h-4.3V92.4z"/>
	<path class="st2" d="M111.9,100.7H111v-7.5h-2v-0.9h5v0.9h-2.1V100.7z"/>
	<path class="st2" d="M114.2,92.4h1l2.1,3.7l2.1-3.7h1l-2.7,4.7v3.5h-0.9v-3.5L114.2,92.4z"/>
	<path class="st2" d="M125.8,100.7h-0.9v-8.4h0.9V100.7z"/>
	<path class="st2" d="M131.2,94.2c-0.4-0.5-0.8-0.9-1.4-0.9c-0.8,0-1.3,0.4-1.3,1.2c0,0.7,0.8,1,1.3,1.3l0.5,0.3c1,0.5,2,1,2,2.4
		c0,1.4-1.2,2.6-2.6,2.6c-1.3,0-2.4-0.9-2.6-2.1l0.9-0.3c0.1,0.8,0.8,1.5,1.7,1.5s1.7-0.5,1.7-1.5c0-0.9-0.8-1.3-1.6-1.7l-0.5-0.3
		c-0.9-0.4-1.8-0.9-1.8-2.1c0-1.3,1-2.1,2.4-2.1c0.9,0,1.7,0.5,2.1,1.3L131.2,94.2z"/>
	<path class="st2" d="M145.3,96.5c0,2.4-2,4.3-4.3,4.3s-4.3-2-4.3-4.3s2-4.3,4.3-4.3S145.3,94.2,145.3,96.5z M137.6,96.5
		c0,1.8,1.6,3.4,3.4,3.4c1.8,0,3.4-1.6,3.4-3.4c0-1.8-1.4-3.4-3.4-3.4C139.2,93.1,137.6,94.7,137.6,96.5z"/>
	<path class="st2" d="M147.5,97.3c0,0.7,0,1.3,0.4,1.8c0.4,0.5,1,0.8,1.7,0.8c0.7,0,1.3-0.3,1.6-0.8c0.4-0.5,0.4-1.3,0.4-2v-5h0.9
		v5.2c0,0.9-0.1,1.6-0.8,2.4c-0.5,0.7-1.4,0.9-2.2,0.9c-0.8,0-1.6-0.3-2.1-0.8c-0.8-0.7-0.8-1.4-0.8-2.4v-5.2h0.9L147.5,97.3
		L147.5,97.3z"/>
	<path class="st2" d="M155.1,100.7h-0.9v-8.4h1.2c1.6,0,3,0.4,3,2.4c0,1.3-0.8,2.2-2.1,2.4l2.6,3.8h-1.2l-2.5-3.7H155L155.1,100.7
		L155.1,100.7z M155.1,96.3h0.3c1,0,2.1-0.3,2.1-1.4c0-1.3-1-1.4-2.1-1.4h-0.3V96.3z"/>
	<path class="st2" d="M169.9,94.2c-0.7-0.7-1.6-1-2.5-1c-1.8,0-3.4,1.6-3.4,3.4s1.6,3.4,3.4,3.4c0.9,0,1.8-0.4,2.5-1v1.2
		c-0.7,0.5-1.6,0.8-2.5,0.8c-2.4,0-4.3-2-4.3-4.3s2-4.3,4.3-4.3c0.9,0,1.7,0.3,2.5,0.8V94.2z"/>
	<path class="st2" d="M179.7,96.5c0,2.4-2,4.3-4.3,4.3s-4.3-2-4.3-4.3s2-4.3,4.3-4.3C177.8,92.2,179.7,94.2,179.7,96.5z M172,96.5
		c0,1.8,1.6,3.4,3.4,3.4c1.8,0,3.4-1.6,3.4-3.4c0-1.8-1.4-3.4-3.4-3.4C173.5,93.1,172,94.7,172,96.5z"/>
	<path class="st2" d="M182,100.7h-0.9v-8.4h1.2c1.6,0,3,0.4,3,2.4c0,1.3-0.8,2.2-2.1,2.4l2.6,3.8h-1.2l-2.5-3.7h-0.3L182,100.7
		L182,100.7z M182,96.3h0.3c1,0,2.1-0.3,2.1-1.4c0-1.3-1-1.4-2.1-1.4H182V96.3z"/>
	<path class="st2" d="M186.9,92.4h4.3v0.9h-3.4v2.5h3.3v0.9h-3.3v3.3h3.4v0.9h-4.3V92.4z"/>
</g>
<g>
	<path class="st3" d="M166,79.5c-2.1,0-3.8,1.6-3.8,3.7c0,2,1.7,3.7,3.8,3.7c0.9,0,1.7-0.3,2.4-0.9l0,0v-0.8l-0.1,0.1
		c-0.5,0.7-1.5,1.1-2.4,1.1c-0.8,0-1.6-0.3-2.3-1c-0.7-0.7-1-1.4-1-2.2c0-1.7,1.5-3.3,3.3-3.3c0.9,0,1.9,0.4,2.4,1.1l0.1,0.1v-0.8
		l0,0C167.9,79.9,167,79.5,166,79.5z"/>
	<path class="st3" d="M173.1,79.5c-2.1,0-3.7,1.7-3.7,3.7c0,2,1.7,3.7,3.7,3.7c2.1,0,3.7-1.7,3.7-3.7
		C176.8,81.3,175.1,79.5,173.1,79.5z M173.1,86.4c-1.7,0-3.3-1.5-3.3-3.3c0-1.7,1.5-3.3,3.3-3.3s3.3,1.5,3.3,3.3
		C176.4,84.9,174.8,86.4,173.1,86.4z"/>
	<polygon class="st3" points="184,79.3 181.4,85.9 178.8,79.3 178.8,79.3 177.1,86.8 177.1,86.8 177.7,86.8 178.9,81 181.4,87.2 
		183.9,81 185.1,86.8 185.1,86.8 185.6,86.8 184.1,79.4 	"/>
	<path class="st3" d="M190.2,80c-0.4-0.4-1-0.4-1.5-0.4h-1.9v7.2h0.5v-3.4h1.3c0.4,0,1.1,0,1.6-0.4c0.3-0.3,0.7-0.9,0.7-1.4
		C190.9,81,190.6,80.4,190.2,80z M188.7,82.9h-1.3v-2.8h1.2c0.4,0,0.9,0,1.2,0.3c0.3,0.2,0.5,0.7,0.5,1.1c0,0.4-0.1,0.8-0.4,1.1
		C189.6,82.8,189.2,82.9,188.7,82.9z"/>
	<path class="st3" d="M190.1,86.7L190.1,86.7h0.5l1-2.4h3.1l1,2.3l0,0h0.5l-3.1-7.5L190.1,86.7z M193.2,80.6l1.3,3.4h-2.7
		L193.2,80.6z"/>
	<polygon class="st3" points="202.7,85.7 196.8,79.5 196.6,79.4 196.6,86.8 197.2,86.8 197.2,80.7 203.2,87.2 203.2,79.5 
		202.7,79.5 	"/>
	<polygon class="st3" points="208.7,79.5 206.7,83.1 204.5,79.6 204.5,79.5 203.9,79.5 206.3,83.8 206.3,86.8 206.9,86.8 
		206.9,83.8 209.3,79.5 	"/>
	<path class="st3" d="M70.5,86.5L70.5,86.5h0.5l1-2.4h3.1l1,2.3l0,0h0.4l-3.1-7.5L70.5,86.5z M73.5,80.4l1.3,3.4h-2.6L73.5,80.4z"/>
	<polygon class="st3" points="83.3,85.5 77.4,79.3 77.3,79.2 77.3,86.6 77.8,86.6 77.8,80.5 83.8,86.9 83.8,79.3 83.3,79.3 	"/>
</g>
<path class="st3" d="M123.1,83c0,2.1-1.7,3.6-3.8,3.6h-1.9v-7.3h1.9C121.3,79.3,123.1,81,123.1,83 M118,79.9v6.2h1.3
	c1.7,0,3.2-1.4,3.2-3.2s-1.4-3.1-3.2-3.1H118z"/>
<path class="st3" d="M126.7,84c-0.2,0-0.5-0.1-0.7-0.1l2.6,2.5l-0.4,0.3l-3.4-3.3h1.5c0.9,0,1.9-0.7,1.9-1.9c0-0.9-0.7-1.7-1.9-1.7
	h-1.7v6.8h-0.5v-7.3h2.3c1.5,0,2.4,1.2,2.4,2.3C128.7,82.9,127.9,84,126.7,84"/>
<rect x="130.2" y="79.3" class="st3" width="0.5" height="7.3"/>
<polygon class="st3" points="132.3,79.3 133,79.3 133,86.1 136.9,86.1 136.9,86.6 132.3,86.6 "/>
<polygon class="st3" points="137.7,79.3 138.3,79.3 138.3,86.1 142.3,86.1 142.3,86.6 137.7,86.6 "/>
<rect x="143.1" y="79.3" class="st3" width="0.5" height="7.3"/>
<polygon class="st3" points="150.8,85.4 150.8,79.3 151.3,79.3 151.3,86.8 145.9,80.6 145.9,86.6 145.3,86.6 145.3,79.1 "/>
<path class="st3" d="M156.3,86.3c0.8,0,1.6-0.3,2.2-0.8v-1.4h-2.2v-0.5h2.7v2.2c-0.8,0.7-1.7,1.1-2.7,1.1c-2.4,0-4-1.9-4-3.8
	c0-2.3,1.9-3.8,3.9-3.8c1.2,0,2.2,0.4,2.8,1.1l-0.4,0.3c-0.5-0.5-1.4-1-2.5-1c-1.7,0-3.4,1.4-3.4,3.3
	C152.9,84.8,154.4,86.3,156.3,86.3"/>
<path class="st3" d="M93.8,82.3c0-2-1.3-3.2-3.2-3.2c-2.3,0-3.6,1.7-3.6,3.8s1.4,3.9,4,3.9c1.1,0,1.9-0.3,2.5-0.5l-0.1-1.2
	c-0.7,0.3-1.5,0.5-2.2,0.5c-1.3,0-2.4-0.5-2.6-2.4h5.1C93.6,82.8,93.8,82.5,93.8,82.3z M88.5,82c0.2-1,0.9-1.6,2-1.6
	c1.2,0,1.6,0.7,1.6,1.6H88.5z"/>
<path class="st3" d="M100.5,86.7h-0.3c-1.2,0-1.5-0.3-1.9-1c-0.5,0.7-1.3,1-2.3,1c-1.3,0-2.2-0.9-2.2-2.2c0-2.1,2.6-2.6,4.4-2.6
	c0-1.2-0.5-1.5-1.5-1.5c-0.7,0-1.2,0.1-2,0.7l-0.2-1.2c0.7-0.4,1.6-0.8,2.6-0.8c1.9,0,2.6,0.9,2.6,3.4v1.6c0,1.1,0.1,1.4,0.8,1.4
	h0.2L100.5,86.7z M98.2,82.9c-1.7,0.1-2.7,0.5-2.7,1.5c0,0.8,0.4,1.1,1.1,1.1c0.5,0,1.2-0.3,1.6-0.9V82.9z"/>
<path class="st3" d="M104.8,80.6h-0.4c-0.7,0-1.3,0.4-1.5,0.9v5.1h-1.6v-7.4h1.3l0.1,1.1c0.8-0.8,1.4-1.2,2.3-1.2h0.1L104.8,80.6z"
	/>
<path class="st3" d="M109.1,86.6h-1.3c-1.4,0-2-0.9-2-1.9v-4.3h-0.8l0.3-1.5h0.5v-1.6l1.5-0.1v2h1.9v1.4h-1.9V84
	c0,1.3,0.1,1.4,1.4,1.4h0.4L109.1,86.6z"/>
<path class="st3" d="M114.6,86.6v-3.9c0-1.6-0.4-2.3-1.6-2.3c-0.8,0-1.3,0.2-1.7,0.9v5.3h-1.5V75.4h1.5v4.5c0.4-0.5,1.1-0.8,2-0.8
	c2.2,0,3.1,1.4,3.1,3.6v3.9C116.2,86.6,114.6,86.6,114.6,86.6z"/>
<polygon class="st1" points="45.4,84.6 60.8,92 60.9,87 39.8,77.6 "/>
<path class="st4" d="M58.6,58.7c1.5-0.8,2.3-3.2,2.3-6.1c0-2.4-0.6-4.5-1.6-5.7c-0.9-1-1.8-1-2.8-1h-7.3v24l3.5,1.5L54,72l0,0
	l0-11.1c1.4-0.2,2,1,2,3.5l0,8.7l4.7,2.1l0.1-11.2c0-1.7-0.2-2.6-0.5-3.4C60.1,59.9,59.4,59,58.6,58.7z M54.8,55.9c0,0-0.7,0-0.7,0
	v-5.1c0.1,0,0.6,0,0.7,0c0.8,0,1.3,0.9,1.3,2.6C56,55,55.5,55.9,54.8,55.9z"/>
<path class="st1" d="M46.9,72.7l0-8.6c0-1.7-0.2-2.6-0.5-3.4c-0.3-0.9-1-1.8-1.8-2c1.5-0.8,2.3-3.2,2.3-6.1c0-2.4-0.6-4.5-1.6-5.7
	c-0.9-1-1.8-1-2.8-1h-7.3v21.6l0,0v4.4v0.2l0.6,0.2l4.2,1.9v-4.4l0,0l0-8.9c1.4-0.2,2,1,2,3.5l0,6.3l0,0l0,4.3l18.8,8.4l0-4.5
	L46.9,72.7z M40.8,55.9c0,0-0.6,0-0.7,0v-5.1c0.1,0,0.6,0,0.7,0c0.8,0,1.3,0.9,1.3,2.6C42,55,41.6,55.9,40.8,55.9z"/>
<g>
	<path class="st5" d="M202.3,96h6.6v1.1h-6.6V96z"/>
	<path class="st5" d="M202.3,94.1h6.6v1.1h-6.6V94.1z"/>
	<path class="st5" d="M194.9,99.8h14v1.1h-14V99.8z"/>
	<path class="st5" d="M194.9,97.9h14V99h-14V97.9z"/>
	<path class="st5" d="M202.3,92.2h6.6v1.1h-6.6V92.2z"/>
	<path class="st4" d="M201.5,92.2h-6.6v4.9h6.6V92.2z M197,95.4l-0.3,0.3l0.1,0.4c0,0,0,0,0,0c0,0,0,0,0,0l-0.3-0.2l-0.3,0.2h0
		c0,0,0,0,0,0c0,0,0,0,0,0l0.1-0.4l-0.3-0.3c0,0,0,0,0,0c0,0,0,0,0,0l0.4,0l0.1-0.4c0,0,0,0,0,0c0,0,0,0,0,0l0.1,0.4L197,95.4
		C196.9,95.3,197,95.3,197,95.4C197,95.3,197,95.4,197,95.4L197,95.4z M197,93.6l-0.3,0.3l0.1,0.4c0,0,0,0,0,0c0,0,0,0,0,0l-0.3-0.2
		l-0.3,0.2h0c0,0,0,0,0,0c0,0,0,0,0,0l0.1-0.4l-0.3-0.3c0,0,0,0,0,0c0,0,0,0,0,0l0.4,0l0.1-0.4c0,0,0,0,0,0c0,0,0,0,0,0l0.1,0.4
		L197,93.6C196.9,93.5,197,93.5,197,93.6C197,93.6,197,93.6,197,93.6L197,93.6z M198.8,95.4l-0.3,0.3l0.1,0.4c0,0,0,0,0,0
		c0,0,0,0,0,0l-0.3-0.2l-0.3,0.2h0c0,0,0,0,0,0c0,0,0,0,0,0l0.1-0.4l-0.3-0.3c0,0,0,0,0,0c0,0,0,0,0,0l0.4,0l0.1-0.4c0,0,0,0,0,0
		c0,0,0,0,0,0l0.1,0.4L198.8,95.4C198.7,95.3,198.8,95.3,198.8,95.4C198.8,95.3,198.8,95.4,198.8,95.4L198.8,95.4z M198.8,93.6
		l-0.3,0.3l0.1,0.4c0,0,0,0,0,0c0,0,0,0,0,0l-0.3-0.2l-0.3,0.2h0c0,0,0,0,0,0c0,0,0,0,0,0l0.1-0.4l-0.3-0.3c0,0,0,0,0,0c0,0,0,0,0,0
		l0.4,0l0.1-0.4c0,0,0,0,0,0c0,0,0,0,0,0l0.1,0.4L198.8,93.6C198.7,93.5,198.8,93.5,198.8,93.6C198.8,93.6,198.8,93.6,198.8,93.6
		L198.8,93.6z M200.6,95.4l-0.3,0.3l0.1,0.4c0,0,0,0,0,0c0,0,0,0,0,0l-0.3-0.2l-0.3,0.2h0c0,0,0,0,0,0c0,0,0,0,0,0l0.1-0.4l-0.3-0.3
		c0,0,0,0,0,0c0,0,0,0,0,0l0.4,0l0.1-0.4c0,0,0.1,0,0.1,0l0.1,0.4L200.6,95.4C200.6,95.3,200.6,95.3,200.6,95.4
		C200.6,95.3,200.6,95.4,200.6,95.4L200.6,95.4z M200.6,93.6l-0.3,0.3l0.1,0.4c0,0,0,0,0,0c0,0,0,0,0,0l-0.3-0.2l-0.3,0.2h0
		c0,0,0,0,0,0c0,0,0,0,0,0l0.1-0.4l-0.3-0.3v0c0,0,0,0,0,0l0.4,0l0.1-0.4c0,0,0.1,0,0.1,0l0.1,0.4L200.6,93.6
		C200.6,93.5,200.6,93.6,200.6,93.6C200.6,93.6,200.6,93.6,200.6,93.6L200.6,93.6z"/>
</g>
<path class="st1" d="M36.1,74.6"/>
<polygon class="st1" points="60.9,103.8 60.9,95.4 49.7,89.9 "/>
</svg>
