<svg version="1.1" id="Layer_1" xmlns="http://www.w3.org/2000/svg" xmlns:xlink="http://www.w3.org/1999/xlink" x="0px" y="0px"
	 viewBox="0 0 852 251.8" style="enable-background:new 0 0 852 251.8;" xml:space="preserve">
<style type="text/css">
	.st0{fill-rule:evenodd;clip-rule:evenodd;fill:#FFFFFF;}
	.st1{fill:#FFFFFF;}
</style>
<path class="st0" d="M7.8,118.3h20.4V76.1h8v42.2h20V10.9h-20v34.3H28V10.9H7.9L7.8,118.3z M266.3,87.6c-0.1,3.7,0.1,7.8,0.7,11.5
	c1.8,11.2,6.9,22.6,23.5,22.6c10.7,0,15.8-5,19-10.9c3.7-6.5,5.7-15.4,5.7-26.7c0-7-1.2-13.2-3-18.1c-1.9-5.1-5-10.2-11.6-13.7
	l-6.2-3.3c-6.6-3.4-7.5-8.6-7.5-12.3c0-4.7,1.7-8,3.9-8c2.2,0,4.1,3.2,4.1,10.7h18.5c0.1-9.6-2.1-18.6-6.2-24.6
	c-2.4-3.4-7-7.3-15.3-7.3c-19.1,0-24.9,16.7-24.9,35.3c0,8.4,1.3,14.8,3.7,20.1c1.5,3.1,4.4,7.5,11.1,11.4l5.7,3.3
	c6,3.4,7.1,8.2,7.1,13.2c0,6-2,9.5-4.3,9.5c-2.3,0-4.4-2.9-4.5-12.6H266.3z M86.2,79.5l3.5-40.7l3.4,40.7H86.2z M239.1,118.3h20
	V10.9H239L239.1,118.3z M61.5,118.3H83l1.5-17.5h10.5l1.4,17.5h21.4L103.5,10.9H75.8L61.5,118.3z"/>
<g>
	<path class="st1" d="M328.8,9.8h36.9v8.2h-30.3v39.6h28.3v8.2h-28.3v44.5h31.2v8.2h-37.9V9.8z"/>
	<path class="st1" d="M393.2,71.9l-17.3,46.8h-6.7l20.5-55.5L370.6,9.8h7.1L393.5,54l16.1-44.2h6.7l-19.2,53.4l20.6,55.5h-7.1
		L393.2,71.9z"/>
	<path class="st1" d="M423.4,9.8h20.1c14.4,0,20.5,12.3,20.5,30.8c0,16.8-5.7,30.8-22.7,30.8H430v47.3h-6.7V9.8z M430,63.2h11.4
		c8.9,0,15.9-5.8,15.9-22.6c0-16.3-5.6-22.6-15.9-22.6H430V63.2z"/>
	<path class="st1" d="M473.5,9.8h6.7v100.6H511v8.2h-37.6V9.8z"/>
	<path class="st1" d="M541.1,8c15.2,0,23.8,17.2,23.8,56.2s-8.6,56.3-23.8,56.3c-15.2,0-23.8-17.2-23.8-56.3S525.8,8,541.1,8z
		 M541.1,112.3c10.6,0,17.1-12.8,17.1-48s-6.5-48-17.1-48S524,29,524,64.3S530.4,112.3,541.1,112.3z"/>
	<path class="st1" d="M575.9,9.8h22.2c12.4,0,19.3,10.4,19.3,27.3c0,13.1-3.5,24.8-13.5,27.6V65c9.3,1.2,12.4,9,12.7,25.8l0.2,11.9
		c0.1,5.9,0.5,11.7,3.1,16h-7.8c-1.6-3.8-1.9-9.5-2-15.2l-0.2-9.1c-0.4-19.2-2.8-25.3-14.8-25.3h-12.6v49.7h-6.7V9.8z M582.6,60.7
		h11.5c10.5,0,16.7-7,16.7-21.3c0-13.3-3.9-21.3-16-21.3h-12.2V60.7z"/>
	<path class="st1" d="M644.2,9.8h8.3l22,108.8h-7.1L661.4,87h-26.1l-6.1,31.7h-7.1L644.2,9.8z M659.9,78.7l-11.5-61.3h-0.2
		l-11.5,61.3H659.9z"/>
	<path class="st1" d="M688.5,18.1h-19.2V9.8h45.1v8.2h-19.2v100.6h-6.7V18.1z"/>
	<path class="st1" d="M721.3,9.8h6.7v108.8h-6.7V9.8z"/>
	<path class="st1" d="M763.3,8c15.2,0,23.8,17.2,23.8,56.2s-8.6,56.3-23.8,56.3c-15.2,0-23.8-17.2-23.8-56.3S748,8,763.3,8z
		 M763.3,112.3c10.6,0,17.1-12.8,17.1-48s-6.5-48-17.1-48c-10.6,0-17.1,12.8-17.1,48S752.6,112.3,763.3,112.3z"/>
	<path class="st1" d="M798.1,9.8h9l28.5,94.8h0.2V9.8h6.7v108.8h-9L805,23.9h-0.2v94.8h-6.7V9.8z"/>
</g>
<g>
	<path class="st1" d="M335,211c-1.6-2.2-2.5-3.7-5.2-3.7c-3.3,0-6,1.8-6,5.1c0,2.7,3.3,4.3,5.4,5.4l2.2,1.1c4.3,2.2,8.1,4.3,8.1,9.8
		c0,6-4.9,10.9-10.9,10.9c-5.4,0-9.8-3.8-10.9-8.7l3.8-1.1c0.5,3.3,2.9,6,6.7,6s7.4-2.2,7.4-6s-3.3-5.4-6.5-7.1l-2.2-1.1
		c-3.8-1.6-7.6-3.8-7.6-8.7c0-5.4,4.3-8.7,9.8-8.7c3.8,0,7.1,2.2,8.7,5.4L335,211z"/>
	<path class="st1" d="M350.4,228.6l-4.3,9.8h-4.3l15.7-36.4l15.7,36.4h-4.3l-4.3-9.8H350.4z M357.4,211.4l-5.4,13.4l11.3,0.2
		L357.4,211.4z"/>
	<path class="st1" d="M381.3,207.5v10.3h11.4v3.8h-11.4v17.4h-3.8v-34.7h15.7v3.8h-11.9L381.3,207.5z"/>
	<path class="st1" d="M399.2,203.7h17.9v3.8H403v10.3h13.6v3.8H403v13.6h14.1v3.8h-17.9V203.7z"/>
	<path class="st1" d="M432.9,238.4h-3.8v-30.9h-8.1v-3.8h20.6v3.8h-8.7V238.4z"/>
	<path class="st1" d="M442.1,203.7h4.3l8.7,15.2l8.7-15.2h4.3l-11.4,19.5v14.7H453v-14.7L442.1,203.7z"/>
	<path class="st1" d="M490.4,238.4h-3.8v-34.7h3.8V238.4z"/>
	<path class="st1" d="M512.7,211.1c-1.6-2.2-3.2-3.8-5.9-3.8c-3.3,0-5.4,1.7-5.4,5c0,2.7,3.3,4.3,5.4,5.4l2.2,1.1
		c4.3,2.2,8.1,4.3,8.1,9.8c0,6-4.9,10.9-10.9,10.9c-5.4,0-9.8-3.8-10.9-8.7l3.8-1.1c0.5,3.3,3.3,6.1,7.1,6.1s7-2.3,7-6.1
		s-3.3-5.4-6.5-7.1l-2.2-1.1c-3.8-1.6-7.6-3.8-7.6-8.7c0-5.4,4.3-8.7,9.8-8.7c3.8,0,7.1,2.2,8.7,5.4L512.7,211.1z"/>
	<path class="st1" d="M571.3,221c0,9.8-8.1,17.9-17.9,17.9c-9.8,0-17.9-8.1-17.9-17.9c0-9.8,8.1-17.9,17.9-17.9
		C563.2,203.1,571.3,211.3,571.3,221z M539.3,221c0,7.6,6.5,14.1,14.1,14.1s14.1-6.5,14.1-14.1s-6-14.1-14.1-14.1
		C545.8,206.9,539.3,213.4,539.3,221z"/>
	<path class="st1" d="M580.6,224.3c0,2.7,0,5.4,1.6,7.6c1.6,2.2,4.3,3.3,7.1,3.3s5.4-1.1,6.5-3.3c1.6-2.2,1.6-5.4,1.6-8.1v-20.6h3.8
		v21.7c0,3.8-0.5,6.5-3.3,9.8c-2.2,2.7-6,3.8-9.2,3.8c-3.3,0-6.5-1.1-8.7-3.3c-3.3-2.7-3.3-6-3.3-9.8v-21.7h3.8L580.6,224.3
		L580.6,224.3z"/>
	<path class="st1" d="M612,238.4h-3.8v-34.7h4.9c6.5,0,12.5,1.6,12.5,9.8c0,5.4-3.3,9.2-8.7,9.8l10.9,15.7h-4.9l-10.3-15.2h-1.1
		L612,238.4L612,238.4z M612,219.9h1.1c4.3,0,8.7-1.1,8.7-6c0-5.4-4.3-6-8.7-6H612V219.9z"/>
	<path class="st1" d="M673.4,211.3c-2.7-2.7-6.5-4.3-10.3-4.3c-7.6,0-14.1,6.5-14.1,14.1c0,7.6,6.5,14.1,14.1,14.1
		c3.8,0,7.6-1.6,10.3-4.3v4.9c-2.7,2.2-6.5,3.3-10.3,3.3c-9.8,0-17.9-8.1-17.9-17.9s8.1-17.9,17.9-17.9c3.8,0,7.1,1.1,10.3,3.3
		V211.3z"/>
	<path class="st1" d="M714.1,221c0,9.8-8.1,17.9-17.9,17.9c-9.8,0-17.9-8.1-17.9-17.9c0-9.8,8.1-17.9,17.9-17.9
		C706,203.1,714.1,211.3,714.1,221z M682.1,221c0,7.6,6.5,14.1,14.1,14.1s14.1-6.5,14.1-14.1s-6-14.1-14.1-14.1
		C688.1,206.9,682.1,213.4,682.1,221z"/>
	<path class="st1" d="M723.3,238.4h-3.8v-34.7h4.9c6.5,0,12.5,1.6,12.5,9.8c0,5.4-3.3,9.2-8.7,9.8l10.9,15.7h-4.9l-10.3-15.2h-1.1
		L723.3,238.4L723.3,238.4z M723.3,219.9h1.1c4.3,0,8.7-1.1,8.7-6c0-5.4-4.3-6-8.7-6h-1.1V219.9z"/>
	<path class="st1" d="M744,203.7h17.9v3.8h-14.1v10.3h13.6v3.8h-13.6v13.6h14.1v3.8H744V203.7z"/>
</g>
<g>
	<path class="st1" d="M665.5,150.5c-8.6,0-15.8,6.8-15.8,15.4c0,8.1,7.2,15.4,15.8,15.4c3.6,0,7.2-1.4,9.9-3.6l0,0v-3.2l-0.5,0.5
		c-2.3,2.7-6.3,4.5-9.9,4.5c-3.2,0-6.8-1.4-9.5-4.1c-2.7-2.7-4.1-5.9-4.1-9c0-7.2,6.3-13.6,13.6-13.6c3.6,0,7.7,1.8,9.9,4.5l0.5,0.5
		v-3.2l0,0C673.2,151.9,669.5,150.5,665.5,150.5z"/>
	<path class="st1" d="M694.9,150.5c-8.6,0-15.4,7.2-15.4,15.4c0,8.1,7.2,15.4,15.4,15.4c8.6,0,15.4-7.2,15.4-15.4
		C710.2,157.7,703,150.5,694.9,150.5z M694.9,179c-7.2,0-13.6-6.3-13.6-13.6c0-7.2,6.3-13.6,13.6-13.6c7.2,0,13.6,6.3,13.6,13.6
		C708.4,172.6,702.1,179,694.9,179z"/>
	<polygon class="st1" points="740.1,149.6 729.2,176.7 718.4,149.6 718.4,149.6 711.6,180.8 711.6,180.8 713.8,180.8 718.8,156.4 
		729.2,182.1 739.6,156.4 744.6,180.8 744.6,180.8 746.8,180.8 740.5,150 	"/>
	<path class="st1" d="M765.8,152.3c-1.8-1.8-4.1-1.8-6.3-1.8h-7.7v29.8h2.3v-14h5.4c1.8,0,4.5,0,6.8-1.8c1.4-1.4,2.7-3.6,2.7-5.9
		C768.5,156.4,767.6,154.1,765.8,152.3z M759.5,164.5h-5.4v-11.8h5c1.8,0,3.6,0,5,1.4c1.4,0.9,2.3,2.7,2.3,4.5
		c0,1.8-0.5,3.2-1.8,4.5C763.1,164.1,761.7,164.5,759.5,164.5z"/>
	<path class="st1" d="M765.4,180.3L765.4,180.3h2.3l4.1-9.9h12.7l4.1,9.5l0,0h2.3L778,148.7L765.4,180.3z M778,155l5.4,14h-11.3
		L778,155z"/>
	<polygon class="st1" points="817.8,176.3 792.9,150.5 792.5,150 792.5,180.8 794.7,180.8 794.7,155.5 819.6,182.1 819.6,150.5 
		817.8,150.5 	"/>
	<polygon class="st1" points="842.6,150.5 834.1,165.4 825,151 825,150.5 822.8,150.5 832.7,168.1 832.7,180.8 835,180.8 835,168.1 
		844.9,150.5 	"/>
	<path class="st1" d="M269.6,179.4L269.6,179.4h2.3l4.1-9.9h12.7l4.1,9.5l0,0h1.8l-12.7-31.2L269.6,179.4z M281.8,154.1l5.4,14
		h-10.8L281.8,154.1z"/>
	<polygon class="st1" points="322.4,175.4 298,149.6 297.6,149.1 297.6,179.9 299.8,179.9 299.8,154.6 324.7,181.2 324.7,149.6 
		322.4,149.6 	"/>
</g>
<path class="st1" d="M487.4,165c0,8.6-7.2,14.9-15.8,14.9h-7.7v-30.3h7.7C480.2,149.6,487.4,156.4,487.4,165 M466.2,151.9v25.8h5.4
	c7.2,0,13.1-5.9,13.1-13.1c0-7.2-5.9-12.7-13.1-12.7H466.2z"/>
<path class="st1" d="M502.3,169c-0.9,0-2.3-0.5-2.7-0.5l10.8,10.4l-1.8,1.4l-14-13.6h6.3c3.6,0,7.7-2.7,7.7-7.7
	c0-3.6-2.7-7.2-7.7-7.2h-7.2v28h-2.3v-30.3h9.5c6.3,0,9.9,5,9.9,9.5C510.9,164.5,507.3,169,502.3,169"/>
<rect x="516.8" y="149.6" class="st1" width="2.3" height="30.3"/>
<polygon class="st1" points="525.8,149.6 528.5,149.6 528.5,177.6 544.8,177.6 544.8,179.9 525.8,179.9 "/>
<polygon class="st1" points="548,149.6 550.7,149.6 550.7,177.6 566.9,177.6 566.9,179.9 548,179.9 "/>
<rect x="570.6" y="149.6" class="st1" width="2.3" height="30.3"/>
<polygon class="st1" points="602.2,174.9 602.2,149.6 604.5,149.6 604.5,180.8 581.9,155 581.9,179.9 579.6,179.9 579.6,148.7 "/>
<path class="st1" d="M625.3,178.5c3.2,0,6.8-1.4,9-3.2v-5.9h-9v-2.3h11.3v9c-3.2,2.7-7.2,4.5-11.3,4.5c-9.9,0-16.7-7.7-16.7-15.8
	c0-9.5,7.7-15.8,16.3-15.8c5,0,9,1.8,11.8,4.5l-1.8,1.4c-2.3-2.3-5.9-4.1-10.4-4.1c-7.2,0-14,5.9-14,13.6
	C611.2,172.2,617.1,178.5,625.3,178.5"/>
<path class="st1" d="M365.8,161.8c0-8.1-5.4-13.1-13.1-13.1c-9.5,0-14.9,7.2-14.9,15.8s5.9,16.3,16.7,16.3c4.5,0,7.7-1.4,10.4-2.3
	l-0.5-5c-2.7,1.4-6.3,2.3-9,2.3c-5.4,0-9.9-2.3-10.8-9.9h21.2C365.4,164.1,365.8,162.7,365.8,161.8z M344.1,160.9
	c0.9-4.1,3.6-6.8,8.1-6.8c5,0,6.8,2.7,6.8,6.8H344.1z"/>
<path class="st1" d="M393.8,180.3h-1.4c-5,0-6.3-1.4-7.7-4.1c-2.3,2.7-5.4,4.1-9.5,4.1c-5.4,0-9-3.6-9-9c0-8.6,10.8-10.8,18.1-10.8
	c0-5-2.3-6.3-6.3-6.3c-2.7,0-5,0.5-8.1,2.7l-0.9-5c2.7-1.8,6.8-3.2,10.8-3.2c7.7,0,10.8,3.6,10.8,14v6.8c0,4.5,0.5,5.9,3.2,5.9h0.9
	L393.8,180.3z M384.4,164.5c-7.2,0.5-11.3,2.3-11.3,6.3c0,3.2,1.8,4.5,4.5,4.5c2.3,0,5-1.4,6.8-3.6V164.5z"/>
<path class="st1" d="M411.5,155h-1.8c-2.7,0-5.4,1.8-6.3,3.6v21.2h-6.8v-30.7h5.4l0.5,4.5c3.2-3.2,5.9-5,9.5-5h0.5L411.5,155z"/>
<path class="st1" d="M429.5,179.9h-5.4c-5.9,0-8.1-3.6-8.1-7.7v-17.6h-3.2l1.4-6.3h2.3v-6.8l6.3-0.5v8.1h7.7v5.9h-7.7v14
	c0,5.4,0.5,5.9,5.9,5.9h1.8L429.5,179.9z"/>
<path class="st1" d="M452.1,179.9v-16.3c0-6.8-1.8-9.5-6.8-9.5c-3.2,0-5.4,0.9-7.2,3.6v22.1h-6.3v-46.6h6.3v18.5
	c1.8-2.3,4.5-3.2,8.1-3.2c9,0,12.7,5.9,12.7,14.9v16.3C458.9,179.9,452.1,179.9,452.1,179.9z"/>
<polygon class="st1" points="165.3,171.4 229.3,202.3 229.5,181.6 141.9,142.4 "/>
<path class="st1" d="M220.2,64.2c6.1-3.5,9.6-13.2,9.6-25.5c0-9.9-2.5-18.7-6.8-23.7c-3.6-4.2-7.6-4-11.6-4h-30.4v99.4l14.4,6.4
	l5.5,2.5l0.1,0l0-45.8c5.7-0.9,8.4,4.2,8.4,14.7l-0.2,36l19.6,8.9l0.4-46.4c0-7.1-0.7-10.8-1.9-13.9
	C226.3,68.9,223.4,65.3,220.2,64.2z M204.1,52.5c0,0-2.7,0-3-0.1V31.1c0.3,0,2.5,0,2.9,0c3.4,0,5.2,3.6,5.2,10.9
	C209.2,48.7,207.4,52.5,204.1,52.5z"/>
<path class="st1" d="M171.6,122.3l0-35.9c0-7.1-0.7-10.8-1.9-13.9c-1.4-3.6-4.2-7.3-7.3-8.3c6-3.5,9.5-13.2,9.5-25.5
	c0-9.9-2.5-18.7-6.8-23.7c-3.6-4.2-7.6-4-11.6-4h-30.4v89.7l-0.1-0.1v18.3v0.7l2.6,0.9l17.6,8.1v-18.3l-0.1,0l0-36.9
	c5.7-0.9,8.3,4.1,8.3,14.6l0,26.3l-0.1,0l-0.1,18l77.9,34.6l0.1-18.7L171.6,122.3z M146.1,52.5c0,0-2.6,0-2.9-0.1V31.1
	c0.3,0,2.6,0,2.9,0c3.4,0,5.2,3.6,5.2,10.9C151.3,48.7,149.4,52.5,146.1,52.5z"/>
<path class="st1" d="M126.7,130"/>
<polygon class="st1" points="229.4,251 229.6,216.1 183.1,193.6 "/>
<g>
	<rect x="802.8" y="203.7" class="st1" width="40.1" height="2.8"/>
	<rect x="802.8" y="209.1" class="st1" width="40.1" height="2.8"/>
	<rect x="802.8" y="214.5" class="st1" width="40.1" height="2.8"/>
	<rect x="802.8" y="219.9" class="st1" width="40.1" height="2.8"/>
	<rect x="776" y="225.3" class="st1" width="66.8" height="2.8"/>
	<rect x="776" y="230.7" class="st1" width="66.8" height="2.8"/>
	<rect x="776" y="236.2" class="st1" width="66.8" height="2.8"/>
	<path class="st1" d="M776,203.7v19h26.7v-19H776z M779,221.7l-0.7-0.5l-0.7,0.5l0.2-0.8l-0.7-0.5h0.8l0.2-0.8l0.2,0.8h0.8l-0.7,0.5
		L779,221.7z M778.7,217.1l0.2,0.8l-0.7-0.5l-0.7,0.5l0.2-0.8l-0.7-0.5h0.8l0.2-0.8l0.2,0.8h0.8L778.7,217.1z M778.7,213.3l0.2,0.8
		l-0.7-0.5l-0.7,0.5l0.2-0.8l-0.7-0.5h0.8l0.2-0.8l0.2,0.8h0.8L778.7,213.3z M778.7,209.5l0.2,0.8l-0.7-0.5l-0.7,0.5l0.2-0.8
		l-0.7-0.5h0.8l0.2-0.8l0.2,0.8h0.8L778.7,209.5z M778.7,205.6l0.2,0.8l-0.7-0.5l-0.7,0.5l0.2-0.8l-0.7-0.5h0.8l0.2-0.8l0.2,0.8h0.8
		L778.7,205.6z M781.2,219.8l-0.7-0.5l-0.7,0.5l0.2-0.8l-0.7-0.5h0.8l0.2-0.8l0.2,0.8h0.8l-0.7,0.5L781.2,219.8z M780.9,215.2
		l0.2,0.8l-0.7-0.5l-0.7,0.5l0.2-0.8l-0.7-0.5h0.8l0.2-0.8l0.2,0.8h0.8L780.9,215.2z M780.9,211.4l0.2,0.8l-0.7-0.5l-0.7,0.5
		l0.2-0.8l-0.7-0.5h0.8l0.2-0.8l0.2,0.8h0.8L780.9,211.4z M780.9,207.6l0.2,0.8l-0.7-0.5l-0.7,0.5l0.2-0.8l-0.7-0.5h0.8l0.2-0.8
		l0.2,0.8h0.8L780.9,207.6z M783.4,221.7l-0.7-0.5l-0.7,0.5l0.2-0.8l-0.7-0.5h0.8l0.2-0.8l0.2,0.8h0.8l-0.7,0.5L783.4,221.7z
		 M783.1,217.1l0.2,0.8l-0.7-0.5l-0.7,0.5l0.2-0.8l-0.7-0.5h0.8l0.2-0.8l0.2,0.8h0.8L783.1,217.1z M783.1,213.3l0.2,0.8l-0.7-0.5
		l-0.7,0.5l0.2-0.8l-0.7-0.5h0.8l0.2-0.8l0.2,0.8h0.8L783.1,213.3z M783.1,209.5l0.2,0.8l-0.7-0.5l-0.7,0.5l0.2-0.8l-0.7-0.5h0.8
		l0.2-0.8l0.2,0.8h0.8L783.1,209.5z M783.1,205.6l0.2,0.8l-0.7-0.5l-0.7,0.5l0.2-0.8l-0.7-0.5h0.8l0.2-0.8l0.2,0.8h0.8L783.1,205.6z
		 M785.6,219.8l-0.7-0.5l-0.7,0.5l0.2-0.8l-0.7-0.5h0.8l0.2-0.8l0.2,0.8h0.8l-0.7,0.5L785.6,219.8z M785.4,215.2l0.2,0.8l-0.7-0.5
		l-0.7,0.5l0.2-0.8l-0.7-0.5h0.8l0.2-0.8l0.2,0.8h0.8L785.4,215.2z M785.4,211.4l0.2,0.8l-0.7-0.5l-0.7,0.5l0.2-0.8l-0.7-0.5h0.8
		l0.2-0.8l0.2,0.8h0.8L785.4,211.4z M785.4,207.6l0.2,0.8l-0.7-0.5l-0.7,0.5l0.2-0.8l-0.7-0.5h0.8l0.2-0.8l0.2,0.8h0.8L785.4,207.6z
		 M787.9,221.7l-0.7-0.5l-0.7,0.5l0.2-0.8l-0.7-0.5h0.8l0.2-0.8l0.2,0.8h0.8l-0.7,0.5L787.9,221.7z M787.6,217.1l0.2,0.8l-0.7-0.5
		l-0.7,0.5l0.2-0.8l-0.7-0.5h0.8l0.2-0.8l0.2,0.8h0.8L787.6,217.1z M787.6,213.3l0.2,0.8l-0.7-0.5l-0.7,0.5l0.2-0.8l-0.7-0.5h0.8
		l0.2-0.8l0.2,0.8h0.8L787.6,213.3z M787.6,209.5l0.2,0.8l-0.7-0.5l-0.7,0.5l0.2-0.8l-0.7-0.5h0.8l0.2-0.8l0.2,0.8h0.8L787.6,209.5z
		 M787.6,205.6l0.2,0.8l-0.7-0.5l-0.7,0.5l0.2-0.8l-0.7-0.5h0.8l0.2-0.8l0.2,0.8h0.8L787.6,205.6z M790.1,219.8l-0.7-0.5l-0.7,0.5
		l0.2-0.8l-0.7-0.5h0.8l0.2-0.8l0.2,0.8h0.8l-0.7,0.5L790.1,219.8z M789.8,215.2l0.2,0.8l-0.7-0.5l-0.7,0.5l0.2-0.8l-0.7-0.5h0.8
		l0.2-0.8l0.2,0.8h0.8L789.8,215.2z M789.8,211.4l0.2,0.8l-0.7-0.5l-0.7,0.5l0.2-0.8l-0.7-0.5h0.8l0.2-0.8l0.2,0.8h0.8L789.8,211.4z
		 M789.8,207.6l0.2,0.8l-0.7-0.5l-0.7,0.5l0.2-0.8l-0.7-0.5h0.8l0.2-0.8l0.2,0.8h0.8L789.8,207.6z M792.3,221.7l-0.7-0.5l-0.7,0.5
		l0.2-0.8l-0.7-0.5h0.8l0.2-0.8l0.2,0.8h0.8l-0.7,0.5L792.3,221.7z M792.1,217.1l0.2,0.8l-0.7-0.5l-0.7,0.5l0.2-0.8l-0.7-0.5h0.8
		l0.2-0.8l0.2,0.8h0.8L792.1,217.1z M792.1,213.3l0.2,0.8l-0.7-0.5L791,214l0.2-0.8l-0.7-0.5h0.8l0.2-0.8l0.2,0.8h0.8L792.1,213.3z
		 M792.1,209.5l0.2,0.8l-0.7-0.5l-0.7,0.5l0.2-0.8l-0.7-0.5h0.8l0.2-0.8l0.2,0.8h0.8L792.1,209.5z M792.1,205.6l0.2,0.8l-0.7-0.5
		l-0.7,0.5l0.2-0.8l-0.7-0.5h0.8l0.2-0.8l0.2,0.8h0.8L792.1,205.6z M794.5,219.8l-0.7-0.5l-0.7,0.5l0.2-0.8l-0.7-0.5h0.8l0.2-0.8
		l0.2,0.8h0.8l-0.7,0.5L794.5,219.8z M794.3,215.2l0.2,0.8l-0.7-0.5l-0.7,0.5l0.2-0.8l-0.7-0.5h0.8l0.2-0.8l0.2,0.8h0.8L794.3,215.2
		z M794.3,211.4l0.2,0.8l-0.7-0.5l-0.7,0.5l0.2-0.8l-0.7-0.5h0.8l0.2-0.8l0.2,0.8h0.8L794.3,211.4z M794.3,207.6l0.2,0.8l-0.7-0.5
		l-0.7,0.5l0.2-0.8l-0.7-0.5h0.8l0.2-0.8l0.2,0.8h0.8L794.3,207.6z M796.7,221.7l-0.7-0.5l-0.7,0.5l0.2-0.8l-0.7-0.5h0.8l0.2-0.8
		l0.2,0.8h0.8l-0.7,0.5L796.7,221.7z M796.5,217.1l0.2,0.8l-0.7-0.5l-0.7,0.5l0.2-0.8l-0.7-0.5h0.8l0.2-0.8l0.2,0.8h0.8L796.5,217.1
		z M796.5,213.3l0.2,0.8l-0.7-0.5l-0.7,0.5l0.2-0.8l-0.7-0.5h0.8l0.2-0.8l0.2,0.8h0.8L796.5,213.3z M796.5,209.5l0.2,0.8l-0.7-0.5
		l-0.7,0.5l0.2-0.8L795,209h0.8l0.2-0.8l0.2,0.8h0.8L796.5,209.5z M796.5,205.6l0.2,0.8l-0.7-0.5l-0.7,0.5l0.2-0.8l-0.7-0.5h0.8
		l0.2-0.8l0.2,0.8h0.8L796.5,205.6z M799,219.8l-0.7-0.5l-0.7,0.5l0.2-0.8l-0.7-0.5h0.8l0.2-0.8l0.2,0.8h0.8l-0.7,0.5L799,219.8z
		 M798.7,215.2l0.2,0.8l-0.7-0.5l-0.7,0.5l0.2-0.8l-0.7-0.5h0.8l0.2-0.8l0.2,0.8h0.8L798.7,215.2z M798.7,211.4l0.2,0.8l-0.7-0.5
		l-0.7,0.5l0.2-0.8l-0.7-0.5h0.8l0.2-0.8l0.2,0.8h0.8L798.7,211.4z M798.7,207.6l0.2,0.8l-0.7-0.5l-0.7,0.5l0.2-0.8l-0.7-0.5h0.8
		l0.2-0.8l0.2,0.8h0.8L798.7,207.6z M801.3,221.7l-0.7-0.5l-0.7,0.5l0.2-0.8l-0.7-0.5h0.8l0.2-0.8l0.2,0.8h0.8l-0.7,0.5L801.3,221.7
		z M801,217.1l0.2,0.8l-0.7-0.5l-0.7,0.5l0.2-0.8l-0.7-0.5h0.8l0.2-0.8l0.2,0.8h0.8L801,217.1z M801,213.3l0.2,0.8l-0.7-0.5
		l-0.7,0.5l0.2-0.8l-0.7-0.5h0.8l0.2-0.8l0.2,0.8h0.8L801,213.3z M801,209.5l0.2,0.8l-0.7-0.5l-0.7,0.5l0.2-0.8l-0.7-0.5h0.8
		l0.2-0.8l0.2,0.8h0.8L801,209.5z M801,205.6l0.2,0.8l-0.7-0.5l-0.7,0.5l0.2-0.8l-0.7-0.5h0.8l0.2-0.8l0.2,0.8h0.8L801,205.6z"/>
</g>
</svg>
