<svg version="1.1" id="Layer_1" xmlns="http://www.w3.org/2000/svg" xmlns:xlink="http://www.w3.org/1999/xlink" x="0px" y="0px"
	 viewBox="0 0 852 251.8" style="enable-background:new 0 0 852 251.8;" xml:space="preserve">
<style type="text/css">
	.st0{fill-rule:evenodd;clip-rule:evenodd;fill:#3B4A67;}
	.st1{fill:#41627C;}
	.st2{fill:#96A23B;}
	.st3{fill:#313332;}
	.st4{fill:#3B4A67;}
	.st5{fill:#FFFFFF;}
	.st6{fill:#991E20;}
</style>
<path class="st0" d="M7.8,118.3h20.4V76.1h8v42.2h20V10.9h-20v34.3H28V10.9H7.9L7.8,118.3z M266.3,87.6c-0.1,3.7,0.1,7.8,0.7,11.5
	c1.8,11.2,6.9,22.6,23.5,22.6c10.7,0,15.8-5,19-10.9c3.7-6.5,5.7-15.4,5.7-26.7c0-7-1.2-13.2-3-18.1c-1.9-5.1-5-10.2-11.6-13.7
	l-6.2-3.3c-6.6-3.4-7.5-8.6-7.5-12.3c0-4.7,1.7-8,3.9-8c2.2,0,4.1,3.2,4.1,10.7h18.5c0.1-9.6-2.1-18.6-6.2-24.6
	c-2.4-3.4-7-7.3-15.3-7.3c-19.1,0-24.9,16.7-24.9,35.3c0,8.4,1.3,14.8,3.7,20.1c1.5,3.1,4.4,7.5,11.1,11.4l5.7,3.3
	c6,3.4,7.1,8.2,7.1,13.2c0,6-2,9.5-4.3,9.5c-2.3,0-4.4-2.9-4.5-12.6H266.3z M86.2,79.5l3.5-40.7l3.4,40.7H86.2z M239.1,118.3h20
	V10.9H239L239.1,118.3z M61.5,118.3H83l1.5-17.5h10.5l1.4,17.5h21.4L103.5,10.9H75.8L61.5,118.3z"/>
<g>
	<path class="st1" d="M328.8,9.8h36.9v8.2h-30.3v39.6h28.3v8.2h-28.3v44.5h31.2v8.2h-37.9V9.8z"/>
	<path class="st1" d="M393.2,71.9l-17.3,46.8h-6.7l20.5-55.5L370.6,9.8h7.1L393.5,54l16.1-44.2h6.7l-19.2,53.4l20.6,55.5h-7.1
		L393.2,71.9z"/>
	<path class="st1" d="M423.4,9.8h20.1c14.4,0,20.5,12.3,20.5,30.8c0,16.8-5.7,30.8-22.7,30.8H430v47.3h-6.7V9.8z M430,63.2h11.4
		c8.9,0,15.9-5.8,15.9-22.6c0-16.3-5.6-22.6-15.9-22.6H430V63.2z"/>
	<path class="st1" d="M473.5,9.8h6.7v100.6H511v8.2h-37.6V9.8z"/>
	<path class="st1" d="M541.1,8c15.2,0,23.8,17.2,23.8,56.2s-8.6,56.3-23.8,56.3c-15.2,0-23.8-17.2-23.8-56.3S525.8,8,541.1,8z
		 M541.1,112.3c10.6,0,17.1-12.8,17.1-48s-6.5-48-17.1-48S524,29,524,64.3S530.4,112.3,541.1,112.3z"/>
	<path class="st1" d="M575.9,9.8h22.2c12.4,0,19.3,10.4,19.3,27.3c0,13.1-3.5,24.8-13.5,27.6V65c9.3,1.2,12.4,9,12.7,25.8l0.2,11.9
		c0.1,5.9,0.5,11.7,3.1,16h-7.8c-1.6-3.8-1.9-9.5-2-15.2l-0.2-9.1c-0.4-19.2-2.8-25.3-14.8-25.3h-12.6v49.7h-6.7V9.8z M582.6,60.7
		h11.5c10.5,0,16.7-7,16.7-21.3c0-13.3-3.9-21.3-16-21.3h-12.2V60.7z"/>
	<path class="st1" d="M644.2,9.8h8.3l22,108.8h-7.1L661.4,87h-26.1l-6.1,31.7h-7.1L644.2,9.8z M659.9,78.7l-11.5-61.3h-0.2
		l-11.5,61.3H659.9z"/>
	<path class="st1" d="M688.5,18.1h-19.2V9.8h45.1v8.2h-19.2v100.6h-6.7V18.1z"/>
	<path class="st1" d="M721.3,9.8h6.7v108.8h-6.7V9.8z"/>
	<path class="st1" d="M763.3,8c15.2,0,23.8,17.2,23.8,56.2s-8.6,56.3-23.8,56.3c-15.2,0-23.8-17.2-23.8-56.3S748,8,763.3,8z
		 M763.3,112.3c10.6,0,17.1-12.8,17.1-48s-6.5-48-17.1-48c-10.6,0-17.1,12.8-17.1,48S752.6,112.3,763.3,112.3z"/>
	<path class="st1" d="M798.1,9.8h9l28.5,94.8h0.2V9.8h6.7v108.8h-9L805,23.9h-0.2v94.8h-6.7V9.8z"/>
</g>
<g>
	<path class="st2" d="M335,211c-1.6-2.2-2.5-3.7-5.2-3.7c-3.3,0-6,1.8-6,5.1c0,2.7,3.3,4.3,5.4,5.4l2.2,1.1c4.3,2.2,8.1,4.3,8.1,9.8
		c0,6-4.9,10.9-10.9,10.9c-5.4,0-9.8-3.8-10.9-8.7l3.8-1.1c0.5,3.3,2.9,6,6.7,6s7.4-2.2,7.4-6s-3.3-5.4-6.5-7.1l-2.2-1.1
		c-3.8-1.6-7.6-3.8-7.6-8.7c0-5.4,4.3-8.7,9.8-8.7c3.8,0,7.1,2.2,8.7,5.4L335,211z"/>
	<path class="st2" d="M350.4,228.6l-4.3,9.8h-4.3l15.7-36.4l15.7,36.4h-4.3l-4.3-9.8H350.4z M357.4,211.4l-5.4,13.4l11.3,0.2
		L357.4,211.4z"/>
	<path class="st2" d="M381.3,207.5v10.3h11.4v3.8h-11.4v17.4h-3.8v-34.7h15.7v3.8h-11.9L381.3,207.5z"/>
	<path class="st2" d="M399.2,203.7h17.9v3.8H403v10.3h13.6v3.8H403v13.6h14.1v3.8h-17.9V203.7z"/>
	<path class="st2" d="M432.9,238.4h-3.8v-30.9h-8.1v-3.8h20.6v3.8h-8.7V238.4z"/>
	<path class="st2" d="M442.1,203.7h4.3l8.7,15.2l8.7-15.2h4.3l-11.4,19.5v14.7H453v-14.7L442.1,203.7z"/>
	<path class="st2" d="M490.4,238.4h-3.8v-34.7h3.8V238.4z"/>
	<path class="st2" d="M512.7,211.1c-1.6-2.2-3.2-3.8-5.9-3.8c-3.3,0-5.4,1.7-5.4,5c0,2.7,3.3,4.3,5.4,5.4l2.2,1.1
		c4.3,2.2,8.1,4.3,8.1,9.8c0,6-4.9,10.9-10.9,10.9c-5.4,0-9.8-3.8-10.9-8.7l3.8-1.1c0.5,3.3,3.3,6.1,7.1,6.1s7-2.3,7-6.1
		s-3.3-5.4-6.5-7.1l-2.2-1.1c-3.8-1.6-7.6-3.8-7.6-8.7c0-5.4,4.3-8.7,9.8-8.7c3.8,0,7.1,2.2,8.7,5.4L512.7,211.1z"/>
	<path class="st2" d="M571.3,221c0,9.8-8.1,17.9-17.9,17.9c-9.8,0-17.9-8.1-17.9-17.9c0-9.8,8.1-17.9,17.9-17.9
		C563.2,203.1,571.3,211.3,571.3,221z M539.3,221c0,7.6,6.5,14.1,14.1,14.1s14.1-6.5,14.1-14.1s-6-14.1-14.1-14.1
		C545.8,206.9,539.3,213.4,539.3,221z"/>
	<path class="st2" d="M580.6,224.3c0,2.7,0,5.4,1.6,7.6c1.6,2.2,4.3,3.3,7.1,3.3s5.4-1.1,6.5-3.3c1.6-2.2,1.6-5.4,1.6-8.1v-20.6h3.8
		v21.7c0,3.8-0.5,6.5-3.3,9.8c-2.2,2.7-6,3.8-9.2,3.8c-3.3,0-6.5-1.1-8.7-3.3c-3.3-2.7-3.3-6-3.3-9.8v-21.7h3.8L580.6,224.3
		L580.6,224.3z"/>
	<path class="st2" d="M612,238.4h-3.8v-34.7h4.9c6.5,0,12.5,1.6,12.5,9.8c0,5.4-3.3,9.2-8.7,9.8l10.9,15.7h-4.9l-10.3-15.2h-1.1
		L612,238.4L612,238.4z M612,219.9h1.1c4.3,0,8.7-1.1,8.7-6c0-5.4-4.3-6-8.7-6H612V219.9z"/>
	<path class="st2" d="M673.4,211.3c-2.7-2.7-6.5-4.3-10.3-4.3c-7.6,0-14.1,6.5-14.1,14.1c0,7.6,6.5,14.1,14.1,14.1
		c3.8,0,7.6-1.6,10.3-4.3v4.9c-2.7,2.2-6.5,3.3-10.3,3.3c-9.8,0-17.9-8.1-17.9-17.9s8.1-17.9,17.9-17.9c3.8,0,7.1,1.1,10.3,3.3
		V211.3z"/>
	<path class="st2" d="M714.1,221c0,9.8-8.1,17.9-17.9,17.9c-9.8,0-17.9-8.1-17.9-17.9c0-9.8,8.1-17.9,17.9-17.9
		C706,203.1,714.1,211.3,714.1,221z M682.1,221c0,7.6,6.5,14.1,14.1,14.1s14.1-6.5,14.1-14.1s-6-14.1-14.1-14.1
		C688.1,206.9,682.1,213.4,682.1,221z"/>
	<path class="st2" d="M723.3,238.4h-3.8v-34.7h4.9c6.5,0,12.5,1.6,12.5,9.8c0,5.4-3.3,9.2-8.7,9.8l10.9,15.7h-4.9l-10.3-15.2h-1.1
		L723.3,238.4L723.3,238.4z M723.3,219.9h1.1c4.3,0,8.7-1.1,8.7-6c0-5.4-4.3-6-8.7-6h-1.1V219.9z"/>
	<path class="st2" d="M744,203.7h17.9v3.8h-14.1v10.3h13.6v3.8h-13.6v13.6h14.1v3.8H744V203.7z"/>
</g>
<g>
	<path class="st3" d="M665.5,150.5c-8.6,0-15.8,6.8-15.8,15.4c0,8.1,7.2,15.4,15.8,15.4c3.6,0,7.2-1.4,9.9-3.6l0,0v-3.2l-0.5,0.5
		c-2.3,2.7-6.3,4.5-9.9,4.5c-3.2,0-6.8-1.4-9.5-4.1c-2.7-2.7-4.1-5.9-4.1-9c0-7.2,6.3-13.6,13.6-13.6c3.6,0,7.7,1.8,9.9,4.5l0.5,0.5
		v-3.2l0,0C673.2,151.9,669.5,150.5,665.5,150.5z"/>
	<path class="st3" d="M694.9,150.5c-8.6,0-15.4,7.2-15.4,15.4c0,8.1,7.2,15.4,15.4,15.4c8.6,0,15.4-7.2,15.4-15.4
		C710.2,157.7,703,150.5,694.9,150.5z M694.9,179c-7.2,0-13.6-6.3-13.6-13.6c0-7.2,6.3-13.6,13.6-13.6c7.2,0,13.6,6.3,13.6,13.6
		C708.4,172.6,702.1,179,694.9,179z"/>
	<polygon class="st3" points="740.1,149.6 729.2,176.7 718.4,149.6 718.4,149.6 711.6,180.8 711.6,180.8 713.8,180.8 718.8,156.4 
		729.2,182.1 739.6,156.4 744.6,180.8 744.6,180.8 746.8,180.8 740.5,150 	"/>
	<path class="st3" d="M765.8,152.3c-1.8-1.8-4.1-1.8-6.3-1.8h-7.7v29.8h2.3v-14h5.4c1.8,0,4.5,0,6.8-1.8c1.4-1.4,2.7-3.6,2.7-5.9
		C768.5,156.4,767.6,154.1,765.8,152.3z M759.5,164.5h-5.4v-11.8h5c1.8,0,3.6,0,5,1.4c1.4,0.9,2.3,2.7,2.3,4.5
		c0,1.8-0.5,3.2-1.8,4.5C763.1,164.1,761.7,164.5,759.5,164.5z"/>
	<path class="st3" d="M765.4,180.3L765.4,180.3h2.3l4.1-9.9h12.7l4.1,9.5l0,0h2.3L778,148.7L765.4,180.3z M778,155l5.4,14h-11.3
		L778,155z"/>
	<polygon class="st3" points="817.8,176.3 792.9,150.5 792.5,150 792.5,180.8 794.7,180.8 794.7,155.5 819.6,182.1 819.6,150.5 
		817.8,150.5 	"/>
	<polygon class="st3" points="842.6,150.5 834.1,165.4 825,151 825,150.5 822.8,150.5 832.7,168.1 832.7,180.8 835,180.8 835,168.1 
		844.9,150.5 	"/>
	<path class="st3" d="M269.6,179.4L269.6,179.4h2.3l4.1-9.9h12.7l4.1,9.5l0,0h1.8l-12.7-31.2L269.6,179.4z M281.8,154.1l5.4,14
		h-10.8L281.8,154.1z"/>
	<polygon class="st3" points="322.4,175.4 298,149.6 297.6,149.1 297.6,179.9 299.8,179.9 299.8,154.6 324.7,181.2 324.7,149.6 
		322.4,149.6 	"/>
</g>
<path class="st3" d="M487.4,165c0,8.6-7.2,14.9-15.8,14.9h-7.7v-30.3h7.7C480.2,149.6,487.4,156.4,487.4,165 M466.2,151.9v25.8h5.4
	c7.2,0,13.1-5.9,13.1-13.1c0-7.2-5.9-12.7-13.1-12.7H466.2z"/>
<path class="st3" d="M502.3,169c-0.9,0-2.3-0.5-2.7-0.5l10.8,10.4l-1.8,1.4l-14-13.6h6.3c3.6,0,7.7-2.7,7.7-7.7
	c0-3.6-2.7-7.2-7.7-7.2h-7.2v28h-2.3v-30.3h9.5c6.3,0,9.9,5,9.9,9.5C510.9,164.5,507.3,169,502.3,169"/>
<rect x="516.8" y="149.6" class="st3" width="2.3" height="30.3"/>
<polygon class="st3" points="525.8,149.6 528.5,149.6 528.5,177.6 544.8,177.6 544.8,179.9 525.8,179.9 "/>
<polygon class="st3" points="548,149.6 550.7,149.6 550.7,177.6 566.9,177.6 566.9,179.9 548,179.9 "/>
<rect x="570.6" y="149.6" class="st3" width="2.3" height="30.3"/>
<polygon class="st3" points="602.2,174.9 602.2,149.6 604.5,149.6 604.5,180.8 581.9,155 581.9,179.9 579.6,179.9 579.6,148.7 "/>
<path class="st3" d="M625.3,178.5c3.2,0,6.8-1.4,9-3.2v-5.9h-9v-2.3h11.3v9c-3.2,2.7-7.2,4.5-11.3,4.5c-9.9,0-16.7-7.7-16.7-15.8
	c0-9.5,7.7-15.8,16.3-15.8c5,0,9,1.8,11.8,4.5l-1.8,1.4c-2.3-2.3-5.9-4.1-10.4-4.1c-7.2,0-14,5.9-14,13.6
	C611.2,172.2,617.1,178.5,625.3,178.5"/>
<path class="st3" d="M365.8,161.8c0-8.1-5.4-13.1-13.1-13.1c-9.5,0-14.9,7.2-14.9,15.8s5.9,16.3,16.7,16.3c4.5,0,7.7-1.4,10.4-2.3
	l-0.5-5c-2.7,1.4-6.3,2.3-9,2.3c-5.4,0-9.9-2.3-10.8-9.9h21.2C365.4,164.1,365.8,162.7,365.8,161.8z M344.1,160.9
	c0.9-4.1,3.6-6.8,8.1-6.8c5,0,6.8,2.7,6.8,6.8H344.1z"/>
<path class="st3" d="M393.8,180.3h-1.4c-5,0-6.3-1.4-7.7-4.1c-2.3,2.7-5.4,4.1-9.5,4.1c-5.4,0-9-3.6-9-9c0-8.6,10.8-10.8,18.1-10.8
	c0-5-2.3-6.3-6.3-6.3c-2.7,0-5,0.5-8.1,2.7l-0.9-5c2.7-1.8,6.8-3.2,10.8-3.2c7.7,0,10.8,3.6,10.8,14v6.8c0,4.5,0.5,5.9,3.2,5.9h0.9
	L393.8,180.3z M384.4,164.5c-7.2,0.5-11.3,2.3-11.3,6.3c0,3.2,1.8,4.5,4.5,4.5c2.3,0,5-1.4,6.8-3.6V164.5z"/>
<path class="st3" d="M411.5,155h-1.8c-2.7,0-5.4,1.8-6.3,3.6v21.2h-6.8v-30.7h5.4l0.5,4.5c3.2-3.2,5.9-5,9.5-5h0.5L411.5,155z"/>
<path class="st3" d="M429.5,179.9h-5.4c-5.9,0-8.1-3.6-8.1-7.7v-17.6h-3.2l1.4-6.3h2.3v-6.8l6.3-0.5v8.1h7.7v5.9h-7.7v14
	c0,5.4,0.5,5.9,5.9,5.9h1.8L429.5,179.9z"/>
<path class="st3" d="M452.1,179.9v-16.3c0-6.8-1.8-9.5-6.8-9.5c-3.2,0-5.4,0.9-7.2,3.6v22.1h-6.3v-46.6h6.3v18.5
	c1.8-2.3,4.5-3.2,8.1-3.2c9,0,12.7,5.9,12.7,14.9v16.3C458.9,179.9,452.1,179.9,452.1,179.9z"/>
<polygon class="st1" points="165.3,171.4 229.3,202.3 229.5,181.6 141.9,142.4 "/>
<path class="st4" d="M220.2,64.2c6.1-3.5,9.6-13.2,9.6-25.5c0-9.9-2.5-18.7-6.8-23.7c-3.6-4.2-7.6-4-11.6-4h-30.4v99.4l14.4,6.4
	l5.5,2.5l0.1,0l0-45.8c5.7-0.9,8.4,4.2,8.4,14.7l-0.2,36l19.6,8.9l0.4-46.4c0-7.1-0.7-10.8-1.9-13.9
	C226.3,68.9,223.4,65.3,220.2,64.2z M204.1,52.5c0,0-2.7,0-3-0.1V31.1c0.3,0,2.5,0,2.9,0c3.4,0,5.2,3.6,5.2,10.9
	C209.2,48.7,207.4,52.5,204.1,52.5z"/>
<path class="st1" d="M171.6,122.3l0-35.9c0-7.1-0.7-10.8-1.9-13.9c-1.4-3.6-4.2-7.3-7.3-8.3c6-3.5,9.5-13.2,9.5-25.5
	c0-9.9-2.5-18.7-6.8-23.7c-3.6-4.2-7.6-4-11.6-4h-30.4v89.7l-0.1-0.1v18.3v0.7l2.6,0.9l17.6,8.1v-18.3l-0.1,0l0-36.9
	c5.7-0.9,8.3,4.1,8.3,14.6l0,26.3l-0.1,0l-0.1,18l77.9,34.6l0.1-18.7L171.6,122.3z M146.1,52.5c0,0-2.6,0-2.9-0.1V31.1
	c0.3,0,2.6,0,2.9,0c3.4,0,5.2,3.6,5.2,10.9C151.3,48.7,149.4,52.5,146.1,52.5z"/>
<path class="st1" d="M126.7,130"/>
<polygon class="st1" points="229.4,251 229.6,216.1 183.1,193.6 "/>
<g>
	<rect x="776" y="203.8" class="st5" width="66.8" height="35"/>
	<rect x="776" y="203.7" class="st6" width="66.8" height="2.8"/>
	<rect x="776" y="209.1" class="st6" width="66.8" height="2.8"/>
	<rect x="776" y="214.5" class="st6" width="66.8" height="2.8"/>
	<rect x="776" y="219.9" class="st6" width="66.8" height="2.8"/>
	<rect x="776" y="225.3" class="st6" width="66.8" height="2.8"/>
	<rect x="776" y="230.7" class="st6" width="66.8" height="2.8"/>
	<rect x="776" y="236.2" class="st6" width="66.8" height="2.8"/>
	<rect x="776" y="203.7" class="st4" width="26.7" height="19"/>
	<g>
		<polygon class="st5" points="778.3,204.4 778.6,205.2 779.4,205.2 778.7,205.6 779,206.4 778.3,205.9 777.7,206.4 777.9,205.6 
			777.3,205.2 778.1,205.2 		"/>
		<polygon class="st5" points="780.5,206.3 780.8,207.1 781.6,207.1 780.9,207.6 781.2,208.4 780.5,207.9 779.9,208.4 780.1,207.6 
			779.5,207.1 780.3,207.1 		"/>
		<polygon class="st5" points="780.5,210.1 780.8,210.9 781.6,210.9 780.9,211.4 781.2,212.2 780.5,211.7 779.9,212.2 780.1,211.4 
			779.5,210.9 780.3,210.9 		"/>
		<polygon class="st5" points="780.5,214 780.8,214.7 781.6,214.7 780.9,215.2 781.2,216 780.5,215.5 779.9,216 780.1,215.2 
			779.5,214.7 780.3,214.7 		"/>
		<polygon class="st5" points="780.5,217.8 780.8,218.6 781.6,218.6 780.9,219 781.2,219.8 780.5,219.3 779.9,219.8 780.1,219 
			779.5,218.6 780.3,218.6 		"/>
		<polygon class="st5" points="785,206.3 785.2,207.1 786,207.1 785.4,207.6 785.6,208.4 785,207.9 784.3,208.4 784.6,207.6 
			783.9,207.1 784.7,207.1 		"/>
		<polygon class="st5" points="785,210.1 785.2,210.9 786,210.9 785.4,211.4 785.6,212.2 785,211.7 784.3,212.2 784.6,211.4 
			783.9,210.9 784.7,210.9 		"/>
		<polygon class="st5" points="785,214 785.2,214.7 786,214.7 785.4,215.2 785.6,216 785,215.5 784.3,216 784.6,215.2 783.9,214.7 
			784.7,214.7 		"/>
		<polygon class="st5" points="785,217.8 785.2,218.6 786,218.6 785.4,219 785.6,219.8 785,219.3 784.3,219.8 784.6,219 
			783.9,218.6 784.7,218.6 		"/>
		<polygon class="st5" points="789.4,206.3 789.7,207.1 790.5,207.1 789.8,207.6 790.1,208.4 789.4,207.9 788.8,208.4 789,207.6 
			788.4,207.1 789.2,207.1 		"/>
		<polygon class="st5" points="789.4,210.1 789.7,210.9 790.5,210.9 789.8,211.4 790.1,212.2 789.4,211.7 788.8,212.2 789,211.4 
			788.4,210.9 789.2,210.9 		"/>
		<polygon class="st5" points="789.4,214 789.7,214.7 790.5,214.7 789.8,215.2 790.1,216 789.4,215.5 788.8,216 789,215.2 
			788.4,214.7 789.2,214.7 		"/>
		<polygon class="st5" points="789.4,217.8 789.7,218.6 790.5,218.6 789.8,219 790.1,219.8 789.4,219.3 788.8,219.8 789,219 
			788.4,218.6 789.2,218.6 		"/>
		<polygon class="st5" points="793.9,206.3 794.1,207.1 794.9,207.1 794.3,207.6 794.5,208.4 793.9,207.9 793.2,208.4 793.5,207.6 
			792.8,207.1 793.6,207.1 		"/>
		<polygon class="st5" points="793.9,210.1 794.1,210.9 794.9,210.9 794.3,211.4 794.5,212.2 793.9,211.7 793.2,212.2 793.5,211.4 
			792.8,210.9 793.6,210.9 		"/>
		<polygon class="st5" points="793.9,214 794.1,214.7 794.9,214.7 794.3,215.2 794.5,216 793.9,215.5 793.2,216 793.5,215.2 
			792.8,214.7 793.6,214.7 		"/>
		<polygon class="st5" points="793.9,217.8 794.1,218.6 794.9,218.6 794.3,219 794.5,219.8 793.9,219.3 793.2,219.8 793.5,219 
			792.8,218.6 793.6,218.6 		"/>
		<polygon class="st5" points="798.3,206.3 798.6,207.1 799.4,207.1 798.7,207.6 799,208.4 798.3,207.9 797.7,208.4 797.9,207.6 
			797.3,207.1 798.1,207.1 		"/>
		<polygon class="st5" points="798.3,210.1 798.6,210.9 799.4,210.9 798.7,211.4 799,212.2 798.3,211.7 797.7,212.2 797.9,211.4 
			797.3,210.9 798.1,210.9 		"/>
		<polygon class="st5" points="798.3,214 798.6,214.7 799.4,214.7 798.7,215.2 799,216 798.3,215.5 797.7,216 797.9,215.2 
			797.3,214.7 798.1,214.7 		"/>
		<polygon class="st5" points="798.3,217.8 798.6,218.6 799.4,218.6 798.7,219 799,219.8 798.3,219.3 797.7,219.8 797.9,219 
			797.3,218.6 798.1,218.6 		"/>
		<polygon class="st5" points="778.3,208.2 778.6,209 779.4,209 778.7,209.5 779,210.2 778.3,209.8 777.7,210.2 777.9,209.5 
			777.3,209 778.1,209 		"/>
		<polygon class="st5" points="778.3,212 778.6,212.8 779.4,212.8 778.7,213.3 779,214 778.3,213.6 777.7,214 777.9,213.3 
			777.3,212.8 778.1,212.8 		"/>
		<polygon class="st5" points="778.3,215.8 778.6,216.6 779.4,216.6 778.7,217.1 779,217.9 778.3,217.4 777.7,217.9 777.9,217.1 
			777.3,216.6 778.1,216.6 		"/>
		<polygon class="st5" points="778.3,219.6 778.6,220.4 779.4,220.4 778.7,220.9 779,221.7 778.3,221.2 777.7,221.7 777.9,220.9 
			777.3,220.4 778.1,220.4 		"/>
		<polygon class="st5" points="782.7,204.4 783,205.2 783.8,205.2 783.1,205.6 783.4,206.4 782.7,205.9 782.1,206.4 782.3,205.6 
			781.7,205.2 782.5,205.2 		"/>
		<polygon class="st5" points="782.7,208.2 783,209 783.8,209 783.1,209.5 783.4,210.2 782.7,209.8 782.1,210.2 782.3,209.5 
			781.7,209 782.5,209 		"/>
		<polygon class="st5" points="782.7,212 783,212.8 783.8,212.8 783.1,213.3 783.4,214 782.7,213.6 782.1,214 782.3,213.3 
			781.7,212.8 782.5,212.8 		"/>
		<polygon class="st5" points="782.7,215.8 783,216.6 783.8,216.6 783.1,217.1 783.4,217.9 782.7,217.4 782.1,217.9 782.3,217.1 
			781.7,216.6 782.5,216.6 		"/>
		<polygon class="st5" points="782.7,219.6 783,220.4 783.8,220.4 783.1,220.9 783.4,221.7 782.7,221.2 782.1,221.7 782.3,220.9 
			781.7,220.4 782.5,220.4 		"/>
		<polygon class="st5" points="787.2,204.4 787.5,205.2 788.3,205.2 787.6,205.6 787.9,206.4 787.2,205.9 786.6,206.4 786.8,205.6 
			786.2,205.2 787,205.2 		"/>
		<polygon class="st5" points="787.2,208.2 787.5,209 788.3,209 787.6,209.5 787.9,210.2 787.2,209.8 786.6,210.2 786.8,209.5 
			786.2,209 787,209 		"/>
		<polygon class="st5" points="787.2,212 787.5,212.8 788.3,212.8 787.6,213.3 787.9,214 787.2,213.6 786.6,214 786.8,213.3 
			786.2,212.8 787,212.8 		"/>
		<polygon class="st5" points="787.2,215.8 787.5,216.6 788.3,216.6 787.6,217.1 787.9,217.9 787.2,217.4 786.6,217.9 786.8,217.1 
			786.2,216.6 787,216.6 		"/>
		<polygon class="st5" points="787.2,219.6 787.5,220.4 788.3,220.4 787.6,220.9 787.9,221.7 787.2,221.2 786.6,221.7 786.8,220.9 
			786.2,220.4 787,220.4 		"/>
		<polygon class="st5" points="791.7,204.4 791.9,205.2 792.7,205.2 792.1,205.6 792.3,206.4 791.7,205.9 791,206.4 791.2,205.6 
			790.6,205.2 791.4,205.2 		"/>
		<polygon class="st5" points="791.7,208.2 791.9,209 792.7,209 792.1,209.5 792.3,210.2 791.7,209.8 791,210.2 791.2,209.5 
			790.6,209 791.4,209 		"/>
		<polygon class="st5" points="791.7,212 791.9,212.8 792.7,212.8 792.1,213.3 792.3,214 791.7,213.6 791,214 791.2,213.3 
			790.6,212.8 791.4,212.8 		"/>
		<polygon class="st5" points="791.7,215.8 791.9,216.6 792.7,216.6 792.1,217.1 792.3,217.9 791.7,217.4 791,217.9 791.2,217.1 
			790.6,216.6 791.4,216.6 		"/>
		<polygon class="st5" points="791.7,219.6 791.9,220.4 792.7,220.4 792.1,220.9 792.3,221.7 791.7,221.2 791,221.7 791.2,220.9 
			790.6,220.4 791.4,220.4 		"/>
		<polygon class="st5" points="796.1,204.4 796.3,205.2 797.1,205.2 796.5,205.6 796.7,206.4 796.1,205.9 795.4,206.4 795.7,205.6 
			795,205.2 795.8,205.2 		"/>
		<polygon class="st5" points="796.1,208.2 796.3,209 797.1,209 796.5,209.5 796.7,210.2 796.1,209.8 795.4,210.2 795.7,209.5 
			795,209 795.8,209 		"/>
		<polygon class="st5" points="796.1,212 796.3,212.8 797.1,212.8 796.5,213.3 796.7,214 796.1,213.6 795.4,214 795.7,213.3 
			795,212.8 795.8,212.8 		"/>
		<polygon class="st5" points="796.1,215.8 796.3,216.6 797.1,216.6 796.5,217.1 796.7,217.9 796.1,217.4 795.4,217.9 795.7,217.1 
			795,216.6 795.8,216.6 		"/>
		<polygon class="st5" points="796.1,219.6 796.3,220.4 797.1,220.4 796.5,220.9 796.7,221.7 796.1,221.2 795.4,221.7 795.7,220.9 
			795,220.4 795.8,220.4 		"/>
		<polygon class="st5" points="800.6,204.4 800.8,205.2 801.7,205.2 801,205.6 801.3,206.4 800.6,205.9 799.9,206.4 800.2,205.6 
			799.5,205.2 800.3,205.2 		"/>
		<polygon class="st5" points="800.6,208.2 800.8,209 801.7,209 801,209.5 801.3,210.2 800.6,209.8 799.9,210.2 800.2,209.5 
			799.5,209 800.3,209 		"/>
		<polygon class="st5" points="800.6,212 800.8,212.8 801.7,212.8 801,213.3 801.3,214 800.6,213.6 799.9,214 800.2,213.3 
			799.5,212.8 800.3,212.8 		"/>
		<polygon class="st5" points="800.6,215.8 800.8,216.6 801.7,216.6 801,217.1 801.3,217.9 800.6,217.4 799.9,217.9 800.2,217.1 
			799.5,216.6 800.3,216.6 		"/>
		<polygon class="st5" points="800.6,219.6 800.8,220.4 801.7,220.4 801,220.9 801.3,221.7 800.6,221.2 799.9,221.7 800.2,220.9 
			799.5,220.4 800.3,220.4 		"/>
	</g>
</g>
</svg>
