<svg xmlns="http://www.w3.org/2000/svg" viewBox="189.499 -46.621 1254.001 522.549"><path fill="#666" d="M191.629 20.831l1251.871.103v215.917h-1252z"/><path fill="#FFF" d="M1443.5 238.851H189.499l.131-220.02H1443.5v220.02zm-1249.999-4h1248V22.934l-1247.873-.103-.127 212.02z"/><path fill="#40617B" d="M534.016-45.041L419.131 21.348l114.885 65.561 113.959-66.078z"/><path fill="#FFF" d="M534.023 89.216L415.115 21.359l118.901-68.71 117.952 68.179-117.945 68.388zM423.147 21.337l110.861 63.265 109.975-63.768-109.967-63.565-110.869 64.068z"/><path fill="#5599cc" d="M647.975 21.762L1441.5 475.89l2-130.148L761.93-44.317z"/><path fill="#FFF" d="M1443.5 475.928l-2-.038L643.976 21.769l117.947-68.394L1443.5 345.742v130.186zM651.974 21.755L1441.5 475.89V346.902L761.937-42.009 651.974 21.755z"/><path fill="#334466" d="M880.54 21.762l562.96 323.98V212.136l-449-256.453z"/><path fill="#FFF" d="M1443.5 348.05L876.542 21.769l117.951-68.393 1 .571L1443.5 209.832V348.05zM884.538 21.756L1441.5 342.283V213.297L994.508-42.009l-109.97 63.765z"/><path fill="#F6F6F6" d="M1433.625 475.828L647.975 20.831 534.016 86.909 419.439 20.831 305.483-44.317l-115.984 66.27v453.975z"/><path fill="#FFF" d="M648.974 19.098l-1.002-.577-113.959 66.078-113.581-65.504-114.95-65.716-115.983 64.074v4.594l115.984-64.06L418.44 22.563l115.579 66.656 113.959-66.078 785.525 452.755 7.997-.01z"/></svg>