<svg xmlns="http://www.w3.org/2000/svg" viewBox="-99.983 338.525 668.066 166.275"><path fill="#303232" d="M-54.083 383.008l35.416 35.134 28.334-47.317-15.3-15.3z"/><path fill="#96A23C" d="M11.65 372.808l-27.2 48.733 34.85 34.851 8.217-67.717z"/><path fill="#B6CF34" d="M-16.967 422.958l-48.45 27.2 16.15 15.867 67.15-8.216z"/><path fill="#40617B" d="M-94.317 345.608l-5.666 69.984 15.016 15.016 26.067-49.583z"/><path fill="#536063" d="M-55.5 384.425l-27.2 48.167 15.3 15.583 47.033-28.616z"/><path fill="#3F4E59" d="M-92.9 343.908l35.7 35.7 49.583-26.066-15.016-15.017z"/><path fill="#536063" d="M299.767 428.583C299.767 443.6 287.3 455.5 272 455.5h-13.883v-53.55H272c15.3 0 27.767 11.9 27.767 26.633m-37.4-22.666v45.616H272c13.033 0 23.517-10.2 23.517-22.95S285.033 405.917 272 405.917h-9.633zm64.6 30.033c-1.983 0-4.25-.566-4.816-.566l19.267 18.699-2.834 2.834-25.217-24.367h11.051c6.517 0 13.316-4.816 13.316-13.6 0-6.233-4.816-13.033-13.6-13.033h-12.467V455.5H307.7v-53.55h17c11.05 0 17.566 8.783 17.566 17 .001 9.35-7.082 17-15.299 17m25.217-34h3.967v53.55h-3.967zm16.716 0h3.966v49.583h29.184v3.967H368.9zm39.383 0h4.25v49.583h29.184v3.967h-33.434zm39.384 0h4.25v53.55h-4.25zm56.949 44.484V401.95h3.967v55.533l-39.95-46.466V455.5h-4.25v-55.25zm41.084 6.516c5.95 0 11.899-2.267 16.149-5.95v-10.483H545.7v-3.967h20.4v16.15c-5.383 5.1-12.75 8.217-20.399 8.217-17.283 0-29.467-13.317-29.467-28.051 0-16.716 13.884-28.333 28.9-28.333 8.5 0 15.866 3.117 20.966 8.217l-2.833 2.833c-4.533-4.25-10.767-7.083-18.133-7.083-13.317 0-24.934 10.2-24.934 24.366.283 12.75 10.767 24.084 25.5 24.084"/><path fill="#3F4E59" d="M45.05 429.434C46.467 442.75 54.683 447 64.033 447c5.1 0 11.333-1.417 16.15-3.684l1.134 9.066c-4.25 1.983-10.483 4.25-18.134 4.25-19.267 0-29.466-13.033-29.466-28.616 0-15.3 9.633-28.05 26.633-28.05 13.6 0 23.8 8.783 23.8 23.233 0 1.7 0 3.967-.566 5.95H45.05v.285zm.567-7.651h26.35c0-6.8-3.684-11.899-12.184-11.899-7.933 0-12.183 4.533-14.166 11.899m88.4 34.567h-2.267c-8.5 0-11.333-2.833-13.6-7.366-3.967 4.533-9.917 7.366-16.717 7.366C91.8 456.35 85 449.833 85 440.2c0-15.3 19.267-19.267 31.733-19.55 0-9.067-3.684-11.334-11.05-11.334-4.533 0-8.783.851-14.733 4.533l-1.417-9.066c5.1-3.399 11.9-5.383 18.983-5.383 13.317 0 19.267 6.517 19.267 24.649v12.467c0 7.934.567 10.483 5.667 10.483h1.417l-.85 9.351zM117.3 428.3c-13.033.566-20.4 3.684-20.4 11.334 0 5.383 3.117 7.649 7.934 7.649 4.25 0 9.066-2.267 12.183-6.233V428.3h.283zm47.6-17.283h-3.117c-4.533 0-9.917 3.117-11.617 6.517V455.5H138.55v-54.4h9.917l.85 7.934c5.383-5.95 10.483-9.066 17-9.066h.85l-2.267 11.049zm32.583 44.766h-9.35c-10.2 0-14.45-6.8-14.45-13.6l-.283-31.167h-5.95l2.267-11.05h3.966v-13.034l11.333-1.133v14.167h13.6v11.05h-13.6v25.217c0 9.633.567 10.2 10.2 10.2h3.117l-.85 9.35zm40.234 0V426.6c0-11.899-3.117-16.716-12.184-16.716-5.95 0-9.917 1.982-12.75 6.232v39.667H201.45v-83.017h11.333v33.15c3.4-3.684 8.217-5.95 14.167-5.95 16.15 0 22.1 10.767 22.1 26.35V455.5h-11.333v.283z"/><path d="M270.017 481c-.85-1.417-1.983-2.267-3.683-2.267-1.983 0-3.4 1.417-3.4 3.399 0 1.7 1.983 2.551 3.4 3.4l1.417.566c2.833 1.134 5.1 2.551 5.1 5.95 0 3.684-3.117 6.517-6.8 6.517-3.4 0-5.95-2.267-6.517-5.383l2.267-.567c.284 2.267 1.983 3.967 4.25 3.967s4.25-1.7 4.25-4.25-1.983-3.399-3.966-4.25l-1.417-.566c-2.55-1.134-4.533-2.267-4.533-5.384 0-3.399 2.833-5.383 5.95-5.383 2.267 0 4.25 1.133 5.383 3.4l-1.701.851zm9.35 11.05l-2.55 5.95h-2.55l9.917-22.384L293.816 498h-2.55l-2.55-5.95h-9.349zm4.533-10.484l-3.683 8.5h7.083l-3.4-8.5zm14.166-2.549v6.233h7.083v2.267h-7.083V498H295.8v-21.25h9.633v2.267h-7.367zm11.334-1.984h11.05v2.267h-8.783v6.233h8.5v2.267h-8.5v8.217h8.783v2.267H309.4v-21.251zm20.683 21.25h-2.267V479.3h-5.1v-2.267h12.75v2.267h-5.101v18.983h-.282zm5.667-21.25h2.833l5.384 9.351 5.383-9.351h2.834l-7.084 12.184v9.066h-2.267v-9.066l-7.083-12.184zm29.75 21.25h-2.267v-21.25h2.267v21.25zM379.383 481c-.85-1.417-1.982-2.267-3.683-2.267-1.983 0-3.4 1.417-3.4 3.399 0 1.7 1.983 2.551 3.4 3.4l1.416.566c2.834 1.134 5.101 2.551 5.101 5.95 0 3.684-3.117 6.517-6.8 6.517-3.4 0-5.95-2.267-6.517-5.383l2.267-.567c.283 2.267 1.983 3.967 4.25 3.967s4.25-1.7 4.25-4.25-1.983-3.399-3.967-4.25l-1.417-.566c-2.55-1.134-4.533-2.267-4.533-5.384 0-3.399 2.833-5.383 5.95-5.383 2.267 0 4.25 1.133 5.383 3.4l-1.7.851zm35.983 6.517c0 6.233-5.1 11.05-11.05 11.05-5.949 0-11.05-4.816-11.05-11.05 0-5.95 5.101-11.05 11.05-11.05 5.951 0 11.05 5.099 11.05 11.05zm-19.833 0c0 4.816 3.967 8.783 8.783 8.783 4.817 0 8.783-3.967 8.783-8.783s-3.966-8.783-8.783-8.783c-5.099-.001-8.783 3.966-8.783 8.783zm25.217 1.983c0 1.7 0 3.4.85 4.816.851 1.417 2.834 1.983 4.25 1.983 1.417 0 3.117-.566 4.25-1.983 1.134-1.416 1.134-3.116 1.134-4.816v-12.75h2.267v13.316c0 2.267-.283 4.25-1.983 5.95-1.417 1.7-3.684 2.55-5.667 2.55s-3.966-.85-5.383-2.267c-1.983-1.7-1.983-3.684-1.983-6.233V476.75h2.267v12.75h-.002zm19.267 8.783h-2.267v-21.25h3.116c3.967 0 7.65 1.134 7.65 5.95 0 3.399-1.983 5.667-5.383 5.95l6.8 9.633H447.1l-6.517-9.35h-.566v9.067zm0-11.616h.85c2.551 0 5.384-.567 5.384-3.684 0-3.4-2.55-3.967-5.384-3.967h-.567v7.65h-.283zm37.966-5.101c-1.7-1.7-3.967-2.833-6.517-2.833-4.816 0-8.5 4.25-8.5 8.783s3.967 8.783 8.5 8.783c2.267 0 4.816-1.133 6.517-2.833v2.833c-1.7 1.417-3.967 1.983-6.233 1.983-5.95 0-11.05-4.816-11.05-10.767s5.1-11.05 11.05-11.05c2.267 0 4.533.566 6.233 1.983v3.118zm24.934 5.951c0 6.233-5.101 11.05-11.051 11.05-5.949 0-11.05-4.816-11.05-11.05 0-5.95 5.101-11.05 11.05-11.05 6.234 0 11.051 5.099 11.051 11.05zm-19.834 0c0 4.816 3.967 8.783 8.783 8.783 4.817 0 8.784-3.967 8.784-8.783s-3.967-8.783-8.784-8.783c-4.816-.001-8.783 3.966-8.783 8.783zm25.5 10.766h-2.267v-21.25h3.117c3.967 0 7.649 1.134 7.649 5.95 0 3.399-1.983 5.667-5.383 5.95l6.8 9.633h-2.833l-6.517-9.35h-.567v9.067zm0-11.616h.851c2.55 0 5.383-.567 5.383-3.684 0-3.4-2.55-3.967-5.383-3.967h-.567v7.65h-.284zm13.034-9.634h11.05v2.267h-8.784v6.233h8.5v2.267h-8.5v8.217h8.784v2.267h-11.05v-21.251z" fill="#96A23C"/><path fill="#991B1E" d="M553.35 473.066c.851 1.7 1.7 3.117 2.551 4.816 0 .284.283.567.283.567.283 0 .85-.283.85-.283.851-.567 1.7-.851 2.55-1.417-.566 2.55-1.133 5.1-1.7 7.366 0 .284-.283.851-.283 1.134v.566c.283 0 .567-.283.567-.283.283 0 .283-.283.566-.566 1.133-1.134 1.983-2.55 3.116-3.4.283.566.283 1.134.567 1.7 0 .283.283.566.566.85.283 0 .85 0 1.133-.283 1.134-.283 2.267-.566 3.117-.566-.283 1.417-.851 3.117-1.134 4.533 0 .283-.283.566 0 .566l.283.284c.567.283 1.134.283 1.7.566-2.267 1.983-4.816 3.967-7.366 5.95-.283.283-.283.283-.283.566s.283.566.283.85c.283.567.566 1.417.85 1.983-2.267-.283-4.533-.85-6.8-1.133-.283 0-.566-.283-.85 0v.283c0 2.267.283 4.816.283 7.083h-1.7c0-1.7 0-3.967.283-5.95v-1.984h-.566c-2.55.567-4.816.851-7.367 1.417.284-.566.567-1.133.851-1.983.283-.566.566-.85 0-1.417l-.851-.85c-1.982-1.417-3.683-3.116-5.666-4.533l-.851-.85c.284 0 .567-.284 1.134-.567.283 0 .85-.283.85-.566.283-.283 0-.85-.283-1.417-.283-1.416-.85-2.55-1.133-3.967.85.284 1.982.567 3.116.567.566 0 1.417.283 1.7 0 0 0 .283-.283.283-.567.283-.566.566-1.133.566-1.416.851 1.133 1.7 2.267 2.834 3.116l.566.567c.283 0 .566.283.566.283.283 0 .283-.851 0-1.134-.566-2.55-1.133-5.383-1.7-7.934h.283c.284.284.851.567 1.417.851.283.283.566.283.851.566.283.283.566.566.85.283.283 0 .283-.283.566-.566.852-.563 1.702-2.264 2.552-3.681z"/></svg>