<svg version="1.1" id="Layer_1" xmlns="http://www.w3.org/2000/svg" xmlns:xlink="http://www.w3.org/1999/xlink" x="0px" y="0px"
	 viewBox="0 0 128 128" style="enable-background:new 0 0 128 128;" xml:space="preserve">
<g>
	<path d="M112.3,71.8c0-0.1-0.1-0.2-0.1-0.3l-7.4-13.7l-3.3-7.3L99,43.3c-0.2-0.6-0.8-1.1-1.4-1.3l-5.5-1.3l-2.3-8.2
		c-0.1-0.2-0.2-0.4-0.3-0.6l-5-6.9c-0.3-0.4-0.8-0.7-1.3-0.8l-3.5-0.6c-0.7-0.1-1.4,0.1-1.8,0.6L72,30.5L68.2,30l-1.3-3.2
		c-0.3-0.6-0.8-1.1-1.5-1.2l-7.1-1.4l-5.7-1.7l-2.9-1.7c-0.6-0.4-1.4-0.4-2.1,0l-4.9,3c-0.1,0-0.1,0.1-0.2,0.1l-6.3,4.9L30,21.2
		c-0.4-0.5-1-0.8-1.7-0.7c-0.6,0-1.2,0.4-1.6,0.9l-1.2,1.8c-0.1,0.1-0.1,0.2-0.1,0.3L18,39.9c0,0.1-0.1,0.2-0.1,0.3l-1.3,4.9
		l-1.1,1.1l-2.9,1.9c0,0,0,0,0,0c0,0,0,0,0,0c0,0-0.1,0.1-0.1,0.1c-0.1,0-0.1,0.1-0.2,0.2c0,0-0.1,0.1-0.1,0.2c0,0-0.1,0.1-0.1,0.1
		c0,0.1-0.1,0.1-0.1,0.2c0,0.1-0.1,0.1-0.1,0.2c0,0.1,0,0.1-0.1,0.2c0,0.1,0,0.1-0.1,0.2L8.3,64l-2.5,6.2l-4.4,5
		C1.2,75.6,1,76.1,1,76.6l1.6,31.8c0,0.9,0.7,1.7,1.6,1.9l35.6,7.7l21.8,5.1c0.1,0,0.3,0.1,0.5,0.1c0,0,0.1,0,0.1,0l21.7-1.6
		c0.1,0,0.3,0,0.4-0.1l4.1-1.2c0.1,0,0.1,0,0.2-0.1l10.3-4.2c0,0,0.1,0,0.1,0l9-4.2c0.1-0.1,0.2-0.1,0.3-0.2l3.5-2.6
		c0,0,0.1-0.1,0.1-0.1c0.1-0.1,0.1-0.1,0.2-0.2c0,0,0.1-0.1,0.1-0.1c0-0.1,0.1-0.1,0.1-0.2c0,0,0.1-0.1,0.1-0.1
		c0-0.1,0.1-0.1,0.1-0.2c0-0.1,0-0.1,0-0.2c0-0.1,0-0.1,0-0.2c0,0,0,0,0,0l3-25c0-0.3,0-0.6-0.1-0.9L112.3,71.8z M17.9,49.4
		c0.1-0.1,0.2-0.2,0.3-0.3l1.6-1.6c0.2-0.2,0.4-0.6,0.5-0.9l1.4-5.3l6.9-15.4l4.3,5.3l0.6,1.5c0.2,0.6,0.7,1,1.3,1.2
		c0.6,0.2,1.3,0,1.7-0.4l8.2-6.4l3.8-2.3l2.1,1.2c0.1,0.1,0.3,0.1,0.4,0.2l6.1,1.8c0.1,0,0.1,0,0.2,0l6.2,1.2l1.4,3.3
		c0.3,0.7,0.9,1.1,1.6,1.2l5.9,0.8c0.7,0.1,1.3-0.1,1.7-0.6l5.8-6.3l1.7,0.3l4.3,5.9l2.6,9c0.2,0.7,0.8,1.2,1.4,1.4l5.6,1.4l2.2,6.2
		c0,0.1,0,0.1,0.1,0.2l3.4,7.5c0,0,0,0.1,0.1,0.1l7.3,13.6l3.2,9.1l-1.7,14.1c-0.9-0.2-2.9-1.1-4.9-4.1c-1.4-2.2-1.7-3.2-1.7-3.6
		c0.2-0.3,0.4-0.7,0.4-1.1c0-0.7-0.3-1.4-1-1.8c0,0-1.6-1-3.7-2.3c-2-1.3-8-3.7-9.3-4.2c-3.4-2.2-8.4-5.6-9.1-6.1
		c-0.3-0.2-1.6-1.3-2.9-2.4c-4.1-3.3-7.8-6.4-9.1-7.3c-2.2-1.5-10.5-1.1-15.2-0.7c-0.3,0-0.7,0.1-1,0.3l-5.3,3.6
		c-0.2,0.1-0.4,0.3-0.5,0.5l-3.2,4.7l-2.5-1.7L39,66.2v-3c0-0.7-0.3-1.3-0.9-1.7s-1.3-0.4-1.9-0.2l-9.8,4.2l-10-15.1L17.9,49.4z
		 M106.3,108l-8.8,4.1l-10.2,4.2l-3.8,1.1l-21.2,1.6l-21.6-5c0,0,0,0,0,0l-34.1-7.4L5.1,77.2l4-4.7c0.1-0.2,0.3-0.4,0.3-0.6l2.7-6.7
		c0-0.1,0.1-0.2,0.1-0.3l2.4-10.2L24,69.1c0.5,0.8,1.6,1.1,2.5,0.7l8.5-3.6v0.4c0,0.3,0.1,0.6,0.2,0.8l2.3,5.2
		c0.2,0.3,0.4,0.6,0.7,0.9l4.7,3.1c0.9,0.6,2.1,0.4,2.7-0.5l4.1-6l4.6-3.1c5.1-0.4,11.1-0.5,12.2,0c1.3,0.8,6,4.7,8.8,7
		c1.8,1.5,2.7,2.2,3.1,2.5c1,0.8,8.6,5.8,9.5,6.4c0.1,0.1,0.2,0.1,0.4,0.2c1.9,0.7,7.2,2.9,8.8,3.9c0.9,0.6,1.8,1.1,2.4,1.5
		c-0.1,1.6,0.7,3.5,2.4,6.1c2.4,3.6,5,5.1,6.8,5.6l0.2,5.9L106.3,108z"/>
	<path d="M74.1,15.4c0.2,0.5,0.6,0.9,1.2,1l2.3,0.8l3.1,1.5c0.3,0.1,0.6,0.2,0.9,0.2c0.1,0,0.2,0,0.3,0l2.4-0.4
		c0.4-0.1,0.8-0.3,1.1-0.6l1.6-1.7l2.3-2c0.3-0.2,0.5-0.5,0.6-0.9c0.4-1.3,0.9-2.6,1.2-3.9c0.2-1-0.4-2-1.4-2.3
		c-0.7-0.2-1.4-0.4-2.2-0.6C87,6.2,86.6,6.1,86.2,6L84.8,3c-0.3-0.6-0.8-1-1.4-1.1c-0.6-0.1-1.3,0-1.7,0.4L79,4.6l-2.6,0.1
		c-0.7,0-1.3,0.4-1.7,1.1L72.5,10c-0.3,0.6-0.3,1.2-0.1,1.8L74.1,15.4z M77.7,8.7l2.2-0.1c0.5,0,0.9-0.2,1.2-0.5l1.2-1L83,8.6
		c0.2,0.5,0.7,0.9,1.2,1.1c0.7,0.2,1.4,0.4,2.2,0.6c0,0,0.1,0,0.1,0c-0.1,0.4-0.3,0.8-0.4,1.2l-2,1.7c-0.1,0-0.1,0.1-0.1,0.1
		l-1.2,1.3l-1.1,0.2l-2.6-1.2c-0.1,0-0.1-0.1-0.2-0.1l-1.6-0.6L76.5,11L77.7,8.7z"/>
	<path d="M127.5,36.8l-0.9-2.9V32c0-0.4-0.1-0.9-0.4-1.2c-0.1-0.1-0.2-0.4-0.4-0.6c-0.7-1.1-1.3-2.2-2.4-2.6c-0.9-0.3-1.7,0-2.4,0.3
		c-0.1,0-0.1,0.1-0.2,0.1c-0.1,0-0.3,0.1-0.4,0.1c-0.3,0.1-0.6,0.2-0.8,0.3c-0.3,0.1-0.5,0.2-0.7,0.3l-2,0.7L114,29
		c-0.6-0.1-1.2,0.2-1.6,0.6c-0.4,0.5-0.6,1.1-0.5,1.7l0.6,3.3c0.1,0.3,0.2,0.7,0.4,0.9l1.2,1.5c0.1,0.2,0.3,0.3,0.5,0.4l1.4,0.9
		l2.1,3.1c0.4,0.5,1,0.9,1.7,0.9c0,0,0.1,0,0.1,0c0.7,0,1.3-0.4,1.7-1l1.5-2.6l2.2,0.5c0.7,0.2,1.4-0.1,1.9-0.6
		S127.7,37.5,127.5,36.8z M122.4,34.6c-0.9-0.2-1.7,0.2-2.2,1l-0.6,1.1l-0.6-0.8c-0.2-0.2-0.4-0.4-0.6-0.6l-1.5-0.9l-0.7-0.9l0-0.3
		l0.9,0.1c0.3,0,0.5,0,0.8-0.1l2.5-0.8c0.1,0,0.2-0.1,0.2-0.1c0.1,0,0.2-0.1,0.4-0.1c0.2-0.1,0.5-0.2,0.8-0.3c0.1,0,0.2-0.1,0.3-0.1
		c0.1,0.2,0.2,0.3,0.3,0.5c0.1,0.1,0.1,0.3,0.2,0.4v1.6c0,0.2,0,0.3,0.1,0.5L122.4,34.6z"/>
	<path d="M102.6,25.9c0.2,0.6,0.6,1.2,1.2,1.4l4,1.5c0.2,0.1,0.5,0.1,0.7,0.1c0.3,0,0.6-0.1,0.9-0.2l3.5-1.8
		c0.7-0.4,1.1-1.1,1.1-1.9l-0.1-3.6c0-0.3-0.1-0.5-0.2-0.8c-0.9-2-2-3.7-3.1-5.4l-0.3-0.5c-0.4-0.6-1-0.9-1.7-0.9c0,0,0,0,0,0
		c-0.7,0-1.3,0.3-1.7,0.9l-1.9,2.9l-2.7,2.2c-0.6,0.5-0.9,1.3-0.7,2L102.6,25.9z M107.7,20.6c0.2-0.1,0.3-0.3,0.4-0.5l0.4-0.6
		c0.5,0.8,0.9,1.6,1.4,2.5L110,24l-1.6,0.8l-2.2-0.8l-0.4-1.8L107.7,20.6z"/>
	<path d="M118.6,46.2c-0.4-0.6-1-1-1.8-1l-2.9,0c-0.1,0-0.3,0-0.5-0.1c-1.4-0.2-2.9-0.3-3.8,0.5c-1.5,1.2-1,4-0.8,4.9
		c0,0.2,0.1,0.4,0.2,0.6l1.1,1.8c0.2,0.4,0.5,0.6,0.9,0.8l1.9,0.8c0.3,0.1,0.5,0.2,0.8,0.2c0.2,0,0.4,0,0.6-0.1l2.1-0.7
		c0.2-0.1,0.3-0.1,0.5-0.2l2.6-1.8c0.8-0.6,1.1-1.7,0.6-2.6L118.6,46.2z M115,50.2l-1.1,0.4l-0.7-0.3l-0.6-1c0-0.1,0-0.2,0-0.3
		c0.1,0,0.3,0,0.4,0c0.4,0,0.8,0.1,1,0.1h1.7l0.2,0.4L115,50.2z"/>
	<path d="M109.8,34.2c-0.1-0.2-0.2-0.4-0.3-0.5c-0.3-0.4-0.6-0.8-1-1.1c-0.3-0.3-0.6-0.6-0.8-1c-0.1-0.2-0.3-0.3-0.5-0.4l-2.6-1.7
		c-0.7-0.4-1.6-0.4-2.3,0.1l-2.3,1.7l-2.5,1.5c-0.5,0.3-0.9,0.8-1,1.5l-0.4,3.1c-0.1,0.4,0,0.8,0.2,1.2l1.4,2.6
		c0.1,0.3,0.3,0.5,0.6,0.7l2,1.5l2.2,1.8c0.4,0.3,0.8,0.4,1.3,0.4c0.3,0,0.5-0.1,0.8-0.2l2.6-1.1c0.1-0.1,0.3-0.1,0.4-0.2l2.5-1.8
		c0.5-0.4,0.8-1,0.8-1.6v-3.1c0-0.3-0.1-0.6-0.2-0.9c-0.2-0.4-0.4-1-0.5-1.4C110.1,34.8,110,34.4,109.8,34.2z M107,39.6l-1.5,1.1
		l-1.3,0.6l-1.4-1.1l-1.7-1.3l-0.9-1.7l0.2-1.4l1.8-1c0.1,0,0.1-0.1,0.2-0.1l1.3-1l1.2,0.7c0.2,0.3,0.5,0.6,0.8,0.9
		c0.2,0.2,0.4,0.5,0.6,0.7c0.1,0.2,0.1,0.3,0.2,0.5c0.2,0.5,0.3,1,0.6,1.5V39.6z"/>
	<path d="M89.4,18.7l-0.8,1.4l-2.3,1.7c-0.8,0.6-1.1,1.8-0.5,2.7l1.5,2.5c0.1,0.1,0.2,0.3,0.3,0.4l1.8,1.8c0.4,0.4,0.9,0.6,1.4,0.6
		c0.1,0,0.3,0,0.4,0l2.5-0.6c0.1,0,0.1,0,0.2-0.1l1.7-0.6c0.4-0.1,0.7-0.4,1-0.7l1.1-1.5l1.5-1.7c0.3-0.4,0.5-0.8,0.5-1.3
		c0-0.5,0.1-1.1,0.2-1.6c0.1-0.3,0.1-0.6,0.2-0.8c0.1-0.5,0-1.1-0.4-1.5s-0.8-0.7-1.4-0.8c-0.5-0.1-1.1-0.1-1.6-0.2
		c-0.2,0-0.4-0.1-0.7-0.1L95,16.2c-0.3-0.5-0.9-0.9-1.5-1c-0.6-0.1-1.3,0.2-1.7,0.7l-2.1,2.4C89.6,18.4,89.5,18.5,89.4,18.7z
		 M91.4,23c0.2-0.2,0.4-0.4,0.6-0.7l0.9-1.6l0.1-0.1l0.3,0.4c0.3,0.5,0.9,0.9,1.5,1c0.4,0,0.7,0.1,1.1,0.1c0,0.1,0,0.2,0,0.3
		l-1.1,1.3c0,0-0.1,0.1-0.1,0.1l-0.7,1l-1,0.3l-1.3,0.3l-0.9-0.9l-0.4-0.7L91.4,23z"/>
	<path d="M33.4,70.4c-0.8-0.8-2-0.8-2.8,0l-22,22c-0.8,0.8-0.8,2,0,2.8c0.4,0.4,0.9,0.6,1.4,0.6s1-0.2,1.4-0.6l22-22
		C34.2,72.4,34.2,71.1,33.4,70.4z"/>
	<path d="M41.7,78.6c-0.8-0.8-2-0.8-2.8,0l-24,24c-0.8,0.8-0.8,2,0,2.8c0.4,0.4,0.9,0.6,1.4,0.6s1-0.2,1.4-0.6l24-24
		C42.4,80.6,42.4,79.4,41.7,78.6z"/>
	<path d="M66.6,69.5c-0.8-0.8-2-0.8-2.8,0l-37.4,37.4c-0.8,0.8-0.8,2,0,2.8c0.4,0.4,0.9,0.6,1.4,0.6s1-0.2,1.4-0.6l37.4-37.4
		C67.4,71.5,67.4,70.3,66.6,69.5z"/>
	<path d="M71.5,77l-31.3,31.3c-0.8,0.8-0.8,2,0,2.8c0.4,0.4,0.9,0.6,1.4,0.6s1-0.2,1.4-0.6l31.3-31.3c0.8-0.8,0.8-2,0-2.8
		S72.3,76.2,71.5,77z"/>
</g>
</svg>
