<?xml version="1.0" encoding="utf-8"?>
<!-- Generator: Adobe Illustrator 24.2.0, SVG Export Plug-In . SVG Version: 6.00 Build 0)  -->
<svg version="1.1" id="Layer_1" xmlns="http://www.w3.org/2000/svg" xmlns:xlink="http://www.w3.org/1999/xlink" x="0px" y="0px"
	 viewBox="0 0 128 128" style="enable-background:new 0 0 128 128;" xml:space="preserve">
<g>
	<path d="M123.3,63.6c0-0.2-0.1-0.3-0.3-0.4l-18.3-8.6c-0.1-0.1-0.2-0.1-0.4,0l-4.4,1.3l9.4-11l0.3-0.3c0.1-0.1,0.1-0.2,0.1-0.3
		l0.7-30.8c0-0.2-0.1-0.4-0.3-0.5L91.9,4.5c-0.1-0.1-0.2-0.1-0.4,0l-17,5L60.2,7.7c-0.2,0-0.3,0.1-0.5,0.2L44.5,27.7l-0.1,0.1
		c0,0,0,0.1-0.1,0.1L42,33.5l-5.9,1.7l-14.4-1.7c-0.2,0-0.3,0.1-0.5,0.2L6,53.6c0,0,0,0.1-0.1,0.1L1.1,65.5c0,0.1,0,0.2,0,0.2
		l2.7,24.4c0,0.2,0.1,0.3,0.3,0.4l21.3,8.7c0.1,0,0.1,0,0.2,0h0.1l24.4-4.1c0.1,0,0.2-0.1,0.3-0.2l2.3-2.9l2.4,22.4
		c0,0.2,0.1,0.3,0.3,0.4l21.3,8.7c0.1,0,0.1,0,0.2,0H77l24.4-4.1c0.1,0,0.2-0.1,0.3-0.2l25.1-27.7l0.3-0.3c0.1-0.1,0.1-0.3,0.1-0.4
		L123.3,63.6z M107.8,14.9L107.8,14.9L107,43.5l-18.7,22l-5.2-19l12.6-18.3c1.2,3.7,4.6,13.6,5.7,14.6c0.9,0.8,1.7,0.6,2.2,0.2
		c0.4-0.4,0.5-1.2-0.2-2s-3.8-9.4-5.8-14.9l4.6-3c0.1,0,0.1-0.1,0.1-0.1c0-0.1,3.7-5.2,5-7.2C107.6,15.5,107.7,15.2,107.8,14.9z
		 M64.7,70.6c0.2-0.2,0.5-0.7,0.4-1.4l-0.7-19.4l16.2-2c0.8,3.1,4.6,17.5,5.1,18.6c0.1,0.2,0.2,0.4,0.4,0.6L64.7,70.6z M61.1,10.5
		l13.6,1.6c0.1,0,0.1,0,0.2,0l16.6-4.9l14,6.5c-0.1,0.1-0.2,0.3-0.4,0.4l-4.7,6.8l-5.6,3.6c-0.1,0-0.1,0.1-0.1,0.1L80.8,45
		l-17.6,2.1c-1.5-0.7-15.9-6.9-17.4-7.7c-0.7-0.3-1.4-0.4-1.9,0c-0.4,0.2-0.5,0.6-0.5,1.1c0.1,0.6,0.5,1.1,1.2,1.4l16.9,7.5
		c0.1,2.4,0.7,18.4,0.7,19.8c0,0.3,0.1,0.5,0.2,0.8l-17.9-7.3L42,40.2l4.5-11L61.1,10.5z M24.7,73c-1.5-0.7-15.8-7-17.3-7.7
		c-0.7-0.3-1.4-0.4-1.9,0c-0.3,0.2-0.5,0.6-0.5,1c0.1,0.6,0.5,1.1,1.2,1.4l16.9,7.5c0.1,2.4,0.7,18.4,0.7,19.8
		c0,0.3,0.1,0.5,0.2,0.8L6.3,88.5L3.8,66l4.5-11l14.3-18.7L36.3,38c0.1,0,0.1,0,0.2,0l4.3-1.3l-1.2,2.9c0,0.1,0,0.2,0,0.2l2.7,24.4
		c0,0.2,0.1,0.3,0.3,0.4l3.2,1.3l-3.3,4.8L24.7,73z M26.2,96.4c0.2-0.2,0.5-0.7,0.4-1.4l-0.7-19.4l16.2-2c0.8,3.1,4.6,17.5,5.1,18.6
		c0.1,0.2,0.2,0.4,0.4,0.6L26.2,96.4z M49.8,91.1l-5.2-18.8l3.6-5.3l13.2,5.4L57.2,78c0,0,0,0.1-0.1,0.1l-2.5,6L49.8,91.1z M76,97.3
		c-1.5-0.7-15.9-6.9-17.4-7.7c-0.7-0.3-1.4-0.4-1.9,0c-0.4,0.2-0.5,0.6-0.5,1.1c0.1,0.6,0.5,1.1,1.2,1.4l16.9,7.5
		C74.4,102,75,118,75,119.4c0,0.3,0.1,0.5,0.2,0.8l-17.8-7.3l-2.5-22.5l4.5-11l4.6-6l24.2-4.1c0.1,0,0.2-0.1,0.3-0.2l8.1-9.5
		l7.5-2.2l14,6.5c-0.1,0.1-0.2,0.3-0.4,0.4l-4.7,6.8l-5.6,3.6c-0.1,0-0.1,0.1-0.1,0.1L93.6,95.2L76,97.3z M77.5,120.7
		c0.2-0.2,0.5-0.7,0.4-1.4l-0.7-19.4l16.2-2c0.8,3.1,4.6,17.5,5.1,18.6c0.1,0.2,0.2,0.4,0.4,0.6L77.5,120.7z M101.1,115.7l-5.2-19
		l12.8-18.6c1.8,2.2,8.8,10.5,9.9,11.4c0.9,0.8,1.7,0.6,2.2,0.2c0.4-0.4,0.5-1.2-0.2-2l-10-11.5l4.5-2.9c0.1,0,0.1-0.1,0.1-0.1
		c0-0.1,3.7-5.2,5-7.2c0.2-0.3,0.4-0.6,0.4-0.9l0.1,0.1l3.4,25.1L101.1,115.7z"/>
	<path d="M58.1,26.8l11.8,4.4c0.1,0,0.1,0,0.2,0s0.2,0,0.3-0.1c0.4-0.4,10.3-9.6,11.7-11c0.9-0.9,0.9-1.8,0.5-2.3
		c-0.5-0.5-1.4-0.5-2.3,0.3l-10.7,10c-1.6-0.6-8.7-3.5-10.6-3.9c-1.7-0.4-2.1,0.4-2.2,0.7C56.6,25.6,57.1,26.4,58.1,26.8z"/>
</g>
</svg>
