<?xml version="1.0" encoding="utf-8"?>
<!-- Generator: Adobe Illustrator 24.2.0, SVG Export Plug-In . SVG Version: 6.00 Build 0)  -->
<svg version="1.1" id="Layer_1" xmlns="http://www.w3.org/2000/svg" xmlns:xlink="http://www.w3.org/1999/xlink" x="0px" y="0px"
	 viewBox="0 0 128 128" style="enable-background:new 0 0 128 128;" xml:space="preserve">
<g>
	<path d="M68.8,56.5c-3-4.2-8.7-7.1-12.4-9.1c-1-0.5-1.8-0.9-2.4-1.3c-0.9-0.5-2.7-2-2.7-3.3c0-0.9,0.9-2.1,2.7-3.2
		c3.6-2.3,6.8-2.9,9.5-3.5c3.2-0.7,6.3-1.3,7.3-4.8c0.5-1.8,0.3-3.6-0.3-5.2c5.4,2.6,11.8,6.7,11.8,10.8c0,0.5-0.2,1.2-0.4,1.9
		c-0.4,1.7-1,4,0.5,6.1c1.8,2.5,6,4,13.7,4.8c0.1,0,0.1,0,0.2,0c1,0,1.9-0.8,2-1.8c0.1-1.1-0.7-2.1-1.8-2.2
		c-8.2-0.8-10.3-2.3-10.9-3.1c-0.4-0.6-0.3-1.3,0.1-2.8c0.2-0.9,0.5-1.9,0.5-2.9c0-7.7-11.4-13.4-17-15.7L84,6.5
		c0.1-0.1,0.3-0.1,0.4,0l39.7,39.7c0.8,0.8,2,0.8,2.8,0c0.8-0.8,0.8-2,0-2.8L87.2,3.6c-1.7-1.7-4.4-1.7-6,0L65.6,19.2L50,3.6
		c-1.7-1.7-4.4-1.7-6,0L1,46.5c-0.8,0.8-0.8,2,0,2.8c0.8,0.8,2,0.8,2.8,0L46.7,6.5c0.1-0.1,0.3-0.1,0.4,0l17,17
		c0.9,1,3.4,4.4,2.7,6.9c-0.3,1-1.1,1.3-4.2,2c-2.8,0.6-6.6,1.3-10.8,4c-3.1,1.9-4.6,4.2-4.5,6.6c0.1,3.9,4.2,6.4,4.7,6.6
		c0.7,0.4,1.6,0.9,2.6,1.4c3.4,1.8,8.5,4.4,11,7.9c0.4,0.5,1,0.8,1.6,0.8c0.4,0,0.8-0.1,1.2-0.4C69.2,58.7,69.4,57.4,68.8,56.5z"/>
	<path d="M67.7,42c0.9-0.6,1.2-1.8,0.6-2.8c-0.5-0.8-1.5-1.1-2.3-0.8l-0.1,0c-4.3,1.2-6.3,2.7-6.6,4.7c-0.3,2.1,1.7,3,3.5,3.9
		c0.5,0.2,1.3,0.6,1.6,0.8c0.4,0.4,0.9,0.6,1.5,0.6c0.5,0,1-0.2,1.4-0.5c0.8-0.8,0.9-2,0.1-2.8c-0.7-0.7-1.7-1.2-2.8-1.7
		c-0.1,0-0.1-0.1-0.2-0.1c0.6-0.3,1.4-0.6,2.7-1C67.2,42.2,67.4,42.1,67.7,42z"/>
	<path d="M85.9,56.3c-0.5,0.2-0.9,0.6-1.1,1.1c-0.2,0.5-0.2,1,0,1.5c0.3,0.7,1,1.2,1.8,1.2c0.3,0,0.5-0.1,0.8-0.2
		c1-0.4,1.5-1.6,1-2.6C88.1,56.3,86.9,55.8,85.9,56.3z"/>
	<path d="M91.1,85.4c0.7,0,1.3-0.3,1.7-0.9v0l0.1-0.2c0.5-1,0.1-2.2-0.9-2.7c-1-0.5-2.2-0.1-2.7,0.9c-0.5,1-0.1,2.2,0.9,2.7
		C90.4,85.3,90.8,85.4,91.1,85.4z"/>
	<path d="M85,88.5L85,88.5c-2,2-4.3,3.5-6.8,4.4c-1,0.4-1.5,1.5-1.2,2.6c0.3,0.8,1,1.3,1.9,1.3c0.2,0,0.5,0,0.7-0.1
		c3.1-1.2,5.8-3,8.2-5.3c0.4-0.4,0.6-0.9,0.6-1.4c0-0.5-0.2-1-0.6-1.4C87.1,87.7,85.8,87.7,85,88.5z"/>
	<path d="M92.6,71.7c-0.1,0.5,0.1,1,0.4,1.5c0.3,0.4,0.8,0.7,1.3,0.8c0.1,0,0.1,0,0.2,0c1,0,1.9-0.8,2-1.8c0.1-1,0.2-2,0.2-2.9
		l0-0.4c-0.2-2.3-1-4.5-2.4-6.6c-0.6-0.9-1.9-1.1-2.8-0.5c-0.4,0.3-0.7,0.8-0.8,1.3c-0.1,0.5,0,1.1,0.3,1.5c1,1.5,1.6,3,1.7,4.6v0.1
		C92.7,70,92.7,70.8,92.6,71.7z"/>
	<path d="M110.7,84.2c0.3,0,0.5,0,0.8-0.2c0.2-0.1,0.5-0.2,0.6-0.4c0.2-0.2,0.3-0.4,0.4-0.6c0.1-0.2,0.1-0.5,0.1-0.8
		c0-0.5-0.2-1-0.6-1.4c-0.1-0.1-0.2-0.2-0.3-0.2c-0.1-0.1-0.2-0.1-0.3-0.2s-0.2-0.1-0.4-0.1c-0.7-0.1-1.3,0.1-1.8,0.5
		c-0.4,0.4-0.6,0.9-0.6,1.4c0,0.5,0.2,1,0.6,1.4C109.7,84,110.2,84.2,110.7,84.2z"/>
	<path d="M108.8,89c-1-0.5-2.2-0.1-2.7,0.9c-1.4,2.7-3.2,5.4-5.5,7.9c-0.7,0.8-0.6,2.1,0.2,2.8c0.4,0.3,0.9,0.5,1.3,0.5
		c0.6,0,1.1-0.2,1.5-0.7c2.5-2.8,4.5-5.8,6-8.8C110.2,90.7,109.8,89.5,108.8,89z"/>
	<path d="M83.4,111.3c-2.8,1.6-5.8,3.1-8.9,4.6c-0.5,0.2-0.8,0.6-1,1.1c-0.2,0.5-0.2,1,0.1,1.5c0.3,0.7,1,1.2,1.8,1.2
		c0.3,0,0.6-0.1,0.8-0.2c3.2-1.5,6.3-3.1,9.2-4.8c1-0.5,1.3-1.8,0.7-2.7C85.6,111.1,84.3,110.8,83.4,111.3z"/>
	<path d="M92,110.2c0.4,0,0.8-0.1,1.2-0.4c0.9-0.6,1.1-1.9,0.5-2.8c-0.6-0.9-1.9-1.1-2.8-0.5l0,0c-0.4,0.3-0.7,0.8-0.8,1.3
		c-0.1,0.5,0,1.1,0.3,1.5C90.8,109.9,91.4,110.2,92,110.2z"/>
	<path d="M62.4,120.9c-0.1,0-0.2,0.1-0.4,0.1s-0.2,0.1-0.4,0.2c-0.1,0.1-0.2,0.2-0.3,0.2c-0.4,0.4-0.6,0.9-0.6,1.4
		c0,0.1,0,0.3,0,0.4c0,0.1,0.1,0.2,0.1,0.4c0,0.1,0.1,0.2,0.2,0.4c0.1,0.1,0.1,0.2,0.2,0.3c0.1,0.1,0.2,0.2,0.3,0.2
		c0.1,0.1,0.2,0.1,0.4,0.2c0.1,0,0.2,0.1,0.4,0.1c0.1,0,0.3,0,0.4,0c0.1,0,0.3,0,0.4,0c0.1,0,0.2-0.1,0.4-0.1
		c0.1-0.1,0.2-0.1,0.3-0.2s0.2-0.2,0.3-0.2c0.1-0.1,0.2-0.2,0.3-0.3c0.1-0.1,0.1-0.2,0.2-0.4c0-0.1,0.1-0.2,0.1-0.4
		c0-0.1,0-0.3,0-0.4c0-0.5-0.2-1-0.6-1.4C63.7,121,63,120.8,62.4,120.9z"/>
	<path d="M114.4,64.9c0.1-0.1,0.2-0.2,0.3-0.2c0.4-0.4,0.6-0.9,0.6-1.4c0-0.5-0.2-1-0.6-1.4c-0.1-0.1-0.2-0.2-0.3-0.2
		c-0.1-0.1-0.2-0.1-0.4-0.2c-0.1,0-0.2-0.1-0.4-0.1c-0.3,0-0.5,0-0.8,0c-0.1,0-0.3,0.1-0.4,0.1c-0.1,0.1-0.2,0.1-0.3,0.2
		c-0.1,0.1-0.2,0.1-0.3,0.2c-0.4,0.4-0.6,0.9-0.6,1.4c0,0.1,0,0.3,0,0.4c0,0.1,0.1,0.2,0.1,0.4c0,0.1,0.1,0.2,0.2,0.4
		c0.1,0.1,0.2,0.2,0.2,0.3c0.1,0.1,0.2,0.2,0.3,0.2c0.1,0.1,0.2,0.1,0.3,0.2c0.1,0,0.2,0.1,0.4,0.1c0.1,0,0.3,0,0.4,0s0.3,0,0.4,0
		c0.1,0,0.2-0.1,0.4-0.1S114.3,65,114.4,64.9z"/>
	<path d="M117,73.2c0.2,0,0.3,0,0.5-0.1c1.1-0.3,1.7-1.3,1.5-2.4c-0.3-1.1-1.3-1.7-2.4-1.5c-1.1,0.3-1.7,1.3-1.5,2.4h0
		C115.3,72.5,116.1,73.2,117,73.2z"/>
	<path d="M108.4,107.3c0.7-0.9,0.6-2.1-0.3-2.8c-0.9-0.7-2.1-0.6-2.8,0.3c-0.7,0.8-0.6,2.1,0.3,2.8c0.4,0.3,0.8,0.5,1.3,0.5
		C107.5,108,108,107.8,108.4,107.3z"/>
	<path d="M119.7,81.2c0.1-1.1-0.7-2.1-1.8-2.1c-1.1-0.1-2.1,0.7-2.1,1.8h0c-0.1,1.1,0.8,2.1,1.8,2.2c0.1,0,0.1,0,0.2,0
		C118.8,83,119.6,82.2,119.7,81.2z"/>
	<path d="M115.4,91.6c0.2,0.1,0.4,0.1,0.6,0.1c0.8,0,1.6-0.5,1.9-1.4c0.4-1-0.2-2.2-1.3-2.5c-1-0.3-2.2,0.2-2.5,1.3
		C113.8,90.1,114.3,91.2,115.4,91.6z"/>
	<path d="M94.1,116.8c-0.5-1-1.8-1.3-2.7-0.8c-1,0.5-1.3,1.8-0.8,2.7c0.4,0.7,1.1,1,1.8,1c0.3,0,0.7-0.1,1-0.2
		C94.3,119,94.7,117.8,94.1,116.8z"/>
	<path d="M110.9,100.5c0.3,0.2,0.6,0.3,1,0.3c0.7,0,1.4-0.4,1.7-1c0.5-1,0.2-2.2-0.8-2.7c-1-0.5-2.2-0.2-2.7,0.8
		C109.6,98.7,109.9,99.9,110.9,100.5z"/>
	<path d="M98.6,111.4L98.6,111.4c-0.9,0.7-1,1.9-0.3,2.8c0.4,0.5,1,0.8,1.6,0.8c0.4,0,0.9-0.1,1.2-0.4c0.9-0.7,1-1.9,0.3-2.8
		C100.7,110.8,99.4,110.7,98.6,111.4z"/>
	<path d="M82.2,121.1c-0.4,0.4-0.6,0.9-0.6,1.4c0,0.5,0.2,1,0.6,1.4c0.2,0.2,0.4,0.3,0.6,0.4c0.2,0.1,0.5,0.2,0.8,0.2
		c0.5,0,1-0.2,1.4-0.6s0.6-0.9,0.6-1.4c0-0.5-0.2-1-0.6-1.4C84.3,120.3,83,120.3,82.2,121.1z"/>
	<path d="M102.1,47.9c-0.1-0.1-0.1-0.2-0.2-0.3c-0.1-0.1-0.2-0.2-0.3-0.2c-0.1-0.1-0.2-0.1-0.3-0.2c-0.1,0-0.2-0.1-0.4-0.1
		c-0.7-0.1-1.3,0.1-1.8,0.6c-0.1,0.1-0.2,0.2-0.2,0.3c-0.1,0.1-0.1,0.2-0.2,0.4c0,0.1-0.1,0.2-0.1,0.4c0,0.1,0,0.3,0,0.4
		s0,0.3,0,0.4c0,0.1,0.1,0.2,0.1,0.4c0,0.1,0.1,0.2,0.2,0.3c0.1,0.1,0.2,0.2,0.2,0.3c0.4,0.4,0.9,0.6,1.4,0.6c0.5,0,1-0.2,1.4-0.6
		c0.1-0.1,0.2-0.2,0.2-0.3c0.1-0.1,0.1-0.2,0.2-0.3c0-0.1,0.1-0.2,0.1-0.4c0-0.1,0-0.3,0-0.4s0-0.3,0-0.4c0-0.1-0.1-0.2-0.1-0.4
		C102.3,48.1,102.2,48,102.1,47.9z"/>
	<path d="M109,49.3c-1-0.5-2.2-0.2-2.7,0.8c-0.5,1-0.2,2.2,0.8,2.7c2.7,1.4,5.3,3.7,7.6,6.6c0.4,0.5,1,0.7,1.6,0.7
		c0.4,0,0.9-0.1,1.3-0.4c0.9-0.7,1-2,0.3-2.8C115.2,53.5,112.2,51,109,49.3z"/>
	<path d="M121.2,70.9c0.3,0.8,1,1.3,1.9,1.3c0.2,0,0.5,0,0.7-0.1c1-0.4,1.6-1.5,1.2-2.6l0,0c-0.4-1-1.5-1.5-2.6-1.2
		c-0.5,0.2-0.9,0.5-1.1,1C121.1,69.8,121.1,70.4,121.2,70.9L121.2,70.9L121.2,70.9z"/>
	<path d="M124.8,75.9c-1.1,0.2-1.8,1.2-1.7,2.3c0.2,1.7,0.4,3.3,0.4,4.9c0,1.8-0.2,3.6-0.5,5.3c-0.1,0.5,0,1,0.3,1.5
		c0.3,0.5,0.7,0.8,1.3,0.9c0.1,0,0.3,0,0.4,0c0.9,0,1.8-0.7,2-1.6c0.4-1.9,0.6-4,0.6-6.1c0-1.8-0.1-3.6-0.4-5.5
		C126.9,76.5,125.9,75.8,124.8,75.9z"/>
	<path d="M116.9,106.9c-0.9-0.6-2.2-0.4-2.8,0.4c-2.1,2.9-4.5,5.4-7.2,7.5c-0.9,0.7-1,1.9-0.3,2.8c0.4,0.5,1,0.8,1.6,0.8
		c0.5,0,0.9-0.2,1.2-0.4c3-2.3,5.6-5.1,7.9-8.3c0.3-0.4,0.4-1,0.4-1.5C117.6,107.7,117.4,107.2,116.9,106.9z"/>
	<path d="M120.8,100c-1-0.5-2.2-0.1-2.7,0.9c-0.2,0.5-0.3,1-0.1,1.5c0.2,0.5,0.5,0.9,1,1.2c0.3,0.1,0.6,0.2,0.9,0.2
		c0.8,0,1.4-0.4,1.8-1.1C122.2,101.7,121.8,100.5,120.8,100z"/>
	<path d="M97,121.2c-0.1-0.1-0.2-0.1-0.4-0.2s-0.2-0.1-0.4-0.1c-0.6-0.1-1.3,0.1-1.8,0.5c-0.4,0.4-0.6,0.9-0.6,1.4s0.2,1,0.6,1.4
		c0.1,0.1,0.2,0.2,0.3,0.2c0.1,0.1,0.2,0.1,0.3,0.2c0.1,0,0.2,0.1,0.4,0.1c0.1,0,0.3,0,0.4,0c0.3,0,0.5,0,0.8-0.1
		c0.2-0.1,0.5-0.2,0.7-0.4c0.1-0.1,0.2-0.2,0.2-0.3c0.1-0.1,0.1-0.2,0.2-0.4c0-0.1,0.1-0.2,0.1-0.4c0-0.1,0-0.3,0-0.4
		c0-0.5-0.2-1-0.6-1.4C97.2,121.3,97.1,121.3,97,121.2z"/>
	<path d="M23.7,90.6L23.7,90.6c-0.5,0-0.9,0-1.3,0c-4,0-7.4-0.3-10.2-0.8c-1.1-0.2-2.1,0.5-2.3,1.6c-0.1,0.5,0,1.1,0.3,1.5
		c0.3,0.4,0.8,0.7,1.3,0.8c3.1,0.6,6.8,0.9,11,0.9c0.5,0,0.9,0,1.4,0c1.1,0,2-0.9,2-2C25.7,91.5,24.8,90.6,23.7,90.6z"/>
	<path d="M6,87.5c-0.7-0.9-2-1-2.8-0.4c-0.9,0.7-1,1.9-0.4,2.8L3,90.1v0c0.4,0.4,0.9,0.7,1.5,0.7c0.4,0,0.9-0.2,1.2-0.4
		C6.5,89.7,6.7,88.4,6,87.5L6,87.5z"/>
	<path d="M35.4,89.8c-0.5,0.1-1,0.3-1.3,0.7c-0.3,0.4-0.5,0.9-0.4,1.5c0.1,1,1,1.8,2,1.8c0.1,0,0.1,0,0.2,0c0.5-0.1,1-0.3,1.3-0.7
		c0.3-0.4,0.5-0.9,0.4-1.5C37.5,90.5,36.5,89.7,35.4,89.8z"/>
	<path d="M63.3,79c-0.4,0.4-0.6,0.9-0.5,1.4c0,0.5,0.2,1,0.6,1.4c0.4,0.4,0.9,0.5,1.4,0.5c0.6,0,1.1-0.2,1.5-0.6
		c0.8-0.8,0.7-2.1-0.1-2.8C65.3,78.1,64,78.2,63.3,79z"/>
	<path d="M54.2,85.5c-3.2,1.5-6.8,2.6-10.6,3.2l-0.3,0c-1.1,0.2-1.8,1.2-1.7,2.3c0.2,1,1,1.7,2,1.7c0.1,0,0.2,0,0.3,0
		c0.1,0,0.2,0,0.3,0c4.2-0.6,8.1-1.8,11.7-3.6c1-0.5,1.4-1.7,0.9-2.7C56.4,85.5,55.1,85,54.2,85.5z"/>
	<path d="M68.9,60.5c-1,0.5-1.3,1.8-0.8,2.7c0.6,1,0.8,2.2,0.8,3.6c0,1.9-0.5,4-1.5,6.1c-0.5,1,0,2.2,1,2.7c0.3,0.1,0.6,0.2,0.8,0.2
		c0.8,0,1.5-0.5,1.8-1.1c1.3-2.7,1.9-5.3,1.9-7.8c0-2.1-0.5-4-1.4-5.5C71.1,60.3,69.8,60,68.9,60.5z"/>
</g>
</svg>
