<svg version="1.1" id="Layer_1" xmlns="http://www.w3.org/2000/svg" xmlns:xlink="http://www.w3.org/1999/xlink" x="0px" y="0px"
	 viewBox="0 0 128 128" style="enable-background:new 0 0 128 128;" xml:space="preserve">
<g>
	<path d="M83.3,5C62.6-1.8,40.9,5,28,22.3c-8.5,11.1-11.8,24.9-9.3,38.8c-2.5,4.7-4.6,8.3-6.1,10.9c-3.2,5.6-4.2,7.5-3.8,8.7
		c0.2,0.6,0.7,0.8,1.1,1l13.1,5v12.8c0,6.3,5.1,11.4,11.4,11.4h9.3c0.2,3.9,0.1,6.8,0,8.9c-0.1,2.9-0.1,4.3,0.6,5.1
		c0.3,0.3,0.8,0.5,1.4,0.5c18-0.2,29.4-0.1,36.2,0c2.5,0,4.5,0.1,6,0.1c3.7,0,4.9-0.2,5.5-0.8c0.4-0.4,0.4-0.9,0.4-1.3V94.7
		c14.7-8.9,23.9-25.2,23.9-42.5C117.6,30.4,104.1,11.9,83.3,5z M47.4,111h12.3c1,0,2-0.8,2-2c0-1.2-0.8-2-2-2H34.3
		c-4.1,0-7.5-3.4-7.5-7.5V85.3c0-0.8-0.5-1.6-1.3-1.8l-12.3-4.8l8.7-16.1c0.3-0.4,0.7-0.9,0.5-1.7c-2.5-13.1,0.5-26,8.3-36.5
		C42.9,8.4,63.1,2.1,82.3,8.6c15.1,5.1,31.2,19.1,31.2,43.5c0.2,16.5-8.5,31.7-22.7,39.9c-0.5,0.3-1,1-1,1.6v28.2H47.4V111z"/>
	<path d="M96.5,80.7c0-4.4-3.6-8-8-8c-1.8,0-3.5,0.6-4.8,1.8l-7.1-5c1-1.9,1.6-4.1,1.6-6.5c0-3-0.9-5.8-2.5-8.2l8.6-8.6
		c1.3,0.8,3,1.2,4.7,1.2c5.3,0,9.7-4.3,9.7-9.7S94.3,28,88.9,28s-9.7,4.3-9.7,9.7c0,1.9,0.6,3.8,1.8,5.5l-8.4,8.5
		c-2.7-2.2-5.8-3.3-9.1-3.3c-3.4,0-6.4,1.1-8.8,3.1l-6.2-6.4c1.2-1.6,1.9-3.6,1.9-5.7c0-5.3-4.3-9.7-9.7-9.7c-5.3,0-9.7,4.3-9.7,9.7
		s4.3,9.7,9.7,9.7c1.8,0,3.5-0.5,4.9-1.4l6.5,6.5c-1.8,2.4-2.8,5.3-2.9,8.4l-9.8,2.8c-1.1-1.9-3.1-3-5.4-3c-3.6,0-6.6,3-6.6,6.6
		s3,6.6,6.6,6.6c3.6,0,6.5-2.9,6.6-6.4l9.1-2.6c1.5,5.6,6.2,9.8,11.9,10.5v6.4c-2.7,0.8-4.6,3.4-4.6,6.3c0,3.6,3,6.6,6.6,6.6
		c3.6,0,6.6-3,6.6-6.6c0-2.9-1.8-5.3-4.6-6.3v-6.4c3.3-0.5,6.2-2,8.6-4.5l6.9,5c-0.4,0.9-0.6,1.9-0.6,3.1c0,4.4,3.6,8,8,8
		S96.5,85.1,96.5,80.7z M46.4,39.6c0,3.1-2.7,5.8-5.8,5.8s-5.8-2.7-5.8-5.8s2.7-5.8,5.8-5.8S46.4,36.5,46.4,39.6z M88.9,31.9
		c3.1,0,5.8,2.7,5.8,5.8s-2.7,5.8-5.8,5.8s-5.8-2.7-5.8-5.8S85.8,31.9,88.9,31.9z M63.5,73.3c-5.7,0-10.4-4.7-10.4-10.4
		c0-5.6,4.8-10.4,10.4-10.4c5.6,0,10.4,4.8,10.4,10.4C73.9,68.7,69.3,73.3,63.5,73.3z M66.3,89.7c0,1.4-1,2.7-2.7,2.7
		c-1.4,0-2.7-1-2.7-2.7c0-1.6,1.1-2.7,2.7-2.8C64.8,87.1,66.3,88.1,66.3,89.7z M92.4,80.7c0,2.2-1.9,4.1-4.1,4.1s-4.1-1.9-4.1-4.1
		s1.9-4.1,4.1-4.1S92.4,78.5,92.4,80.7z M36.9,68.8c0,1.7-1.4,2.7-2.7,2.7s-2.7-1-2.7-2.7c0-1.4,1-2.7,2.7-2.7
		C35.5,66.1,36.9,67.1,36.9,68.8z"/>
	<path d="M43.2,23.4c0.2,0.5,0.6,0.8,1.1,1c0.2,0,0.3,0.1,0.5,0.1c0.3,0,0.6-0.1,1-0.2c0.5-0.2,0.8-0.6,1-1.1c0.1-0.5,0.1-1-0.2-1.5
		l-2.1-4.2c-0.2-0.5-0.6-0.8-1.1-1c-0.5-0.1-1-0.1-1.5,0.2c-1,0.5-1.3,1.6-0.8,2.6L43.2,23.4z"/>
	<path d="M52,19.5c0.1,0.5,0.4,0.9,0.9,1.1c0.3,0.2,0.6,0.2,0.9,0.2c0.2,0,0.3,0,0.5-0.1c0.5-0.1,0.9-0.4,1.2-0.9
		c0.2-0.4,0.3-0.9,0.2-1.5l-1.3-4.6c-0.3-1-1.3-1.6-2.3-1.3c-0.5,0.1-0.9,0.4-1.2,0.9c-0.2,0.4-0.3,0.9-0.2,1.5L52,19.5z"/>
	<path d="M63.3,19.1c1.1,0,1.8-1,1.8-2.1l-0.4-4.7c0-1.1-1-1.8-2-1.8c-1.3,0-2,1-2,2.1l0.4,4.9C61.4,18.4,62.3,19.1,63.3,19.1z"/>
	<path d="M72.5,19.1c1,0,2-0.7,2-1.8l0.4-4.8c0-1-0.7-2-1.8-2c-1,0-2,0.7-2,1.8L70.7,17c-0.1,0.5,0,1,0.3,1.4
		C71.4,18.8,71.9,19.1,72.5,19.1z"/>
	<path d="M81.4,20.8c0.2,0,0.3,0.1,0.5,0.1c0.3,0,0.6-0.1,0.9-0.2c0.5-0.2,0.8-0.7,0.9-1.1l1.3-4.6c0.3-1.1-0.3-2.1-1.3-2.3
		c-1.1-0.3-2.1,0.3-2.3,1.3L80,18.5c-0.1,0.5-0.1,1,0.2,1.4C80.4,20.4,80.9,20.7,81.4,20.8z"/>
	<path d="M89.9,24.4c0.3,0.2,0.7,0.2,1,0.2c0.2,0,0.3,0,0.5-0.1c0.5-0.1,0.9-0.5,1.1-1l2.3-4.2c0.2-0.5,0.3-1,0.2-1.5
		c-0.1-0.5-0.5-0.9-1-1.1c-0.5-0.2-1-0.3-1.5-0.2c-0.5,0.1-0.9,0.5-1.1,1l-2.3,4.2c-0.3,0.4-0.3,0.9-0.2,1.4
		C89,23.7,89.4,24.2,89.9,24.4z"/>
</g>
</svg>
