<svg  xmlns="http://www.w3.org/2000/svg" xmlns:xlink="http://www.w3.org/1999/xlink" version="1.1" x="0px" y="0px" viewBox="0 0 512 512" style="enable-background:new 0 0 512 512;" xml:space="preserve"><g><g><g><path d="M267.89,293.03c-4.84,0-9.56-0.961-14.01-2.841c-4.3-1.81-8.15-4.409-11.44-7.699c-3.3-3.29-5.89-7.141-7.71-11.45     c-1.88-4.46-2.83-9.181-2.83-14.03c0-4.85,0.95-9.57,2.83-14.02c1.82-4.31,4.41-8.16,7.71-11.45c3.29-3.3,7.14-5.89,11.45-7.71     c4.45-1.88,9.16-2.83,14.01-2.83h0.03c4.851,0,9.561,0.95,14.01,2.83c4.311,1.82,8.16,4.41,11.45,7.71     c3.3,3.29,5.891,7.14,7.71,11.45c1.88,4.45,2.83,9.17,2.83,14.02c0,4.86-0.95,9.57-2.83,14.03c-1.819,4.31-4.41,8.16-7.71,11.45     c-3.29,3.29-7.14,5.89-11.439,7.699c-4.45,1.88-9.17,2.841-14.011,2.841H267.89z M267.91,241c-8.82,0-16,7.19-16.01,16.01     c0.01,8.83,7.19,16.01,16.01,16.021c8.83-0.011,16.01-7.19,16.02-16.021C283.92,248.19,276.74,241.01,267.91,241L267.91,241z"></path></g><g><path d="M267.91,172.08c-5.511,0-10-4.49-10-10v-59.05c0-5.52,4.489-10,10-10c5.52,0,10,4.48,10,10v59.05     C277.91,167.59,273.43,172.08,267.91,172.08z"></path></g><g><path d="M267.91,213c-5.511,0-10-4.48-10-10v-12c0-5.51,4.489-10,10-10c5.52,0,10,4.49,10,10v12     C277.91,208.52,273.43,213,267.91,213z"></path></g><g><path d="M334.819,200.11L334.819,200.11c-2.659,0-5.159-1.03-7.039-2.9c-3.921-3.88-3.95-10.22-0.061-14.14l41.85-42.23     c1.9-1.91,4.421-2.96,7.11-2.96c2.65,0,5.15,1.03,7.04,2.9c1.89,1.88,2.94,4.38,2.96,7.05c0.01,2.67-1.02,5.19-2.899,7.09     l-41.86,42.23C340.03,199.06,337.5,200.11,334.819,200.11z"></path></g><g><path d="M306.02,228.91c-2.67,0-5.18-1.04-7.069-2.93c-1.891-1.89-2.931-4.4-2.931-7.07c0-2.68,1.04-5.19,2.931-7.07l8.399-8.41     c1.891-1.89,4.4-2.93,7.07-2.93c2.68,0,5.189,1.04,7.07,2.93c1.89,1.89,2.93,4.4,2.93,7.07c0,2.67-1.04,5.19-2.93,7.08l-8.4,8.4     C311.2,227.87,308.689,228.91,306.02,228.91z"></path></g><g><path d="M421.899,267.01h-59.43c-5.51,0-10-4.479-10-9.99c0-5.52,4.49-10.01,10-10.01h59.43c5.511,0,10,4.49,10,10.01     C431.899,262.53,427.41,267.01,421.899,267.01z"></path></g><g><path d="M333.93,267.01h-12c-5.52,0-10-4.479-10-10c0-5.51,4.48-10,10-10h12c5.51,0,10,4.49,10,10     C343.93,262.53,339.439,267.01,333.93,267.01z"></path></g><g><path d="M376.68,375.78c-2.67,0-5.189-1.04-7.08-2.931L327.74,330.99c-3.891-3.9-3.891-10.25,0-14.15     c1.89-1.88,4.409-2.92,7.079-2.92c2.671,0,5.181,1.04,7.07,2.92l41.86,41.87c1.89,1.88,2.93,4.39,2.93,7.07     c0,2.67-1.04,5.18-2.93,7.069C381.859,374.74,379.35,375.78,376.68,375.78z"></path></g><g><path d="M314.42,313.52c-2.67,0-5.18-1.04-7.07-2.93l-8.399-8.4c-1.891-1.89-2.931-4.399-2.931-7.069s1.04-5.181,2.931-7.07     c1.89-1.89,4.399-2.93,7.069-2.93s5.181,1.04,7.07,2.93l8.4,8.4c1.89,1.89,2.93,4.399,2.93,7.069s-1.04,5.19-2.93,7.07     C319.609,312.479,317.1,313.52,314.42,313.52z"></path></g><g><path d="M267.91,421c-5.511,0-10-4.49-10-10v-59.431c0-5.51,4.489-10,10-10c5.52,0,10,4.49,10,10V411     C277.91,416.51,273.43,421,267.91,421z"></path></g><g><path d="M267.91,333.03c-5.511,0-10-4.49-10-10V311.02c0-5.51,4.489-9.989,10-9.989c5.52,0,10,4.479,10,9.989v12.011     C277.91,328.54,273.43,333.03,267.91,333.03z"></path></g><g><path d="M158.78,375.78c-2.69,0-5.21-1.061-7.1-2.971c-3.89-3.91-3.86-10.26,0.06-14.14l42.23-41.86     c1.89-1.87,4.39-2.89,7.04-2.89c2.69,0,5.21,1.05,7.11,2.96c3.88,3.91,3.85,10.26-0.07,14.14l-42.23,41.86     C163.93,374.75,161.43,375.78,158.78,375.78z"></path></g><g><path d="M221.41,313.52c-2.67,0-5.19-1.04-7.07-2.92c-3.9-3.899-3.9-10.25-0.01-14.149l8.4-8.4c1.89-1.89,4.4-2.93,7.08-2.93     c2.67,0,5.18,1.04,7.07,2.93s2.93,4.4,2.93,7.07s-1.04,5.18-2.93,7.069l-8.4,8.41C226.59,312.479,224.08,313.52,221.41,313.52z"></path></g><g><path d="M172.98,267.01h-59.05c-5.52,0-10-4.479-10-10c0-5.51,4.48-10,10-10h59.05c5.52,0,10,4.49,10,10     C182.98,262.53,178.5,267.01,172.98,267.01z"></path></g><g><path d="M213.9,267.01h-12c-5.51,0-10-4.479-10-10c0-5.51,4.49-10,10-10h12c5.52,0,10,4.49,10,10     C223.9,262.53,219.42,267.01,213.9,267.01z"></path></g><g><path d="M201.01,200.11c-2.67,0-5.18-1.04-7.07-2.93l-42.23-42.23c-1.89-1.89-2.93-4.4-2.93-7.07s1.04-5.18,2.93-7.07     c1.89-1.89,4.4-2.93,7.07-2.93s5.18,1.04,7.07,2.93l42.23,42.23c3.9,3.9,3.9,10.24,0,14.14     C206.19,199.07,203.68,200.11,201.01,200.11z"></path></g><g><path d="M229.81,228.91c-2.68,0-5.19-1.04-7.08-2.93l-8.4-8.4c-1.88-1.89-2.93-4.41-2.93-7.08c0-2.67,1.05-5.18,2.93-7.07     c1.89-1.89,4.4-2.93,7.08-2.93c2.67,0,5.18,1.04,7.07,2.93l8.4,8.41c3.9,3.89,3.9,10.24,0,14.14     C234.99,227.87,232.48,228.91,229.81,228.91z"></path></g><g><path d="M83.93,211L83.93,211c-8.02,0-15.55-3.12-21.21-8.79c-5.67-5.66-8.79-13.19-8.79-21.21c0-8.01,3.12-15.55,8.79-21.21     c5.66-5.67,13.19-8.79,21.21-8.79c8.01,0,15.55,3.12,21.21,8.79c5.66,5.66,8.78,13.2,8.79,21.21     c-0.01,8.02-3.13,15.55-8.79,21.21C99.48,207.88,91.94,211,83.93,211z M83.93,171c-5.5,0.01-9.99,4.5-10,10     c0.01,5.5,4.5,9.99,10,10c5.5-0.01,9.99-4.5,10-10C93.92,175.5,89.43,171.01,83.93,171L83.93,171z"></path></g><g><path d="M323.93,471L323.93,471c-8.02,0-15.55-3.12-21.21-8.79c-5.67-5.66-8.79-13.2-8.79-21.21c0-8.021,3.12-15.55,8.79-21.21     c5.66-5.67,13.19-8.79,21.21-8.79c8.01,0,15.55,3.12,21.21,8.79c5.66,5.66,8.79,13.189,8.79,21.21c0,8.01-3.13,15.55-8.79,21.21     C339.479,467.88,331.939,471,323.93,471z M323.93,431c-5.5,0.01-9.99,4.5-10,10c0.01,5.5,4.5,9.99,10,10c5.5-0.01,9.99-4.5,10-10     C333.92,435.5,329.43,431.01,323.93,431L323.93,431z"></path></g><g><path d="M173.93,111L173.93,111c-8.02,0-15.55-3.12-21.21-8.79c-5.67-5.66-8.79-13.2-8.79-21.21c0-8.02,3.12-15.55,8.79-21.21     c5.66-5.67,13.19-8.79,21.21-8.79c8.01,0,15.55,3.12,21.21,8.79c5.66,5.66,8.79,13.19,8.79,21.21s-3.13,15.55-8.79,21.21     C189.48,107.88,181.94,111,173.93,111z M173.93,71c-5.5,0.01-9.99,4.5-10,10c0.01,5.5,4.5,9.99,10,10c5.5-0.01,9.99-4.5,10-10     C183.92,75.5,179.43,71.01,173.93,71L173.93,71z"></path></g><g><path d="M143.93,481L143.93,481c-10.69,0-20.73-4.16-28.28-11.72c-7.56-7.551-11.72-17.591-11.72-28.28     c0-10.69,4.16-20.73,11.72-28.28c7.55-7.56,17.59-11.72,28.28-11.72s20.73,4.16,28.28,11.72c7.55,7.55,11.71,17.59,11.72,28.28     c-0.01,10.689-4.17,20.729-11.72,28.28C164.66,476.84,154.62,481,143.93,481z M143.93,421c-11.01,0.02-19.98,8.99-20,20     c0.02,11.01,8.99,19.979,20,20c11.01-0.021,19.98-8.99,20-20C163.91,429.99,154.94,421.02,143.93,421L143.93,421z"></path></g><g><path d="M343.93,111L343.93,111c-10.689,0-20.729-4.16-28.29-11.72c-7.55-7.55-11.71-17.59-11.71-28.28s4.16-20.73,11.71-28.28     C323.2,35.17,333.24,31,343.93,31c10.69,0,20.73,4.17,28.28,11.72c7.56,7.55,11.72,17.59,11.72,28.28s-4.16,20.73-11.72,28.28     C364.66,106.84,354.62,111,343.93,111z M343.93,51c-11.01,0.02-19.979,8.99-20,20c0.021,11.01,8.99,19.98,20,20     c11.01-0.02,19.98-8.99,20-20C363.91,59.99,354.939,51.02,343.93,51L343.93,51z"></path></g><g><path d="M448.069,385.14c-2.67,0-5.18-1.04-7.069-2.93l-28.28-28.28c-1.89-1.89-2.93-4.399-2.93-7.07     c0-2.67,1.04-5.189,2.93-7.069c1.88-1.891,4.39-2.931,7.07-2.931c2.67,0,5.18,1.04,7.069,2.931l28.28,28.279     c3.9,3.9,3.9,10.24,0,14.141C453.25,384.1,450.74,385.14,448.069,385.14z"></path></g><g><path d="M419.79,385.14c-2.681,0-5.19-1.04-7.07-2.93c-3.9-3.9-3.9-10.24,0-14.141L441,339.79     c1.89-1.891,4.399-2.931,7.069-2.931c2.671,0,5.181,1.04,7.07,2.931c3.9,3.899,3.9,10.24,0,14.14l-28.28,28.28     C424.97,384.1,422.46,385.14,419.79,385.14z"></path></g><g><path d="M113.93,339.28c-2.67,0-5.18-1.04-7.07-2.931l-28.29-28.28c-1.89-1.89-2.93-4.399-2.93-7.069s1.04-5.181,2.93-7.07     s4.4-2.93,7.07-2.93c2.68,0,5.19,1.04,7.08,2.93L121,322.21c3.9,3.899,3.9,10.24,0,14.14     C119.11,338.24,116.6,339.28,113.93,339.28z"></path></g><g><path d="M85.64,339.28c-2.67,0-5.18-1.04-7.07-2.931c-3.9-3.899-3.9-10.24,0-14.14l28.29-28.28c1.89-1.89,4.4-2.93,7.07-2.93     s5.18,1.04,7.07,2.93c1.89,1.89,2.93,4.4,2.93,7.07s-1.04,5.18-2.93,7.069l-28.28,28.28C90.83,338.24,88.32,339.28,85.64,339.28z     "></path></g></g></g></svg>