<?xml version="1.0" encoding="utf-8"?>
<!-- Generator: Adobe Illustrator 24.2.0, SVG Export Plug-In . SVG Version: 6.00 Build 0)  -->
<svg version="1.1" id="Layer_1" xmlns="http://www.w3.org/2000/svg" xmlns:xlink="http://www.w3.org/1999/xlink" x="0px" y="0px"
	 viewBox="0 0 128 128" style="enable-background:new 0 0 128 128;" xml:space="preserve">
<path d="M98.4,15.7h0.2c1,0,1.8-0.7,1.9-1.7l0.6-5.5c0.2-1-0.4-2.1-1.5-2.3c-1-0.2-2.1,0.4-2.3,1.5c0,0.1,0,0.3,0,0.4l-0.6,5.5
	C96.6,14.6,97.4,15.6,98.4,15.7z"/>
<path d="M80.7,19.5c0.7,0.8,1.9,0.9,2.7,0.2c0.8-0.7,0.9-1.9,0.2-2.7c0,0,0,0,0,0L80,12.6c-0.7-0.8-1.9-0.9-2.7-0.2
	c-0.8,0.7-0.9,1.9-0.2,2.7L80.7,19.5z"/>
<path d="M113.7,23.7c0.4,0,0.8-0.1,1.2-0.4l4.6-3.4c0.9-0.6,1-1.9,0.4-2.7c-0.6-0.8-1.9-1-2.7-0.4l-4.5,3.4c-0.9,0.6-1,1.9-0.4,2.7
	C112.6,23.5,113.1,23.7,113.7,23.7z"/>
<path d="M88.1,15c0.2,1.1,1.2,1.7,2.3,1.5c1.1-0.2,1.7-1.2,1.5-2.3c0-0.1-0.1-0.3-0.1-0.4l-1.7-5.4c-0.3-1-1.4-1.6-2.4-1.3
	c-1,0.3-1.6,1.4-1.3,2.4L88.1,15z"/>
<path d="M106.1,18.1c0.9,0.5,2.1,0.2,2.6-0.7l2.8-4.9c0.5-0.9,0.2-2.1-0.7-2.7c-0.9-0.5-2.1-0.2-2.6,0.7l-2.8,4.9
	C104.8,16.3,105.1,17.5,106.1,18.1z"/>
<path d="M125.2,27c-0.3-1-1.3-1.6-2.4-1.4l-5.6,1.5c-1,0.3-1.6,1.4-1.4,2.4c0.2,0.8,1,1.4,1.9,1.4c0.2,0,0.3,0,0.5-0.1l5.6-1.5
	C124.9,29.1,125.5,28.1,125.2,27C125.2,27,125.2,27,125.2,27z"/>
<path d="M70.4,24l5.2,2.6c1,0.5,2.1,0.1,2.6-0.9c0.5-1,0.1-2.1-0.9-2.6l-5.2-2.6c-1-0.5-2.1-0.1-2.6,0.9C69,22.4,69.4,23.5,70.4,24
	C70.4,24,70.4,24,70.4,24z"/>
<path d="M81.4,36.1c1.1,0.1,2-0.7,2.1-1.7c0.3-3.2,2-6.2,4.5-8.2c5.5-4.4,13.5-3.5,17.9,2c2,2.6,3,5.8,2.7,9c-0.1,1.1,0.7,2,1.7,2.1
	h0.2c1,0,1.8-0.7,1.9-1.7c0.9-9.1-5.7-17.2-14.8-18.1c-4.3-0.4-8.7,0.9-12.1,3.6c-3.3,2.7-5.5,6.6-5.9,10.8
	C79.6,35,80.4,36,81.4,36.1z"/>
<ellipse cx="73.2" cy="101.6" rx="1.9" ry="1.9"/>
<ellipse cx="114.6" cy="101.6" rx="1.9" ry="1.9"/>
<ellipse cx="23" cy="103.6" rx="1.9" ry="1.9"/>
<ellipse cx="24.9" cy="119.1" rx="1.9" ry="1.9"/>
<ellipse cx="100.2" cy="119.1" rx="1.9" ry="1.9"/>
<path d="M122.4,109.4H2.7c-1.1,0-1.9,0.9-1.9,1.9s0.9,1.9,1.9,1.9h119.6c1.1,0,1.9-0.9,1.9-1.9S123.4,109.4,122.4,109.4z"/>
<path d="M92.5,117.2H32.6c-1.1,0-1.9,0.9-1.9,1.9s0.9,1.9,1.9,1.9h59.8c1.1,0,1.9-0.9,1.9-1.9S93.5,117.2,92.5,117.2z"/>
<path d="M124.2,100.3l-3.7-12.1c0.1-2.3-0.1-4.6-0.6-6.8c0-0.1,0-0.2-0.1-0.3l-2.8-8l-1.6-9.5c-0.1-0.4-0.2-0.7-0.5-1l-1.3-1.5
	l-1.7-9c-0.1-0.5-0.4-1-0.9-1.3l-0.8-0.5c-2.8-7.3-3.2-8-3.9-8.4c-0.3-0.2-0.9-0.8-1.3-1.2c-1.4-1.3-1.6-1.5-2.1-1.6
	s-0.5-0.1-7.9,0.5h-0.2c-0.5,0.1-1.6,0.3-4.3,3.9C89,42,88.8,42,88.4,42c-0.5,0-1,0-1.5,0c-0.7,0-2.3,0.1-3,0.1l-0.2-0.1l-0.1-1.9
	c0-0.7-0.5-1.3-1.1-1.6l-2.6-1.2c-0.6-0.3-1.3-0.2-1.9,0.1l-2.1,1.4c-0.3,0.2-0.5,0.5-0.7,0.8c-1-2.8-2.4-5.5-4.2-7.8
	c-0.7-1.4-3.2-4.5-5.2-4.1c-0.4,0.1-3.1,0.8-4.5,1.2l-3.8-1.9c-0.1,0-0.2-0.1-0.3-0.1l-0.4-0.1c-3-0.9-5.2-1.5-7.3,0.2
	c-0.5,0.3-1,0.6-1.6,0.7c-1.5-0.6-3.1-1-4.8-1.1c-4.2-0.6-8.5-0.5-12.7,0.2l-5.6-0.3c-0.9-0.1-1.7,0.5-1.9,1.3
	c-0.4,1-3.6,4.9-6.5,8.1c-3.8,3-2.4,9.6-1.9,11.2c-0.2,5.8-0.2,10.4-0.2,12C10.5,65,7.8,82,7.4,84.4c-1,3.8-6.4,16.4-6.4,16.5
	c-0.4,1,0,2.1,1,2.5c1,0.4,2.1,0,2.5-1c0.2-0.5,5.7-13.2,6.7-17.2c0-0.1,0-0.1,0-0.2c0.5-3.1,1.6-9.4,3-15c0.4,1.2,0.6,2.5,0.7,3.8
	c0,0.2,0.1,0.4,0.1,0.6c-0.1,0.6,0,1.2,0.2,1.8c0.2,1.4,1.5,11.5-2.8,24.6c-0.3,1,0.2,2.1,1.2,2.5c0.2,0.1,0.4,0.1,0.6,0.1
	c0.8,0,1.6-0.5,1.8-1.3c4.9-14.9,2.9-26.3,2.9-26.7c0-0.1-0.1-0.3-0.1-0.4l-1.4-7.4c-0.4-1.1-1-2.2-1.6-3.2c0.4-1.4,1-2.7,1.8-3.9
	c0.2-0.3,0.3-0.7,0.3-1.1c0,0,0-5.5,0.2-12.7c0-0.2,0-0.4-0.1-0.6c-0.5-1.9-1.1-6.1,0.6-7.4c0.1-0.1,0.2-0.2,0.3-0.3
	c2.4-2.6,4.6-5.3,6.6-8.2l2.3,0.1l1.1,5.3l2.8,18.2l1.6,4.3l2.6,4.9l-1,10.7L32,89.7c0,0.2,0,0.4,0,0.6l1.4,11.6
	c0.1,1,1,1.7,1.9,1.7h0.2c1.1-0.1,1.8-1.1,1.7-2.2l-1.5-11.3L38,78.8l6.5-4L41.3,82c-0.1,0.3-0.2,0.6-0.2,0.9l0.7,18.3
	c0,1,0.9,1.9,1.9,1.9h0.1c1.1,0,1.9-1,1.9-2L45,83.2l5.4-11.9c0.3-0.7,0.2-1.6-0.4-2.2l-2.5-6.4l0.1-6.2l2.8-4.7
	c0.2-0.3,0.3-0.7,0.3-1.1l-0.5-5.8l0.1-4.7c0-0.2,0-0.3,0-0.5l-0.9-4l4.2-5.8c0.5,0.1,1.2,0.3,2.2,0.6l0.3,0.1l2.6,1.3l-3.5,5.4
	c-0.1,0.2-0.2,0.5-0.3,0.7l-1,5.2c-0.1,0.5,0,1.1,0.3,1.5l5,7.2v9.1c0,1.1,0.9,1.9,1.9,1.9s1.9-0.9,1.9-1.9v-9.7
	c0-0.4-0.1-0.8-0.4-1.1l-5-7l0.7-4l4.3-6.5l3.3-0.8c0.7,0.5,1.2,1.2,1.6,1.9c0.1,0.2,0.2,0.3,0.3,0.5c1.9,2.5,3.3,5.3,4.2,8.3
	l0.3,1.5c0.2,0.9,1,1.6,1.9,1.6h2.2c0.9,0,1.7-0.7,1.9-1.6l0.4-2.2l0.5-0.4l0.6,0.3l0.1,1.9c0,0.8,0.5,1.5,1.3,1.8
	c0.4,0.1,0.9,0.3,1.1,0.4c0.6,0.4,1.2,0.4,4.8,0.3h0.5c0.5,0.4,1.4,1.1,2.1,1.8c0.8,0.7,2,0.6,2.7-0.2c0,0,0.1-0.1,0.1-0.1
	c0.9-1.4,2-2.8,3.2-4c2.4-0.2,4.9-0.4,6-0.5l0.7,0.7c0.7,0.7,1.2,1.1,1.5,1.3c0.4,0.8,1.2,2.8,2,5c-1.1-1-2.3-2-2.7-2.5
	c-0.4-0.4-1.8-2.1-7.3,0.7c-0.9,0.5-1.3,1.7-0.8,2.6c0.5,0.9,1.6,1.3,2.6,0.8c1-0.5,2-0.9,3-1.2c1.1,1.2,3.4,3.1,3.9,3.5
	c0.2,0.2,0.5,0.4,0.9,0.4l3,0.6l1.4,7.4c0.1,0.4,0.2,0.7,0.5,1l1.3,1.5l1.5,9.1c0,0.1,0,0.2,0.1,0.3l2,5.8l-1.4-2.1
	c-0.3-0.4-0.7-0.7-1.2-0.8l-3.9-0.8l-2.9-5.1l-2.3-8.1c-0.1-0.5-0.5-1-1-1.2l-5.3-2.7c-0.9-0.5-2.1-0.1-2.6,0.8L94.1,61l-0.2-3.9
	c0-0.2,0-0.3-0.1-0.5l-1.8-5.2c-0.2-0.6-0.7-1.1-1.3-1.3l-6.9-1.6c-0.7-0.1-1.4,0.1-1.8,0.6l-3.3,3.5c-0.3,0.4-0.5,0.8-0.5,1.3
	l-0.5-1.9c-0.1-0.4-0.3-0.7-0.5-1l-1.7-1.7c-0.2-0.3-0.4-0.6-0.7-0.7L73.1,47c-0.2-0.2-0.4-0.3-0.6-0.4l-7.7-3.5c-1-0.4-2.1,0-2.6,1
	c-0.4,1,0,2.1,1,2.6c0,0,0,0,0,0l7.3,3.4l1,1l-4.4,13.8c-0.1,0.2-0.1,0.5-0.1,0.8c0.4,4.5,0.8,9.6,0.8,10.7
	c-0.2,0.9-0.1,1.8,4.4,7.1l-0.6,9.2c-0.1,1.1,0.7,2,1.8,2.1h0.1c1,0,1.9-0.8,1.9-1.8l0.6-10c0-0.5-0.1-1-0.5-1.4
	c-1.4-1.6-2.7-3.3-4-5.1c0-1.1-0.1-3.7-0.8-10.7l3.4-10.7l1.1,4.7l1.9,10.8c0,0.1,0,0.2,0.1,0.3l2.2,6.2l-1.1,13.9
	c0,0.4,0,0.7,0.2,1l2.3,4.6l-1.2,3.5c-0.4,1,0.2,2.1,1.2,2.5c1,0.4,2.1-0.2,2.5-1.2l1.5-4.3c0.2-0.5,0.1-1.1-0.1-1.5l-2.5-4.9
	l1.1-13.8c0-0.3,0-0.5-0.1-0.8l-2.3-6.5l-1.1-6.1l3.9,1.4c0.8,0.3,1.6,0.1,2.1-0.6l4.1-4.9l0.6,10.9c0,0,0,0.1,0,0.1L92.4,82
	c0.1,7.3,1.2,8.1,2.5,8.3c1.5,0.7,2.9,1.4,4.3,2.2c2.5,3.8,3.4,5.2,3.9,5.8c0.1,1.1,0.1,2.1,0,3.2c-0.1,1.1,0.8,2,1.8,2.1h0.1
	c1,0,1.9-0.8,1.9-1.8c0.3-4.7-0.4-5.3-0.8-5.7c-0.4-0.4-2.3-3.4-4-6c-0.2-0.3-0.4-0.5-0.7-0.6c-1.6-1-3.2-1.8-4.9-2.6
	c-0.2-1.7-0.4-3.3-0.4-5c0-0.1,0-0.2,0-0.2L94.7,70l-0.1-1.5l2.7-5.1l2.9,1.5l2.1,7.5c0,0.2,0.1,0.3,0.2,0.4l3.1,5.5l1.4,8.3
	c0,0.1,0,0.2,0.1,0.3l2.3,7.4c0.2,1.1,1.2,1.8,2.2,1.6c1.1-0.2,1.8-1.2,1.6-2.2c0-0.2-0.1-0.3-0.1-0.5l-2.2-7.3l-0.9-5.5l1.3,0.3
	l5.6,8.6l3.8,12.3c0.3,1,1.4,1.6,2.4,1.3C124,102.4,124.5,101.3,124.2,100.3z M45.6,34.1c-0.3,0.4-0.4,1-0.3,1.6l1,4.6l-0.1,4.6
	c0,0.1,0,0.1,0,0.2l0.5,5.2L44,55c-0.2,0.3-0.3,0.6-0.3,1l-0.2,7c0,0.3,0,0.5,0.1,0.8l2.2,5.6l-7,4.3l1-10.8c0.1-0.4,0-0.7-0.1-1.1
	l-3.9-7.4l-3-18.9l-1.1-5.2c0.8-0.1,2-0.3,3.4-0.3c0,0.1,0.1,0.1,0.1,0.2l4.9,5.4l-0.5,5.1l-2.7,6.8c-0.2,0.4-0.2,0.9-0.1,1.3
	l1.9,6.2c0.1,1.1,1,1.9,2.1,1.8c1.1-0.1,1.9-1,1.8-2.1c0-0.3-0.1-0.5-0.2-0.8l-1.7-5.6l2.5-6.4c0.1-0.2,0.1-0.3,0.1-0.5l0.6-6.2
	c0.1-0.5-0.1-1.1-0.4-1.5L40.6,30c0.6,0.1,1.2,0.1,1.8,0.2c1.2,0.1,2.4,0.4,3.5,0.7v0c0.4,0.3,0.8,0.5,1.3,0.5h0.3L45.6,34.1z
	 M84.1,60.6l-4.6-1.7h-0.2v-0.2v-0.1l-0.9-3.8c0.1,0.2,0.2,0.4,0.4,0.5c0.8,0.7,2,0.7,2.7-0.1l2.6-2.7l4.9,1.1l0.4,1L84.1,60.6z"/>
</svg>
