<?xml version="1.0" encoding="utf-8"?>
<!-- Generator: Adobe Illustrator 24.2.3, SVG Export Plug-In . SVG Version: 6.00 Build 0)  -->
<svg version="1.1" id="hny-svg-boil" xmlns="http://www.w3.org/2000/svg" xmlns:xlink="http://www.w3.org/1999/xlink" x="0px"
	 y="0px" viewBox="0 0 100 100" style="enable-background:new 0 0 100 100;" xml:space="preserve">
<path d="M12.6,54.9c1.9,0,3.4,1.5,3.4,3.4s-1.5,3.4-3.4,3.4s-3.4-1.5-3.4-3.4C9.1,56.5,10.7,54.9,12.6,54.9z M74,43.8
	c-2.6,0.8-5-1.3-4.5-3.9c0.2-1.3,1.3-2.4,2.7-2.7c2.6-0.5,4.8,1.9,3.9,4.5C75.8,42.6,75,43.4,74,43.8z M22.1,42.6
	c-2.6,0.8-5-1.3-4.5-3.9c0.2-1.3,1.3-2.4,2.7-2.7c2.6-0.5,4.8,1.9,3.9,4.5C23.9,41.4,23.1,42.2,22.1,42.6z M67.5,63.3
	c-1.1-5.5,3.7-10.3,9.3-9.3c3.1,0.6,5.6,3.1,6.2,6.2c1.1,5.5-3.7,10.3-9.3,9.3C70.6,68.9,68.1,66.4,67.5,63.3z M14.2,19.3
	C13.1,13.8,17.9,9,23.6,10c3.1,0.6,5.6,3.1,6.2,6.2c1.1,5.5-3.7,10.3-9.3,9.3C17.4,24.9,14.9,22.4,14.2,19.3z M81.8,36.9
	c-1.1-5.5,3.7-10.3,9.3-9.3c3.1,0.6,5.6,3.1,6.2,6.2c1.1,5.5-3.7,10.3-9.3,9.3C84.9,42.5,82.4,40,81.8,36.9z M21,71.7
	c4.3,0,7.9,3.5,7.9,7.9s-3.5,7.9-7.9,7.9s-7.9-3.5-7.9-7.9S16.7,71.7,21,71.7z M50.2,32.9c4.3,0,7.9,3.5,7.9,7.9s-3.5,7.9-7.9,7.9
	s-7.9-3.5-7.9-7.9S45.8,32.9,50.2,32.9z M59.5,9.9c3,0,5.4,2.4,5.4,5.4s-2.4,5.4-5.4,5.4s-5.4-2.4-5.4-5.4S56.5,9.9,59.5,9.9z
	 M75.8,79.6c3,0,5.4,2.4,5.4,5.4s-2.4,5.4-5.4,5.4S70.4,88,70.4,85C70.3,82,72.8,79.6,75.8,79.6z M75.8,79.6c3,0,5.4,2.4,5.4,5.4
	s-2.4,5.4-5.4,5.4S70.4,88,70.4,85S72.8,79.5,75.8,79.6z M41.6,59.6c3,0,5.4,2.4,5.4,5.4s-2.4,5.4-5.4,5.4S36.2,68,36.2,65
	S38.6,59.6,41.6,59.6z M72.9,20.2c3,0,5.4,2.4,5.4,5.4S75.9,31,72.9,31s-5.4-2.4-5.4-5.4S69.9,20.2,72.9,20.2z M43.8,90.6
	c0.8,0,1.5,0.7,1.5,1.5s-0.7,1.5-1.5,1.5s-1.5-0.7-1.5-1.5C42.3,91.2,43,90.6,43.8,90.6z M58.6,88.9c0.8,0,1.5,0.7,1.5,1.5
	s-0.7,1.5-1.5,1.5s-1.5-0.7-1.5-1.5C57.1,89.5,57.8,88.9,58.6,88.9z M30.2,50.1c0-0.8,0.7-1.5,1.5-1.5c0.8,0,1.5,0.7,1.5,1.5
	s-0.7,1.5-1.5,1.5C30.8,51.5,30.2,50.9,30.2,50.1z M51.8,74.3c1.3,0,2.4,1.1,2.4,2.4s-1.1,2.4-2.4,2.4c-1.3,0-2.4-1.1-2.4-2.4
	C49.4,75.3,50.4,74.3,51.8,74.3z M57.1,27.1c0-1.3,1.1-2.4,2.4-2.4c1.3,0,2.4,1.1,2.4,2.4s-1.1,2.4-2.4,2.4
	C58.2,29.5,57.1,28.4,57.1,27.1z M95.4,65c1.3,0,2.4,1.1,2.4,2.4s-1.1,2.4-2.4,2.4S93,68.7,93,67.4C92.9,66.1,94,65,95.4,65z
	 M43.6,21.9c-1.8,0-3.3-1.5-3.3-3.3s1.5-3.3,3.3-3.3s3.3,1.5,3.3,3.3C46.9,20.4,45.4,21.9,43.6,21.9z"/>
<circle cx="81.2" cy="13.3" r="3.4"/>
</svg>
