<svg version="1.1" id="Layer_1" xmlns="http://www.w3.org/2000/svg" xmlns:xlink="http://www.w3.org/1999/xlink" x="0px" y="0px"
	 viewBox="0 0 128 128" style="enable-background:new 0 0 128 128;" xml:space="preserve">
<g>
	<path d="M116.7,65.1c-14-13.6-36.6-13.4-50.4,0.4c-0.7,0.7-1.3,1.4-1.9,2.1c-1.3-0.6-3.7-2.2-4.1-3.9c-0.2-0.8,0.1-1.7,0.9-2.7
		c0.2-0.2,0.4-0.4,0.7-0.7c13.5-13.9,13.3-35.4-0.3-49.2C47.9-2.7,25.3-2.9,11.3,10.7C4.5,17.3,0.7,26.2,0.6,35.6
		c-0.1,9.4,3.5,18.3,10.2,25c9.2,9.3,22.8,12.8,35.4,9.1C47.8,71,51,73,55.8,73c1.7,0,3.6-0.3,5.4-0.8c-4,6.5-5.7,14.2-4.9,21.7
		c0.8,7.9,4.2,15.1,9.8,20.8c0.2,0.2,0.4,0.4,0.7,0.7c0.8,1,1.1,1.9,0.9,2.7c-0.5,1.9-3.2,3.5-4.3,4c-0.6,0.3-1,0.9-1,1.5
		c0,0.7,0.4,1.3,1,1.6c3.1,1.5,6.1,2.2,9,2.2c4.8,0,8-2,9.5-3.2c12.6,3.7,26.2,0.2,35.4-9.1c6.7-6.7,10.3-15.6,10.2-25
		C127.3,80.5,123.5,71.7,116.7,65.1z M59.2,13.6C71.5,26,71.6,45.4,59.5,57.9c-0.2,0.2-0.4,0.4-0.7,0.7c0,0-0.1,0.1-0.1,0.1
		c-1.9,2.3-1.9,4.4-1.6,5.7c0.4,1.6,1.4,3.1,3.1,4.4c-7.8,2.3-12.1-2-12.3-2.2c-0.3-0.3-0.8-0.5-1.2-0.5c-0.2,0-0.3,0-0.5,0.1
		c-11.7,3.7-24.3,0.7-32.9-8C7.2,52.1,4,44.1,4,35.6c0.1-8.5,3.5-16.5,9.6-22.4C26.3,0.8,46.8,1,59.2,13.6z M70.9,118.9
		c0.3-1.3,0.3-3.4-1.6-5.7c0,0-0.1-0.1-0.1-0.1c-0.2-0.2-0.4-0.4-0.7-0.7c-12.1-12.5-12-32,0.3-44.4c12.4-12.5,32.9-12.7,45.6-0.4
		c6.1,6,9.6,13.9,9.6,22.4c0.1,8.5-3.2,16.5-9.2,22.6c-8.6,8.7-21.2,11.7-32.9,8c-0.6-0.2-1.3,0-1.8,0.5c0,0-4.3,4.5-12.3,2.2
		C69.5,121.9,70.5,120.4,70.9,118.9z"/>
	<path d="M15.9,30.3L15.9,30.3c0.1,0,0.2,0,0.2,0c0.8,0,1.6-0.6,1.7-1.5c0.3-2,2-3.6,4.1-3.6s3.8,1.5,4.1,3.6c0.1,0.9,1,1.6,1.9,1.5
		c0.5-0.1,0.9-0.3,1.1-0.7c0.3-0.4,0.4-0.8,0.3-1.3c-0.5-3.7-3.7-6.5-7.5-6.5s-7,2.8-7.5,6.5c-0.1,0.5,0.1,0.9,0.3,1.3
		C15,30,15.4,30.2,15.9,30.3z"/>
	<path d="M44.4,30.3L44.4,30.3c0.1,0,0.2,0,0.2,0c0.8,0,1.6-0.6,1.7-1.5c0.3-2,2-3.6,4.1-3.6c2,0,3.8,1.5,4.1,3.6
		c0.1,0.9,1,1.6,1.9,1.5c0.5-0.1,0.9-0.3,1.1-0.7c0.3-0.4,0.4-0.8,0.3-1.3c-0.5-3.7-3.7-6.5-7.5-6.5c-3.7,0-7,2.8-7.5,6.5
		C42.8,29.3,43.5,30.2,44.4,30.3z"/>
	<path d="M100.1,84.7L100.1,84.7c1,0.1,1.8-0.5,1.9-1.5c0.3-2,2-3.6,4.1-3.6s3.8,1.5,4.1,3.6c0.1,0.8,0.8,1.5,1.7,1.5
		c0.1,0,0.2,0,0.2,0c0.9-0.1,1.6-1,1.5-1.9c-0.5-3.7-3.7-6.5-7.5-6.5s-7,2.8-7.5,6.5C98.5,83.7,99.2,84.5,100.1,84.7z"/>
	<path d="M73.5,83.2c0.3-2,2-3.6,4.1-3.6c2,0,3.8,1.5,4.1,3.6c0.1,0.9,1,1.6,1.9,1.5c0.5-0.1,0.9-0.3,1.1-0.7
		c0.3-0.4,0.4-0.8,0.3-1.3c-0.5-3.7-3.7-6.5-7.5-6.5c-3.7,0-7,2.8-7.5,6.5c-0.1,0.5,0.1,0.9,0.3,1.3c0.3,0.4,0.7,0.6,1.1,0.7h0
		c0.1,0,0.2,0,0.2,0C72.7,84.7,73.4,84.1,73.5,83.2z"/>
	<path d="M79.4,104.9c-0.7,0.6-0.8,1.7-0.1,2.4c3.2,3.6,7.8,5.6,12.6,5.6c4.8,0,9.4-2,12.6-5.6c0.6-0.7,0.6-1.8-0.1-2.4
		c-0.7-0.6-1.8-0.6-2.4,0.1c-2.6,2.9-6.3,4.5-10.1,4.5c-3.8,0-7.5-1.6-10.1-4.5C81.1,104.3,80,104.3,79.4,104.9z"/>
</g>
</svg>
