<svg version="1.1" id="Layer_1" xmlns="http://www.w3.org/2000/svg" xmlns:xlink="http://www.w3.org/1999/xlink" x="0px" y="0px"
	 viewBox="0 0 128 128" style="enable-background:new 0 0 128 128;" xml:space="preserve">
<g>
	<path d="M128,66.7v-4h-20.7V40h-3.9v22.6H77.5V56h-3.9v7.9l0,0v29.4H47.7V73.5h-3.9v21.4l0,0V124H29.5V17.3h51.8V28h-6.5v15.9h23.3
		V28h-6.5V17.3h7.5v-3.9H29.5V0H11.4v13.4H-0.3v4h11.7L11.3,124H1v4h114v-4h-7.8V97.2H128v-4h-20.7V66.7H128z M15.3,23.2l8.9,9.2
		l-8.9,9.2L15.3,23.2z M25.6,107.1l-8.8-9.1l8.8-9.1C25.6,89,25.6,107.1,25.6,107.1z M25.6,80.9l-8.8-9.1l8.8-9.1
		C25.6,62.8,25.6,80.9,25.6,80.9z M25.6,54.5l-8.8-9.1l8.8-9.1C25.6,36.4,25.6,54.5,25.6,54.5z M15.3,49.5l8.8,9.2l-8.9,9.2
		L15.3,49.5z M15.3,75.7l8.9,9.2L15.3,94L15.3,75.7z M15.3,102.1l8.9,9.2l-8.9,9.2L15.3,102.1z M25.7,115.4v8.5h-8.4L25.7,115.4z
		 M25.7,28.2L15.4,17.6v-0.2h10.4L25.7,28.2L25.7,28.2z M94.3,40H78.8v-8h15.5V40z M87.8,28h-2.6V17.3h2.6V28z M15.3,4h10.4v9.4
		H15.3V4z M77.5,66.7h25.9v26.6H77.5V66.7z M47.7,124V97.2h25.9v26.6H47.7V124z M103.4,124H77.5V97.2h25.9V124z"/>
	<rect x="119" y="124" width="7.7" height="4"/>
	<path d="M52.8,118.6h15.5v-15.9H52.8V118.6z M56.7,106.6h7.8v8h-7.8V106.6z"/>
	<path d="M98.2,102.6H82.7v15.9h15.5V102.6z M94.3,114.6h-7.8v-8h7.8V114.6z"/>
	<path d="M82.6,88h15.5V71.9H82.6V88z M86.5,75.9h7.8v8h-7.8V75.9z"/>
</g>
</svg>
