<svg version="1.1" id="Layer_1" xmlns="http://www.w3.org/2000/svg" xmlns:xlink="http://www.w3.org/1999/xlink" x="0px" y="0px"
	 viewBox="0 0 846.7 846.7" style="enable-background:new 0 0 846.7 846.7;" xml:space="preserve">
<g>
	<path class="st0" d="M428.8,27.1c-221,0-400.4,179.4-400.4,400.4s179.4,400.4,400.4,400.4s400.4-179.4,400.4-400.4
		S649.8,27.1,428.8,27.1z M428.8,755.6c-181.1,0-328.1-147.1-328.1-328.1S247.7,99.4,428.8,99.4s328.1,147,328.1,328.1
		S609.9,755.6,428.8,755.6z"/>
	<path class="st0" d="M428.8,137.2c-160.2,0-290.3,130.1-290.3,290.3c0,160.2,130.1,290.3,290.3,290.3s290.3-130.1,290.3-290.3
		S589,137.2,428.8,137.2z M428.8,665.5c-131.3,0-238-106.7-238-238s106.7-238,238-238s238,106.7,238,238S560.1,665.5,428.8,665.5z"
		/>
	<path class="st0" d="M428.8,225.8c-111.3,0-201.7,90.4-201.7,201.7c0,111.3,90.4,201.7,201.7,201.7s201.7-90.4,201.7-201.7
		S540.1,225.8,428.8,225.8z M428.8,592.8c-91.3,0-165.3-74-165.3-165.3s74-165.3,165.3-165.3c91.3,0,165.3,74,165.3,165.3
		S520.1,592.8,428.8,592.8z"/>
	<path class="st0" d="M428.8,289.8c-76,0-137.7,61.8-137.7,137.7c0,76.1,61.8,137.7,137.7,137.7c76.1,0,137.7-61.8,137.7-137.7
		C566.5,351.4,504.8,289.8,428.8,289.8z M428.8,540.4c-62.3,0-112.9-50.6-112.9-112.9s50.6-112.9,112.9-112.9
		s112.9,50.6,112.9,112.9S491.1,540.4,428.8,540.4z"/>
	<path class="st0" d="M428.8,337c-50,0-90.5,40.5-90.5,90.5s40.5,90.5,90.5,90.5s90.5-40.5,90.5-90.5S478.8,337,428.8,337z
		 M428.8,501.6c-40.9,0-74.1-33.3-74.1-74.1s33.1-74.1,74.1-74.1c40.9,0,74.1,33.3,74.1,74.1S469.7,501.6,428.8,501.6z"/>
	<path class="st0" d="M428.8,370.3c-31.6,0-57.2,25.6-57.2,57.2s25.6,57.2,57.2,57.2s57.2-25.6,57.2-57.2S460.4,370.3,428.8,370.3z
		 M428.8,474.3c-25.8,0-46.8-21-46.8-46.8s21-46.8,46.8-46.8s46.8,21,46.8,46.8C475.6,453.3,454.6,474.3,428.8,474.3z"/>
</g>
</svg>
