<?xml version="1.0" encoding="utf-8"?>
<!-- Generator: Adobe Illustrator 24.2.0, SVG Export Plug-In . SVG Version: 6.00 Build 0)  -->
<svg version="1.1" id="Layer_1" xmlns="http://www.w3.org/2000/svg" xmlns:xlink="http://www.w3.org/1999/xlink" x="0px" y="0px"
	 viewBox="0 0 128 128" style="enable-background:new 0 0 128 128;" xml:space="preserve">
<g>
	<path d="M68.5,24.4L68.3,8.8c0-1.1-0.9-2-2-2H42.8c-1.1,0-2,0.9-2,2v109.5c0,1.1,0.9,2,2,2h42.6c2.4,0,4.5-1.9,4.7-4.3
		c0-0.3,0-0.6-0.1-0.8C74.8,73.5,68.8,26.9,68.5,24.4z M85.4,116.2H44.8V10.8h19.5l0.2,13.7c0,0.1,0,0.1,0,0.2
		c0.1,0.5,6,48.3,21.5,91.1C85.9,116.1,85.6,116.2,85.4,116.2z"/>
	<path d="M84,86.1c1.7,0,3.4-0.9,5.2-1.9c2.2-1.2,4.5-2.4,7.2-2.4c2.3,0,3.8,0.9,5.3,1.9c1.7,1.1,3.6,2.3,6.8,2.3
		c3.2,0,5.3-1.3,7.2-2.4c1.7-1,3.2-1.9,5.4-1.9c1.1,0,2,0.2,3,0.6c1,0.4,2.2,0,2.6-1c0.4-1,0-2.2-1-2.6c-1.5-0.7-3-1-4.6-1
		c-3.3,0-5.5,1.3-7.4,2.5c-1.7,1-3,1.8-5.1,1.8c-2,0-3.1-0.7-4.7-1.7c-1.8-1.1-4-2.6-7.5-2.6c-3.7,0-6.7,1.6-9.1,2.9
		c-1.2,0.6-2.6,1.4-3.3,1.4c-1.1,0-2,0.9-2,2S82.8,86.1,84,86.1z"/>
	<path d="M125,107.2c-1.1,0.2-2,0.6-2.6,1.1c-1.6,1-3,1.7-5,1.7c-2,0-3.1-0.7-4.6-1.7c-1.7-1.1-4-2.6-7.5-2.6
		c-3.7,0-6.7,1.6-9.1,2.9c-1.2,0.6-2.6,1.4-3.3,1.4c-1.1,0-2,0.9-2,2s0.9,2,2,2c1.7,0,3.4-0.9,5.2-1.9c2.2-1.2,4.5-2.4,7.2-2.4
		c2.3,0,3.8,0.9,5.3,2c1.7,1.1,3.6,2.3,6.8,2.3c3.2,0,5.3-1.2,7.2-2.4c0.1,0,0.1-0.1,0.2-0.1c0,0,0.3-0.2,1.1-0.4
		c1.1-0.2,1.8-1.3,1.5-2.4C127.2,107.6,126.1,107,125,107.2z"/>
	<path d="M118,94.3c-1.7,1-3,1.8-5.1,1.8c-2,0-3.1-0.7-4.7-1.7c-1.8-1.1-4-2.6-7.4-2.6c-3.7,0-6.7,1.6-9.1,2.9
		c-1.2,0.6-2.6,1.4-3.3,1.4c-1.1,0-2,0.9-2,2s0.9,2,2,2c1.7,0,3.4-0.9,5.2-1.9c2.2-1.2,4.5-2.4,7.2-2.4c2.3,0,3.8,0.9,5.3,1.9
		c1.7,1.1,3.6,2.3,6.8,2.3c3.2,0,5.3-1.3,7.2-2.4c1.7-1,3.2-1.9,5.4-1.9c1.1,0,2-0.9,2-2s-0.9-2-2-2C122.2,91.9,120,93.2,118,94.3z"
		/>
	<path d="M36.4,41.8c-1,0-1.8-0.5-3.2-1.5c-1.9-1.3-4.2-2.8-7.8-2.8c-3.3,0-5.5,1.3-7.4,2.5c-1.7,1-3,1.8-5.1,1.8
		c-2,0-3.1-0.7-4.6-1.7c-1.7-1.1-4-2.6-7.5-2.6c-1.1,0-2,0.9-2,2s0.9,2,2,2c2.3,0,3.8,0.9,5.3,1.9c1.7,1.1,3.6,2.3,6.8,2.3
		c3.2,0,5.3-1.2,7.2-2.4c1.7-1,3.2-1.9,5.4-1.9c2.4,0,3.9,1,5.6,2.1c1.6,1,3.2,2.1,5.4,2.1c1.1,0,2-0.9,2-2S37.5,41.8,36.4,41.8z"/>
	<path d="M36.4,69.6c-1,0-1.8-0.5-3.2-1.5c-1.9-1.3-4.2-2.8-7.8-2.8c-3.3,0-5.6,1.4-7.5,2.5c-1.7,1-3,1.8-5.1,1.8
		c-2,0-3.1-0.7-4.7-1.7c-1.8-1.1-4-2.6-7.5-2.6c-1.1,0-2,0.9-2,2s0.9,2,2,2c2.3,0,3.8,0.9,5.3,1.9c1.7,1.1,3.6,2.3,6.8,2.3
		c3.2,0,5.3-1.2,7.2-2.4c1.7-1,3.2-1.9,5.4-1.9c2.4,0,3.9,1,5.6,2.1c1.6,1,3.2,2.1,5.4,2.1c1.1,0,2-0.9,2-2S37.5,69.6,36.4,69.6z"/>
	<path d="M36.4,55.7c-1,0-1.8-0.5-3.2-1.4c-1.9-1.3-4.2-2.8-7.8-2.8c-3.3,0-5.5,1.3-7.4,2.5c-1.7,1-3,1.8-5.1,1.8
		c-2,0-3.1-0.7-4.6-1.7c-1.7-1.1-4-2.6-7.5-2.6c-1.1,0-2,0.9-2,2s0.9,2,2,2c2.3,0,3.8,0.9,5.3,1.9c1.7,1.1,3.6,2.3,6.8,2.3
		c3.2,0,5.3-1.2,7.2-2.4c1.7-1,3.2-1.9,5.4-1.9c2.4,0,3.9,1,5.6,2.1c1.6,1,3.2,2.1,5.4,2.1c1.1,0,2-0.9,2-2S37.5,55.7,36.4,55.7z"/>
	<path d="M36.4,82.5c-1,0-1.8-0.5-3.2-1.5c-1.9-1.3-4.2-2.8-7.8-2.8c-3.3,0-5.6,1.4-7.4,2.5c-1.7,1-3,1.8-5.1,1.8
		c-2,0-3.1-0.7-4.7-1.7c-1.8-1.1-4-2.6-7.4-2.6c-1.1,0-2,0.9-2,2s0.9,2,2,2c2.3,0,3.7,0.9,5.3,1.9c1.7,1.1,3.6,2.3,6.8,2.3
		c3.2,0,5.3-1.2,7.2-2.4c1.7-1,3.2-1.9,5.4-1.9c2.4,0,3.9,1,5.6,2.1c1.6,1,3.2,2.1,5.4,2.1c1.1,0,2-0.9,2-2S37.5,82.5,36.4,82.5z"/>
	<path d="M36.4,110.4c-1,0-1.8-0.5-3.2-1.5c-1.9-1.3-4.2-2.8-7.8-2.8c-3.3,0-5.5,1.3-7.4,2.5c-1.7,1-3,1.8-5.1,1.8
		c-2,0-3.1-0.7-4.7-1.7c-1.8-1.1-4-2.6-7.5-2.6c-1.1,0-2,0.9-2,2s0.9,2,2,2c2.3,0,3.8,0.9,5.3,1.9c1.7,1.1,3.6,2.3,6.8,2.3
		c3.2,0,5.3-1.3,7.2-2.4c1.7-1,3.2-1.9,5.4-1.9c2.4,0,3.9,1,5.6,2.1c1.6,1,3.2,2.1,5.4,2.1c1.1,0,2-0.9,2-2S37.5,110.4,36.4,110.4z"
		/>
	<path d="M36.4,96.5c-1,0-1.8-0.5-3.2-1.4c-1.9-1.3-4.2-2.8-7.8-2.8c-3.3,0-5.5,1.3-7.4,2.5c-1.7,1-3,1.8-5.1,1.8
		c-2,0-3.1-0.7-4.6-1.7c-1.8-1.1-4-2.6-7.5-2.6c-1.1,0-2,0.9-2,2s0.9,2,2,2c2.3,0,3.8,0.9,5.3,1.9c1.7,1.1,3.6,2.3,6.8,2.3
		c3.2,0,5.3-1.2,7.2-2.4c1.7-1,3.2-1.9,5.4-1.9c2.4,0,3.9,1,5.6,2.1c1.6,1,3.2,2.1,5.4,2.1c1.1,0,2-0.9,2-2S37.5,96.5,36.4,96.5z"/>
</g>
</svg>
