<?xml version="1.0" encoding="utf-8"?>
<!-- Generator: Adobe Illustrator 24.2.3, SVG Export Plug-In . SVG Version: 6.00 Build 0)  -->
<svg version="1.1" id="hny-svg-dual-rotary" xmlns="http://www.w3.org/2000/svg" xmlns:xlink="http://www.w3.org/1999/xlink"
	 x="0px" y="0px" viewBox="0 0 100 100" style="enable-background:new 0 0 100 100;" xml:space="preserve">
<path d="M94.8,46.3L87.4,47c0.1,1,0.1,1.9,0.1,2.9c0,20.7-16.8,37.6-37.6,37.6C29.3,87.6,12.4,70.7,12.4,50S29.3,12.4,50,12.4
	c10.2,0,19.5,4.2,26.3,10.8l-0.5,0.5l-7.1,5.9l18.8,1.9l1.9-18.8l-6.4,5.2l-0.8,0.6C73.9,10.2,62.6,5,50,5C25.2,5,5,25.2,5,50
	s20.2,45,45,45s45-20.2,45-45C95,48.7,94.9,47.6,94.8,46.3z"/>
<path d="M49.9,24.7c-9.6,0-18,5.3-22.2,13.2l6,3.3c3.2-5.8,9.2-9.7,16.3-9.7c10.2,0,18.4,8.3,18.4,18.4S60,68.3,49.9,68.3
	c-7.7,0-14.3-4.7-17.1-11.4l1.2-0.6l7.8-3.9l-16.9-5.7l-5.6,17.1l7-3.5l0.5-0.3c4,8.9,12.9,15.3,23.2,15.3
	c13.9,0,25.3-11.4,25.3-25.3S63.9,24.7,49.9,24.7z"/>
</svg>
