<svg version="1.1" id="Layer_1" xmlns="http://www.w3.org/2000/svg" xmlns:xlink="http://www.w3.org/1999/xlink" x="0px" y="0px"
	 viewBox="0 0 128 128" style="enable-background:new 0 0 128 128;" xml:space="preserve">
<g>
	<path d="M36,124.2V3.8c0-1.1-0.8-1.9-1.9-1.9H15.8c-1.1,0-1.9,0.8-1.9,1.9v120.4c0,1.1,0.8,1.9,1.9,1.9h18.4
		C35.2,126.1,36,125.3,36,124.2z M32.2,122.3H17.7V5.7h14.7v116.6H32.2z"/>
	<path d="M22.1,114.6h6c1.1,0,1.9-0.8,1.9-1.9c0-1.1-0.8-1.9-1.9-1.9h-6c-1.1,0-1.9,0.8-1.9,1.9C20.2,113.8,20.9,114.6,22.1,114.6z"
		/>
	<path d="M22.1,98.4h6c1.1,0,1.9-0.8,1.9-1.9c0-1.1-0.8-1.9-1.9-1.9h-6c-1.1,0-1.9,0.8-1.9,1.9C20.2,97.7,20.9,98.4,22.1,98.4z"/>
	<path d="M22.1,82.1h6c1.1,0,1.9-0.8,1.9-1.9c0-1.1-0.8-1.9-1.9-1.9h-6c-1.1,0-1.9,0.8-1.9,1.9C20.2,81.3,20.9,82.1,22.1,82.1z"/>
	<path d="M22.1,65.9h6c1.1,0,1.9-0.8,1.9-1.9c0-1.1-0.8-1.9-1.9-1.9h-6c-1.1,0-1.9,0.8-1.9,1.9C20.2,65.1,20.9,65.9,22.1,65.9z"/>
	<path d="M22.1,49.7h6c1.1,0,1.9-0.8,1.9-1.9s-0.8-1.9-1.9-1.9h-6c-1.1,0-1.9,0.8-1.9,1.9S20.9,49.7,22.1,49.7z"/>
	<path d="M22.1,33.3h6c1.1,0,1.9-0.8,1.9-1.9c0-1.1-0.8-1.9-1.9-1.9h-6c-1.1,0-1.9,0.8-1.9,1.9C20.2,32.6,20.9,33.3,22.1,33.3z"/>
	<path d="M22.1,17.2h6c1.1,0,1.9-0.8,1.9-1.9s-0.8-1.9-1.9-1.9h-6c-1.1,0-1.9,0.8-1.9,1.9S20.9,17.2,22.1,17.2z"/>
	<path d="M113.9,123.4L96.7,79h6.8l0,0c1.1,0,1.9-0.8,1.9-1.9c0-0.2,0-0.2,0-0.4c-0.2-6-3.2-11.5-7.9-14.9v-8.8h12.4
		c1.1,0,1.9-0.8,1.9-1.9c0-7.7,0-24.1,0-31.6c0-1.1-0.8-1.9-1.9-1.9H94.5c-1.1,0-1.9,0.8-1.9,1.9v6.2H63.1c-1.1,0-1.9,0.8-1.9,1.9
		v4.1H54c-1.1,0-1.9,0.8-1.9,1.9v11.5c0,1.1,0.8,1.9,1.9,1.9h7.1v4.1c0,1.1,0.8,1.9,1.9,1.9h12.4v8.8c-4.9,3.6-7.7,9.2-7.7,15.2
		c0,1.1,0.8,1.9,1.9,1.9h6.8l-17.3,44.4c-0.4,0.9,0.2,2.1,1.1,2.4c0.9,0.4,2.1-0.2,2.4-1.1L80.4,79h4.3v45.2c0,1.1,0.8,1.9,1.9,1.9
		c1.1,0,1.9-0.8,1.9-1.9V79h4.1l17.9,45.9C111.4,127.2,114.8,125.9,113.9,123.4z M96.4,21.5H108v4.3H96.4V21.5z M55.9,43.3v-7.7h5.3
		v7.7H55.9z M64.9,29.6c24.1,0,18.8,0,43.1,0v19.6c-1.3,0-42.5,0-43.1,0C64.9,42.4,64.9,37.3,64.9,29.6z M93.7,53.1v6.8
		c-4.9-2.1-10.2-1.7-14.5,0v-6.8H93.7z M101.4,75.3c-9,0-21.1,0-29.9,0C73.8,57.6,99.4,58.4,101.4,75.3z"/>
	<path d="M86.6,47.1c4.1,0,7.5-3.4,7.5-7.5S90.7,32,86.6,32c-4.1,0-7.5,3.4-7.5,7.5S82.3,47.1,86.6,47.1z M86.6,35.6
		c2.1,0,3.8,1.7,3.8,3.8c0,2.1-1.7,3.8-3.8,3.8c-2.1,0-3.8-1.7-3.8-3.8C82.8,37.3,84.3,35.6,86.6,35.6z"/>
</g>
</svg>
