<svg version="1.1" id="Layer_1" xmlns="http://www.w3.org/2000/svg" xmlns:xlink="http://www.w3.org/1999/xlink" x="0px" y="0px"
	 viewBox="0 0 128 128" style="enable-background:new 0 0 128 128;" xml:space="preserve">
<path d="M33.7,112.8c-0.4-0.5-0.9-0.8-1.5-0.8c-0.6,0-1.2,0.2-1.6,0.7l-4.4,5.1l-7.1-4c-1-0.5-2.2-0.2-2.7,0.7
	c0,0.1-0.1,0.2-0.1,0.3l-2.6,6.5l-6.1-1.6c-0.6-0.2-1.3,0-1.8,0.4l-5.1,4.3c-0.7,0.8-0.7,2.1,0.1,2.8c0.7,0.6,1.7,0.7,2.5,0.2
	l4.3-3.7l5.5,1.4l1,1.6c0.6,0.9,1.8,1.2,2.8,0.6c0.9-0.6,1.2-1.8,0.6-2.7l-0.5-0.8l2.2-5.4l6.5,3.7c0.8,0.5,1.9,0.3,2.5-0.4l3.8-4.5
	l7.4,9.8c0.7,0.9,2,1,2.8,0.3c0.8-0.7,1-1.8,0.4-2.7L33.7,112.8z"/>
<circle cx="126" cy="2" r="2"/>
<path d="M116,18c3.3,0,6-2.7,6-6s-2.7-6-6-6s-6,2.7-6,6S112.7,18,116,18z M116,10c1.1,0,2,0.9,2,2s-0.9,2-2,2s-2-0.9-2-2
	S114.9,10,116,10z"/>
<circle cx="2" cy="2" r="2"/>
<path d="M12,18c3.3,0,6-2.7,6-6s-2.7-6-6-6s-6,2.7-6,6S8.7,18,12,18z M12,10c1.1,0,2,0.9,2,2s-0.9,2-2,2s-2-0.9-2-2S10.9,10,12,10z"
	/>
<circle cx="14" cy="93" r="2"/>
<circle cx="22" cy="93" r="2"/>
<circle cx="30" cy="93" r="2"/>
<circle cx="38" cy="93" r="2"/>
<circle cx="46" cy="93" r="2"/>
<circle cx="54" cy="93" r="2"/>
<path d="M122.2,120.1c-0.5-0.4-1.2-0.6-1.8-0.4l-6.1,1.6l-2.6-6.5c-0.4-1-1.5-1.5-2.6-1.1l-6.3,2.4l-3.6-3.4
	c-0.4-0.4-0.9-0.6-1.4-0.6c-0.5,0-1,0.2-1.4,0.6l-7,7.5l3.1-15.6c0.3-0.6,0.5-1.3,0.5-2V82c2.2,0,4-1.8,4-4v-4c0-1.8-1.2-3.4-3-3.9
	V10c0-5.5-4.5-10-10-10c0,0,0,0,0,0H64.3c-2.2,0-4.1,1.1-5.2,3l-10,18.8L42.9,21c-2.1,0-3.9,1.8-3.9,3.9c0,0,0,0.1,0,0.1v5H23.1
	c-2.8-0.1-5.1,2.1-5.1,4.9c0,0,0,0,0,0.1V42H4c-1.8,0-4,1.7-4,3.5v27.2C0,74.5,1.4,76,3.2,76c0,0,0,0,0,0H38v5H13
	C5.8,81,0,86.4,0,93c0,3,1.2,5.9,3.3,8H2c-1.1,0-2,0.9-2,2s0.9,2,2,2h53c7.2,0,13-5.4,13-12s-5.8-12-13-12h-3v-5h12.8
	c1.8,0,3.3-1.5,3.2-3.3c0,0,0,0,0,0V28c0-2.1-1.7-3.9-3.8-4l5-10H78c1.1,0,2,0.9,2,2v54.1c-1.8,0.5-3,2-3,3.9v4c0,2.2,1.8,4,4,4
	v20.7c0,0.7,0.1,1.4,0.5,2l3.1,15.6l-7-7.5c-0.4-0.4-0.9-0.6-1.4-0.6c-0.5,0-1.1,0.2-1.4,0.6l-3.6,3.4l-6.3-2.4
	c-1-0.4-2.2,0.1-2.6,1.1l-2.6,6.5l-6.1-1.6c-0.6-0.2-1.3,0-1.8,0.4l-5.1,4.4c-0.7,0.8-0.7,2.1,0.1,2.8c0.7,0.6,1.7,0.7,2.5,0.2
	l4.3-3.7l5.5,1.4l1,1.6c0.6,0.9,1.8,1.2,2.8,0.6c0.9-0.6,1.2-1.8,0.6-2.7l-0.5-0.8l2.3-5.8l5.7,2.2c0.7,0.3,1.5,0.1,2.1-0.4l3-2.9
	l9.5,10.2l0.1,0.1v0.1l0.1,0.1l0.2,0.1l0.2,0.1l0.2,0.1l0.2,0.1h0.2h0.2h0.4h0.2h0.2l0.2-0.1l0.2-0.1l0.2-0.1l0.2-0.1l0.1-0.1v-0.1
	l0.1-0.1l9.5-10.2l3,2.9c0.6,0.5,1.4,0.7,2.1,0.4l5.7-2.2l2.4,5.8l-0.5,0.8c-0.6,0.9-0.3,2.2,0.6,2.8c0.9,0.6,2.1,0.3,2.7-0.6l1-1.6
	l5.5-1.4l4.3,3.7c0.9,0.6,2.2,0.4,2.8-0.5c0.5-0.8,0.4-1.8-0.2-2.5L122.2,120.1z M88.2,106l-1.2,5.8l-1.2-5.8H88.2z M81,78v-4h12v4
	H81z M22,34.9c0-0.6,0.5-1,1.1-0.9c0,0,0,0,0.1,0H39v8H22V34.9z M42,76h6v5h-6V76z M55,85c4.9,0,9,3.6,9,8s-4,8-9,8H13
	c-5,0-9-3.6-9-8s4-8,9-8H55z M4,72V46.1L4.1,46H43V25.1L63.4,28h0.3H64v30H26c-1.1,0-2,0.9-2,2s0.9,2,2,2h38v10H4z M78,10h-8.8
	c-1.4,0-2.8,0.8-3.5,2L60,23.4l-6.8-1L62.6,5c0.4-0.6,1-1,1.7-1H84c3.3,0,6,2.7,6,6v60h-6V16C84,12.7,81.3,10,78,10z M89,82v18h-4
	V82H89z"/>
<path d="M104.3,111c0.5,0,0.9-0.2,1.3-0.5l2.7-2.2c0.8-0.7,1-2,0.2-2.8s-2-1-2.8-0.2l0,0l-2.7,2.2c-0.8,0.7-1,2-0.2,2.8
	C103.1,110.7,103.7,111,104.3,111L104.3,111z"/>
<path d="M97,106.8c0,1.1,0.9,2,2,2s2-0.9,2-2V103c0-1.1-0.9-2-2-2s-2,0.9-2,2V106.8z"/>
<path d="M69.7,111c1.1,0,2-0.9,2-2c0-0.6-0.2-1.2-0.7-1.6l-2.7-2.2c-0.8-0.7-2.1-0.6-2.8,0.2s-0.6,2.1,0.2,2.8l0,0l2.7,2.2
	C68.8,110.8,69.2,111,69.7,111z"/>
<path d="M77,106.8V103c0-1.1-0.9-2-2-2s-2,0.9-2,2v3.8c0,1.1,0.9,2,2,2S77,107.9,77,106.8z"/>
<path d="M52,44c1.1,0,2-0.9,2-2v-4c0-1.1-0.9-2-2-2s-2,0.9-2,2v4C50,43.1,50.9,44,52,44z"/>
<circle cx="18" cy="60" r="2"/>
</svg>
