<svg version="1.1" id="Layer_1" xmlns="http://www.w3.org/2000/svg" xmlns:xlink="http://www.w3.org/1999/xlink" x="0px" y="0px"
	 viewBox="0 0 100 100" style="enable-background:new 0 0 100 100;" xml:space="preserve">
<rect x="25" y="41.7" width="6.7" height="3.3"/>
<rect x="36.7" y="41.7" width="6.7" height="3.3"/>
<path d="M17.3,28.3c3.6,0,6.5-1.7,9.3-3.4c3.1-1.8,5.9-3.6,9.8-3.3c2.5,0.2,5,1.2,7.5,3l2-2.7c-2.9-2.2-6-3.4-9.2-3.7
	c-4.9-0.4-8.6,1.8-11.8,3.7c-2.8,1.7-5.2,3.1-8.2,2.9c-3.5-0.2-7-2.8-10.4-7.6l-2.7,1.9c4,5.7,8.4,8.7,12.9,9
	C16.8,28.3,17.1,28.3,17.3,28.3z"/>
<path d="M98.3,50H88l-4.7-18.7c-0.2-0.7-0.9-1.3-1.6-1.3H75c-0.8,0-1.4,0.5-1.6,1.3l-3.1,13.3l-3.7-23.2C66.5,20.6,65.8,20,65,20
	h-4.3c1.4-4.9,0.5-10.4-2.8-14.4c-3.7-4.6-9.9-6.9-15-5.6c-2.5,0.7-3.9,2-4.9,3c-1,1-1.7,1.7-3.2,1.9c-1.9,0.3-3.2-0.3-4.9-1.3
	c-1.7-0.9-3.6-1.9-6.3-2.1C19.3,1.4,15,3.2,10.6,7.1l2.2,2.5C16.5,6.3,20,4.8,23.2,5c2,0.1,3.5,0.9,5,1.7c1.9,1,4,2.1,7.1,1.6
	c2.6-0.4,3.9-1.7,5-2.8c1-0.9,1.8-1.7,3.4-2.2c3.9-1,8.7,0.9,11.6,4.4c2.8,3.4,3.4,8.1,1.8,12.3h-5.5c-0.9,0-1.6,0.6-1.7,1.5
	l-1.2,11.8H20c-0.9,0-1.7,0.7-1.7,1.7v15H1.7C0.7,50,0,50.8,0,51.7v46.7c0,0.9,0.7,1.7,1.7,1.7h26.7h6.5h46.9h6.7h10
	c0.9,0,1.7-0.7,1.7-1.7V51.7C100,50.8,99.2,50,98.3,50z M30,96.7c-0.1-4.4-0.7-7.3-1.9-9.2c-0.9-1.4-1.5-2.4-2.1-3.2
	c-0.9-1.4-1.6-2.5-3.1-5.1c-1.2-2-1.7-4.5-1.4-7.4c0-0.5-0.1-0.9-0.4-1.3c-0.3-0.3-0.8-0.5-1.2-0.5h-3.1l6.7-8.9L30,70h-3.3
	c-0.9,0-1.6,0.7-1.7,1.5c-0.3,3.5,0.4,6.7,1.9,9.3c1,1.6,1.7,2.6,2.3,3.3c0.9,1.1,1.5,1.8,2.3,4.7c0.1,0.5,0.3,0.9,0.5,1.5
	c0.6,1.6,1.3,3.5,1.2,6.4C33.3,96.7,30,96.7,30,96.7z M83.5,96.7c0.2-4.8-1.9-8-3.2-10.1c-0.2-0.3-0.4-0.6-0.5-0.8
	c-0.9-1.5-1.3-2.4-1.9-3.6c-0.4-0.8-0.8-1.7-1.4-2.9c-1.1-2.2-1.6-4.7-1.5-7.5c0-0.5-0.1-0.9-0.5-1.2c-0.3-0.3-0.7-0.5-1.2-0.5H70
	l6.7-8.9l6.7,8.9H80c-0.9,0-1.6,0.7-1.7,1.6c-0.1,3.4,0.5,6.4,1.8,9.1c0.6,1.2,1,2.1,1.3,2.8c0.6,1.3,1,2.3,2,4
	c0.2,0.3,0.4,0.6,0.6,0.9c1.2,1.9,2.9,4.5,2.7,8.2L83.5,96.7L83.5,96.7z M96.7,96.7h-6.5c0.2-4.7-1.9-8-3.2-10
	c-0.2-0.3-0.4-0.6-0.5-0.8c-0.9-1.5-1.3-2.4-1.8-3.6c-0.4-0.8-0.8-1.7-1.4-3c-0.9-1.8-1.4-3.8-1.5-5.9h5c0.6,0,1.2-0.4,1.5-0.9
	c0.3-0.6,0.2-1.2-0.2-1.7L78,57.3c-0.6-0.8-2-0.8-2.7,0l-10,13.3c-0.4,0.5-0.4,1.2-0.2,1.7c0.3,0.6,0.9,0.9,1.5,0.9h5
	c0.1,2.7,0.7,5.2,1.8,7.4c0.6,1.2,1,2,1.3,2.8c0.6,1.3,1,2.3,2.1,4c0.2,0.3,0.4,0.6,0.6,0.9c1.2,1.9,2.9,4.5,2.7,8.3H36.6
	c0.1-3.5-0.8-5.9-1.4-7.6c-0.2-0.4-0.3-0.9-0.4-1.2c-1-3.3-1.7-4.3-2.9-5.8c-0.6-0.7-1.2-1.5-2-2.9c-1-1.7-1.5-3.6-1.5-5.8h5
	c0.6,0,1.2-0.4,1.5-0.9c0.3-0.6,0.2-1.2-0.2-1.7l-10-13.3c-0.6-0.8-2-0.8-2.7,0L12,70.7c-0.4,0.5-0.4,1.2-0.2,1.7
	c0.3,0.6,0.9,0.9,1.5,0.9h4.8c0,2.8,0.7,5.3,1.9,7.5c1.5,2.6,2.3,3.8,3.2,5.2c0.5,0.8,1.1,1.8,2,3.2c0.8,1.3,1.3,3.8,1.4,7.5H3.3
	V53.3H20c0.9,0,1.7-0.7,1.7-1.7v-15h26.7l-1.7,16.5l3.3,0.3l3.2-30.2h10.4l4.8,30.3l1.6-0.3l1.6,0.4l4.7-20.4h4L85,52.1
	c0.2,0.7,0.8,1.3,1.6,1.3h10V96.7z"/>
</svg>
