<svg version="1.1" id="Layer_1" xmlns="http://www.w3.org/2000/svg" xmlns:xlink="http://www.w3.org/1999/xlink" x="0px" y="0px"
	 viewBox="0 0 100 100" style="enable-background:new 0 0 100 100;" xml:space="preserve">
<g>
	<rect x="6.2" y="91.8" width="17.2" height="3.3"/>
	<rect x="26.6" y="91.8" width="3.1" height="3.3"/>
	<rect x="37.5" y="96.7" width="17.2" height="3.3"/>
	<rect x="57.8" y="96.7" width="3.1" height="3.3"/>
	<rect x="70.3" y="91.8" width="17.2" height="3.3"/>
	<rect x="90.6" y="91.8" width="3.1" height="3.3"/>
	<rect x="42.2" y="86.9" width="3.1" height="3.3"/>
	<rect x="62.5" y="88.6" width="3.1" height="3.3"/>
	<path d="M78.1,31.2c6.9,0,12.5-5.6,12.5-12.5S85,6.2,78.1,6.2s-12.5,5.6-12.5,12.5S71.2,31.2,78.1,31.2z M78.1,9.4
		c5.2,0,9.4,4.2,9.4,9.4s-4.2,9.4-9.4,9.4s-9.4-4.2-9.4-9.4S73,9.4,78.1,9.4z"/>
	<rect x="76.6" width="3.1" height="3.1"/>
	<rect x="76.6" y="34.4" width="3.1" height="3.1"/>
	<rect x="64.4" y="5" transform="matrix(0.7071 -0.7071 0.7071 0.7071 14.6583 48.58)" width="3.1" height="3.1"/>
	<rect x="88.7" y="29.3" transform="matrix(0.7071 -0.7071 0.7071 0.7071 4.5905 72.8861)" width="3.1" height="3.1"/>
	<rect x="88.7" y="5" transform="matrix(0.7071 -0.7071 0.7071 0.7071 21.7754 65.7707)" width="3.1" height="3.1"/>
	<rect x="64.4" y="29.3" transform="matrix(0.7071 -0.7071 0.7071 0.7071 -2.5306 55.7007)" width="3.1" height="3.1"/>
	<rect x="59.4" y="17.2" width="3.1" height="3.1"/>
	<rect x="93.8" y="17.2" width="3.1" height="3.1"/>
	<path d="M64.1,44.5h-6.2c-2.4,0-4.6,0.9-6.2,2.5v-4.1h-3.1V47c-1.7-1.6-3.9-2.5-6.2-2.5h-6.2c-0.9,0-1.6,0.7-1.6,1.6v1.6
		c0,5.4,4.2,9.8,9.4,9.8h4.7v4.1c-1.7-1.6-3.9-2.5-6.2-2.5h-6.2c-0.9,0-1.6,0.7-1.6,1.6v1.6c0,5.4,4.2,9.8,9.4,9.8h4.7v8.2H37.5v3.3
		h26.6v-3.3H51.6v-8.2h4.7c5.2,0,9.4-4.4,9.4-9.8v-1.6c0-0.9-0.7-1.6-1.6-1.6h-6.2c-2.4,0-4.6,0.9-6.2,2.5v-4.1h4.7
		c5.2,0,9.4-4.4,9.4-9.8v-1.6C65.6,45.2,64.9,44.5,64.1,44.5z M43.8,69c-3.4,0-6.2-2.9-6.2-6.5h4.7c3.4,0,6.2,2.9,6.2,6.5H43.8z
		 M43.8,54.3c-3.4,0-6.2-2.9-6.2-6.5h4.7c3.4,0,6.2,2.9,6.2,6.5H43.8z M57.8,62.4h4.7c0,3.6-2.8,6.5-6.2,6.5h-4.7
		C51.6,65.4,54.4,62.4,57.8,62.4z M56.2,54.3h-4.7c0-3.6,2.8-6.5,6.2-6.5h4.7C62.5,51.3,59.7,54.3,56.2,54.3z"/>
	<path d="M90.6,72.2c5.2,0,9.4-4.4,9.4-9.8v-1.6c0-0.9-0.7-1.6-1.6-1.6h-1.6v3.3c0,3.6-2.8,6.5-6.2,6.5h-4.7c0-3.6,2.8-6.5,6.2-6.5
		h1.6v-3.3h-1.6c-2.4,0-4.6,0.9-6.2,2.5v-4.1h-3.1v4.1c-1.7-1.6-3.9-2.5-6.2-2.5h-6.2c-0.9,0-1.6,0.7-1.6,1.6v1.6
		c0,5.4,4.2,9.8,9.4,9.8h4.7v8.2h-9.4v3.3H100v-3.3H85.9v-8.2H90.6z M78.1,69c-3.4,0-6.2-2.9-6.2-6.5h4.7c3.4,0,6.2,2.9,6.2,6.5
		H78.1z"/>
	<path d="M28.1,80.4H17.2v-8.2h4.7c5.2,0,9.4-4.4,9.4-9.8v-1.6c0-0.9-0.7-1.6-1.6-1.6h-6.2c-2.4,0-4.6,0.9-6.2,2.5v-4.1h4.7
		c5.2,0,9.4-4.4,9.4-9.8v-1.6c0-0.9-0.7-1.6-1.6-1.6h-6.2c-2.4,0-4.6,0.9-6.2,2.5v-4.1h4.7c5.2,0,9.4-4.4,9.4-9.8v-1.6
		c0-0.9-0.7-1.6-1.6-1.6h-6.2c-2.4,0-4.6,0.9-6.2,2.5v-4.1h-3.1v4.1c-1.7-1.6-3.9-2.5-6.2-2.5H6.2V33h1.6c3.4,0,6.2,2.9,6.2,6.5H9.4
		c-3.4,0-6.2-2.9-6.2-6.5v-3.3H1.6c-0.9,0-1.6,0.7-1.6,1.6V33c0,5.4,4.2,9.8,9.4,9.8h4.7V47c-1.7-1.6-3.9-2.5-6.2-2.5H1.6
		c-0.9,0-1.6,0.7-1.6,1.6v1.6c0,5.4,4.2,9.8,9.4,9.8h4.7v4.1c-1.7-1.6-3.9-2.5-6.2-2.5H1.6c-0.9,0-1.6,0.7-1.6,1.6v1.6
		c0,5.4,4.2,9.8,9.4,9.8h4.7v8.2H0v3.3h28.1V80.4z M23.4,33h4.7c0,3.6-2.8,6.5-6.2,6.5h-4.7C17.2,36,20,33,23.4,33z M23.4,47.7h4.7
		c0,3.6-2.8,6.5-6.2,6.5h-4.7C17.2,50.7,20,47.7,23.4,47.7z M23.4,62.4h4.7c0,3.6-2.8,6.5-6.2,6.5h-4.7C17.2,65.4,20,62.4,23.4,62.4
		z M9.4,69c-3.4,0-6.2-2.9-6.2-6.5h4.7c3.4,0,6.2,2.9,6.2,6.5H9.4z M9.4,54.3c-3.4,0-6.2-2.9-6.2-6.5h4.7c3.4,0,6.2,2.9,6.2,6.5H9.4
		z"/>
	<rect x="67.2" y="80.4" width="3.1" height="3.3"/>
	<rect x="31.2" y="80.4" width="3.1" height="3.3"/>
</g>
</svg>
