<svg version="1.1" id="Layer_1" xmlns="http://www.w3.org/2000/svg" xmlns:xlink="http://www.w3.org/1999/xlink" x="0px" y="0px"
	 viewBox="0 0 128 128" style="enable-background:new 0 0 128 128;" xml:space="preserve">
<path d="M64,9.7c29.9,0,54.3,24.4,54.3,54.3S93.9,118.3,64,118.3S9.7,93.9,9.7,64S34.1,9.7,64,9.7L64,9.7z M64,5C31.4,5,5,31.4,5,64
	s26.4,59,59,59s59-26.4,59-59S96.6,5,64,5L64,5z"/>
<path d="M64,101.8c-20.8,0-37.8-16.9-37.8-37.8c0-1.3,1.1-2.4,2.4-2.4c1.3,0,2.4,1.1,2.4,2.4c0,18.2,14.8,33,33,33s33-14.8,33-33
	c0-1.3,1.1-2.4,2.4-2.4c1.3,0,2.4,1.1,2.4,2.4C101.8,84.8,84.8,101.8,64,101.8z"/>
<circle cx="46.3" cy="46.3" r="5.9"/>
<circle cx="81.7" cy="46.3" r="5.9"/>
</svg>
