<svg version="1.1" id="Layer_1" xmlns="http://www.w3.org/2000/svg" xmlns:xlink="http://www.w3.org/1999/xlink" x="0px" y="0px"
	 viewBox="0 0 128 128" style="enable-background:new 0 0 128 128;" xml:space="preserve">
<g>
	<path d="M97,53v1.5v1.7c1.4,0.7,2.6,1.5,3.6,2.7c1.7,1.7,3.6,5.1,3.6,7.9v14.4c0,2.9-4.5,2.9-4.5,0V66.9c-0.2-1.9-1-3.6-2.2-5
		c-1.2-1-2.6-1.9-4.1-2.4c-1.5,1.4-3.6,2.2-6,2.2l-26.8-0.2c0.2,14.1-1.5,24.9,14.9,24.9v24c0,2.7-4.5,2.9-4.5,0V90.8
		c-16.8-1-14.9-21.8-14.9-34.1h-9.9c-2.1,3.4-5,6.2-8.4,8.2l0,0c-3.6,2.2-7.9,3.4-12.5,3.4c-4.5,0-8.7-1.2-12.5-3.4l0,0
		c-3.8-2.2-6.9-5.5-9.1-9.3L2,52.3h3.8h8.1c2.4,0,4.5-1,6.2-2.6c1.5-1.5,2.4-3.8,2.4-6.2l0,0c0-2.4-0.9-4.5-2.4-6.2
		c-1.7-1.5-3.8-2.6-6.2-2.6H5.8H2l1.7-3.1c2.2-3.9,5.3-7.2,9.1-9.4l0,0c3.8-2.1,8.1-3.4,12.5-3.4c4.6,0,8.9,1.4,12.5,3.4l0,0
		c3.4,2.1,6.3,4.8,8.4,8.2h17.3v-5.8c0-8.7,11-12.9,16.6-6c4.3-5.3,12.5-4.3,15.6,1.7c5.1-4.3,12.9-2.1,15.1,4.1
		c6.2-4.6,15.1-0.2,15.1,7.5c0,14.1-0.2,28-0.2,42l0,0c-0.7,7.5-4.1,13.4-11.5,16.1v20.2c0,3.1-4.3,2.9-4.3,0V88.7V87l1.5-0.5
		c5.7-1.4,9.8-6.5,9.9-12.4l0,0V57.5c-5.1,3.3-11.8,0.9-13.9-4.8C104.6,54.9,100.3,55.1,97,53z M56.2,52.3c-0.2-5.3,0.2-9.4,7.4-9.4
		v-8.1H45h-1.2l-0.7-1c-1.7-3.3-4.3-5.8-7.5-7.7l0,0c-2.9-1.7-6.5-2.7-10.3-2.7s-7.2,1-10.3,2.7l0,0c-1.9,1.2-3.8,2.7-5.1,4.5h3.9
		c3.6,0,6.9,1.5,9.1,3.8c2.4,2.4,3.9,5.7,3.9,9.3l0,0c0,3.6-1.5,6.9-3.9,9.3c-2.2,2.4-5.5,3.8-9.1,3.8H9.9c1.4,1.9,3.3,3.4,5.1,4.5
		l0,0C18.1,63,21.5,64,25.3,64s7.4-1,10.3-2.9l0,0c3.3-1.7,5.8-4.5,7.5-7.5l0.7-1.2H45H56.2z M67.9,42.9H78V24.7
		c0-6.7-10.1-6.7-10.1,0V42.9z M82.4,42.9c3.4,0,6.7,0,10.1,0c0-6,0-12.2,0-18.2c0-6.7-10.1-6.7-10.1,0V42.9z M63.6,47.2
		c-3.8,0-2.9,0.2-2.9,8.7l0,0l0,0c0,0.9,0.7,1.4,1.5,1.4h25.2c6.9,0,6.7-10.1,0.2-10.1C79.5,47.2,71.6,47.2,63.6,47.2z M96.8,27.6
		v2.9H97v2.2v13.4c1,5.5,9.9,5.3,10.1-1l0,0v-13v-0.2v-4.3C107.1,20.9,96.8,20.9,96.8,27.6z M113,28.5c-1,1-1.5,2.2-1.5,3.6v13l0,0
		v4.5c0,6.7,10.1,6.7,10.1,0V32.1C121.5,27.6,116.2,25.2,113,28.5z"/>
</g>
</svg>
