<svg version="1.1"
	 id="Layer_1" xmlns:cc="http://creativecommons.org/ns#" xmlns:dc="http://purl.org/dc/elements/1.1/" xmlns:inkscape="http://www.inkscape.org/namespaces/inkscape" xmlns:rdf="http://www.w3.org/1999/02/22-rdf-syntax-ns#" xmlns:sodipodi="http://sodipodi.sourceforge.net/DTD/sodipodi-0.dtd" xmlns:svg="http://www.w3.org/2000/svg"
	 xmlns="http://www.w3.org/2000/svg" xmlns:xlink="http://www.w3.org/1999/xlink" x="0px" y="0px" viewBox="0 0 128 128"
	 style="enable-background:new 0 0 128 128;" xml:space="preserve">
<g>
	<path d="M98.8,25c-2.1,0-4.2,0.7-5.9,2v-6.3c0-3.4-1.3-6.3-3.7-8.1c-2.4-1.8-5.1-2.1-6.5-2.1c-1.7,0-3.1,0.3-4.3,0.9v-0.4
		c0-3-1.1-5.6-3-7.5c-1.8-1.7-4.3-2.6-7.1-2.6c-2.8,0-5.3,0.9-7.1,2.6c-1.9,1.8-3,4.5-3,7.5v1.5c-1.7-1.3-3.8-2-5.9-2
		c-5.6,0-10.1,4.5-10.1,10.1v36.9c0,0.5,0.2,1.1,0.6,1.5c0.8,0.8,2.2,0.8,3,0c0.4-0.4,0.6-1,0.6-1.5V20.7c0-3.3,2.6-5.9,5.9-5.9
		s5.9,2.6,5.9,5.9l0,25.7l0,12.8c0,0.5,0.2,1.1,0.6,1.5c0.8,0.8,2.2,0.8,3,0c0.4-0.4,0.6-1,0.6-1.5V11.1c0-1.9,0.6-3.3,1.7-4.4
		c1.1-1,2.5-1.5,4.2-1.5s3.2,0.5,4.2,1.5c1.1,1.1,1.7,2.5,1.7,4.4v48.1c0,0.5,0.2,1.1,0.6,1.5c0.8,0.8,2.2,0.8,3,0
		c0.4-0.4,0.6-1,0.6-1.5V16.5c1.4-1.6,3-1.7,4.3-1.7c1.1,0,2.7,0.3,3.9,1.2c0.9,0.7,2,1.8,2,4.7v38.5c0,0.5,0.2,1.1,0.6,1.5
		c0.8,0.8,2.2,0.8,3,0c0.4-0.4,0.6-1,0.6-1.5c0-5.4,0-10.7,0-16.1l0-8c0-3.3,2.6-5.9,5.9-5.9c3.3,0,5.9,2.6,5.9,5.9l0,48.1
		c-0.5,8.2-2.3,14-5.7,18.2c-4.6,5.8-12,8.6-22.7,8.6H58.8c-10,0-20.2-9.5-25.4-18.3c-3-4.9-6-9.9-8.9-14.8
		c-1.9-3.2-3.8-6.4-5.6-9.3c-1.9-3.4-2.8-5.3-2.9-6.4c0-0.6,0.1-0.9,0.4-1.5c0.4-0.6,1.1-1.4,2.1-2.2c1-0.8,1.8-1.2,2.6-1.1
		c1.2,0.1,2.6,0.9,4.2,2.6l11.2,11.2c1,1.1,2.4,2.1,3.9,2.8c1.5,0.7,2.8,1,4.1,1c1.1,0,2.1-1,2.1-2.1c0-1.1-1-2.1-2.1-2.1
		c-0.4,0-1.3-0.2-2.3-0.7c-1-0.5-2-1.2-2.6-1.9c-1.4-1.4-2.8-2.9-4.3-4.3c-2.3-2.3-4.6-4.8-7.1-7c-2.4-2.4-4.6-3.6-6.8-3.8
		c-1.8-0.1-3.6,0.5-5.4,2l-0.2,0.1c-1.4,1.2-2.3,2.2-3,3.3c-0.7,1.2-1,2.6-1,3.9c0.2,2.6,1.5,5,3.5,8.4c4.9,8,9.8,16.3,14.4,24.1
		c5.6,9.4,16.5,20.3,29.1,20.3h17.6c11.9-0.1,20.7-3.5,26-10.2c5.2-6.5,6.2-14.9,6.6-20.7V35.1C109,29.5,104.4,25,98.8,25z"/>
	<path d="M97.4,116.6c-0.6,0-1.1,0.1-1.5,0.5c-4.6,3.9-11.1,5.8-19.7,5.8H58.6c-4.7,0-9.7-2.1-14.6-5.9c-0.4-0.3-0.9-0.5-1.4-0.5
		c-0.8,0-1.6,0.6-1.9,1.5c-0.3,0.9-0.1,1.8,0.6,2.3c5.6,4.5,11.6,6.9,17.2,6.9h17.6c9.6-0.1,17.1-2.3,22.4-6.8
		c0.4-0.3,0.7-0.9,0.7-1.5c0-0.6-0.1-1.1-0.5-1.5C98.5,116.9,98,116.6,97.4,116.6z"/>
	<path d="M66.3,91.9c0.2,0.5,0.5,1,1,1.2c0.3,0.2,0.7,0.3,1,0.3c0.2,0,0.4,0,0.6-0.1c1.1-0.3,1.7-1.6,1.4-2.7
		c-2.3-7.9-7.1-13.2-14.1-15.7c-0.3-0.1-0.6-0.2-0.9-0.2l-0.2,0c-1,0.1-1.9,0.9-2,1.9c-0.1,1,0.6,2,1.5,2.2
		C60.7,81,64.3,85,66.3,91.9z"/>
</g>
</svg>
