<svg version="1.1" id="Layer_1" xmlns="http://www.w3.org/2000/svg" xmlns:xlink="http://www.w3.org/1999/xlink" x="0px" y="0px"
	 viewBox="0 0 128 128" style="enable-background:new 0 0 128 128;" xml:space="preserve">
<g>
	<path d="M86.8,30.6c7,0,12.6-5.7,12.6-12.6S93.8,5.4,86.8,5.4S74.2,11.1,74.2,18S79.9,30.6,86.8,30.6z M86.8,9.6
		c4.6,0,8.4,3.8,8.4,8.4s-3.8,8.4-8.4,8.4c-0.2,0-0.5-0.1-0.7-0.1c1.7-1.5,2.8-3.8,2.8-6.2h-4.2c0,2.1-1.5,3.8-3.5,4.1
		c-1.7-1.5-2.8-3.8-2.8-6.2C78.4,13.4,82.2,9.6,86.8,9.6z"/>
	<path d="M21.7,55.9c7,0,12.6-5.7,12.6-12.6s-5.7-12.6-12.6-12.6S9.1,36.3,9.1,43.3S14.7,55.9,21.7,55.9z M21.7,34.9
		c4.6,0,8.4,3.8,8.4,8.4c0,2.5-1.1,4.7-2.8,6.2c-2-0.3-3.5-2.1-3.5-4.1h-4.2c0,2.5,1.1,4.7,2.8,6.2c-0.2,0-0.5,0.1-0.7,0.1
		c-4.6,0-8.4-3.8-8.4-8.4S17.1,34.9,21.7,34.9z"/>
	<path d="M123.2,7.6l-12.6-4.2c-0.6-0.2-1.3-0.1-1.9,0.3c-0.5,0.4-0.9,1-0.9,1.7v16.8v10.5H78.4c-0.5,0-1,0.2-1.3,0.5L64.5,43.7
		c-0.2,0.2-0.4,0.4-0.5,0.7l-6,11.9L44.7,62l-11.8-3.9C32.7,58,32.4,58,32.2,58H15.4C9.6,58,4.9,62.7,4.9,68.5v23.1
		c0,1.2,0.9,2.1,2.1,2.1h6.3v25.2H4.9v4.2h10.5h10.5h8.4c1.2,0,2.1-0.9,2.1-2.1v-10.5h4.2h10.5h14.7c1.2,0,2.1-0.9,2.1-2.1V97.9
		h12.6H91c1.2,0,2.1-0.9,2.1-2.1V85.3h12.6h10.5h6.3v-4.2h-4.2V64.3c0-5.8-4.7-10.5-10.5-10.5h-8.4v-8.4H110
		c5.8,0,10.5-4.7,10.5-10.5V22.2c0-1.2-0.9-2.1-2.1-2.1h-6.3v-4.8l11.2-3.7c0.9-0.3,1.4-1.1,1.4-2C124.7,8.7,124.1,7.9,123.2,7.6z
		 M90,37l-1.1,2.7L87.8,37H90z M34.3,106.3c-1.2,0-2.1,0.9-2.1,2.1v10.5H28V93.7h10.5v12.6H34.3z M42.7,106.3V91.6
		c0-1.2-0.9-2.1-2.1-2.1H25.9c-1.2,0-2.1,0.9-2.1,2.1v27.3h-6.3V70.6h-4.2v18.9H9.1v-21c0-3.5,2.8-6.3,6.3-6.3h6.3v14.7h4.2V62.2h6
		l12.3,4.1c0.5,0.2,1,0.1,1.5-0.1l13.1-5.6l1.3,1.9l0.6,1l-14.1,7l-14.1-2c-0.6-0.1-1.2,0.1-1.7,0.5c-0.5,0.4-0.7,1-0.7,1.6v10.5
		c0,1.2,0.9,2.1,2.1,2.1h10.5c3.5,0,6.3,2.8,6.3,6.3v16.8H42.7z M65.8,93.7c-1.2,0-2.1,0.9-2.1,2.1v10.5H53.2V89.5
		c0-5.8-4.7-10.5-10.5-10.5h-8.4v-6l12.3,1.8c0.4,0.1,0.9,0,1.2-0.2l16.8-8.4c0.3-0.2,0.5-0.4,0.7-0.7c0,0,0,0,0.1-0.1l8.2-12.3
		l4.8-3.6v44.1H65.8z M103.7,81.1H93.2V68.5h10.5V81.1z M116.3,34.9c0,3.5-2.8,6.3-6.3,6.3H97.4c-1.2,0-2.1,0.9-2.1,2.1v12.6
		c0,1.2,0.9,2.1,2.1,2.1h10.5c3.5,0,6.3,2.8,6.3,6.3v16.8h-6.3V66.4c0-1.2-0.9-2.1-2.1-2.1H91c-1.2,0-2.1,0.9-2.1,2.1v16.8v10.5
		h-6.3V45.4c0-0.8-0.4-1.5-1.2-1.9c-0.7-0.4-1.6-0.3-2.2,0.2L70.9,50c-0.2,0.1-0.4,0.3-0.5,0.5l-6.7,10L62,57.8l5.6-11.1L79.2,37
		h4.1l3.7,9.2c0.3,0.8,1.1,1.3,2,1.3c0.9,0,1.6-0.5,2-1.3l3.7-9.2H110c1.2,0,2.1-0.9,2.1-2.1V24.3h4.2V34.9z M112.1,10.9V8.3
		l3.9,1.3L112.1,10.9z"/>
	<rect x="55.3" y="13.8" width="4.2" height="4.2"/>
	<rect x="46.9" y="13.8" width="4.2" height="4.2"/>
	<rect x="38.5" y="13.8" width="4.2" height="4.2"/>
</g>
</svg>
