<svg version="1.1" id="Layer_1" xmlns="http://www.w3.org/2000/svg" xmlns:xlink="http://www.w3.org/1999/xlink" x="0px" y="0px"
	 viewBox="0 0 128 128" style="enable-background:new 0 0 128 128;" xml:space="preserve">
<g>
	<path d="M126,93L65.7,32.8c0.5-1.1,0.5-2.4,0.1-3.5c15.2-12.4,34.3-11.7,36.5-11.6c1.1,0.1,2.1-0.7,2.2-1.8l0.8-13.7
		c0-1.1-0.8-2-1.9-2.1l-0.1,0C99,0,76.5,0.8,56.6,19.9c-1.7-0.7-3.6-0.4-5.1,0.7l-0.7-0.7c-1.9-1.9-5.1-1.9-7.2,0
		c-1.9,1.9-1.9,5.1,0,7.2l0.7,0.7c-1.5,1.8-1.5,4.4-0.1,6.2C29,50,25.3,70.9,27.6,80.7c0.3,0.9,1.1,1.6,1.9,1.6c1,0,1.8-0.7,1.9-1.6
		c2.7-14.7,9.5-28.4,19.6-39.6c1.4,1.4,3.6,1.8,5.3,1.1l60.1,60.1c1.2,1.2,2.9,1.9,4.7,1.9c1.8,0,3.4-0.7,4.7-1.9
		C128.3,99.7,128.4,95.5,126,93z M48.2,38c-6.6,7.4-11.9,15.7-15.6,24.7c2.5-9.7,7.4-18.5,14.4-25.9L48.2,38z M46.3,22.7
		c0.4-0.4,1-0.4,1.5,0l0.7,0.7L47,24.8l-0.7-0.7C45.9,23.7,45.9,23.1,46.3,22.7z M54.6,38.4c-0.3,0-0.5-0.1-0.7-0.3l-6.5-6.5
		c-0.4-0.4-0.4-1,0-1.5l6.4-6.4c0.2-0.2,0.5-0.3,0.7-0.3s0.5,0.1,0.7,0.3l6.5,6.5c0.2,0.2,0.3,0.5,0.3,0.7c0,0.3-0.1,0.5-0.3,0.7
		l-6.5,6.5C55,38.3,54.8,38.4,54.6,38.4z M59.6,22.3C71,11.6,85.7,5.2,101.1,4.1l-0.6,9.5c-6.9-0.1-23.3,1.1-37.2,12.5L59.6,22.3z
		 M63.1,35.9L123,95.7c0.5,0.5,0.8,1.2,0.8,1.9c0,0.7-0.3,1.3-0.8,1.7c-1,0.9-2.6,1-3.6,0L59.5,39.5L63.1,35.9z"/>
	<path d="M25.8,105c0.8,0.8,2.1,0.8,2.9,0c0.8-0.8,0.8-2.1,0-2.9l-8.5-8.5c-0.8-0.8-2.1-0.8-2.9,0L0.4,110.4c-0.8,0.8-0.8,2.1,0,2.9
		c0.4,0.4,0.9,0.6,1.5,0.6c0.5,0,1-0.2,1.5-0.6l15.4-15.4L25.8,105z"/>
	<path d="M73.2,100.1c0.4-0.4,0.6-0.9,0.6-1.5s-0.2-1.1-0.6-1.5L58.4,82.4c-0.9-0.7-2.1-0.7-2.9,0l-44.4,42
		c-0.4,0.4-0.6,0.9-0.7,1.4c0,0.6,0.2,1.1,0.6,1.5c0.4,0.4,0.9,0.6,1.4,0.7c0,0,0.1,0,0.1,0c0.5,0,1-0.2,1.3-0.6l42.9-40.6
		l13.3,13.3C71,101,72.3,101,73.2,100.1z"/>
	<path d="M90.3,90.3c-0.8-0.8-2.1-0.8-2.9,0L61.8,116c-0.8,0.8-0.8,2.1,0,2.9c0.4,0.4,0.9,0.6,1.5,0.6s1-0.2,1.5-0.6l24.2-24.2
		l13.3,13.2c0.8,0.8,2.1,0.8,2.9,0s0.8-2.1,0-2.9L90.3,90.3z"/>
</g>
</svg>
