<?xml version="1.0" encoding="utf-8"?>
<!-- Generator: Adobe Illustrator 24.2.3, SVG Export Plug-In . SVG Version: 6.00 Build 0)  -->
<svg version="1.1"
	 id="hny-svg-mud-rotary" text-rendering="geometricPrecision" image-rendering="optimizeQuality" shape-rendering="geometricPrecision"
	 xmlns="http://www.w3.org/2000/svg" xmlns:xlink="http://www.w3.org/1999/xlink" x="0px" y="0px" viewBox="0 0 846.7 846.7"
	 style="enable-background:new 0 0 846.7 846.7;" xml:space="preserve">
<style type="text/css">
	.st0{fill-rule:evenodd;clip-rule:evenodd;}
</style>
<path class="st0" d="M277.5,45.4c97,0,148.1,49.5,248.4,190.6c-78.2-43.7-135.8-46.1-248.4-30C181.8,216.7,134.6,45.4,277.5,45.4z
	 M323.1,299.1c-19.1,33.1-12.3,60.3,16.1,122.3c0.5-35.3,11-55.4,38.7-90.7C400.4,300.2,351.3,250.3,323.1,299.1z M265.6,448
	c19.1,33.1,46.1,40.8,114,47.2c-30.3-18.1-42.5-37.3-59.2-78.9C305.3,381.7,237.5,399.3,265.6,448z M365.9,572.3
	c38.2,0,58.4-19.5,97.9-75.1c-30.8,17.2-53.5,18.2-97.9,11.8C328.2,504.8,309.5,572.3,365.9,572.3L365.9,572.3z M523.6,547.6
	c19.1-33.1,12.3-60.3-16.1-122.3c-0.5,35.3-11.1,55.4-38.7,90.7C446.3,546.4,495.4,596.3,523.6,547.6L523.6,547.6z M581,398.6
	c-19.1-33.1-46.1-40.8-114-47.2c30.3,18.1,42.5,37.3,59.2,78.9C541.4,465,609.2,447.4,581,398.6z M480.8,274.4
	c-38.2,0-58.4,19.5-97.9,75.1c30.8-17.2,53.5-18.2,97.9-11.8C518.5,341.9,537.1,274.4,480.8,274.4L480.8,274.4z M677.7,108
	c48.5,84,31.2,153-40.9,310.4c-1.2-89.6-28-140.6-98.2-230.1C481.5,110.9,606.3-15.7,677.7,108L677.7,108z M823.6,486
	c-48.5,84-117,103.5-289.2,119.8c77-45.9,107.8-94.5,150.2-200.1C723,317.5,895,362.2,823.6,486L823.6,486z M569.2,801.3
	c-97,0-148.1-49.5-248.4-190.6c78.2,43.7,135.8,46.1,248.4,30C664.8,630,712.1,801.3,569.2,801.3L569.2,801.3z M168.9,738.6
	c-48.5-84-31.2-153,40.9-310.4c1.2,89.6,28,140.6,98.2,230.1C365.1,735.8,240.4,862.4,168.9,738.6z M23.1,360.7
	c48.5-84,117-103.5,289.2-119.8c-77,45.9-107.8,94.5-150.2,200.1C123.7,529.1-48.3,484.4,23.1,360.7z"/>
</svg>
