<svg version="1.1" id="Layer_1" xmlns="http://www.w3.org/2000/svg" xmlns:xlink="http://www.w3.org/1999/xlink" x="0px" y="0px"
	 viewBox="0 0 100 100" style="enable-background:new 0 0 100 100;" xml:space="preserve">
<g>
	<path d="M92.7,97.7H81.3V85.8c0-0.6-0.5-1.2-1.2-1.2H66.3c-0.2,0-0.4,0-0.5,0.2l1.1,12.9h-2.3l-2.9-33.9h1.8c0.6,0,1.2-0.5,1.2-1.2
		v-6.1c0-0.7-0.5-1.2-1.2-1.2H61l-2-22.9h2.5c0.7,0,1.2-0.5,1.2-1.2v-6.1c0-0.6-0.5-1.2-1.2-1.2H38.4c-0.6,0-1.2,0.5-1.2,1.2v6.1
		c0,0.6,0.5,1.2,1.2,1.2H41l-2,22.9h-2.4c-0.7,0-1.2,0.5-1.2,1.2v6.1c0,0.6,0.5,1.2,1.2,1.2h1.8l-2.9,33.9h-2.3l1.1-12.9
		c-0.2-0.1-0.3-0.1-0.5-0.1H19.9c-0.7,0-1.2,0.5-1.2,1.2v11.9H7.3c-0.6,0-1.2,0.5-1.2,1.2s0.5,1.2,1.2,1.2h85.4
		c0.6,0,1.2-0.5,1.2-1.2S93.3,97.7,92.7,97.7z M26.8,95c-1.5,0-2.6-1.2-2.6-2.6c0-1.5,1.2-2.7,2.6-2.7c1.5,0,2.7,1.2,2.7,2.7
		C29.4,93.8,28.2,95,26.8,95z M59.3,64.3l1.4,16L41.8,72L59.3,64.3z M58.7,55.4H44.4L58,47.5L58.7,55.4z M57.8,44.8l-13.4-3.7
		l12.4-7.8L57.8,44.8z M43.3,32.4h10.4l-11,7L43.3,32.4z M42.4,42.9l12.7,3.6l-13.7,7.9L42.4,42.9z M40.7,63.8h14.1l-14.6,6.4
		L40.7,63.8z M39.9,73.7l18.4,8.2l-19.6,5.9L39.9,73.7z M37.8,97.7l0.6-6.7l18.5,6.7H37.8z M41,89.5l19.9-6l1.2,13.7L41,89.5z
		 M73.2,95c-1.5,0-2.6-1.2-2.6-2.6c0-1.5,1.2-2.7,2.6-2.7c1.5,0,2.7,1.2,2.7,2.7C75.9,93.8,74.7,95,73.2,95z"/>
	<path d="M50,21.4c4.1,0,7.4-3.3,7.4-7.4c0-2.9-3.4-8.8-6.2-13.3L51,0.6C50.8,0.2,50.4,0,50,0c-0.4,0-0.8,0.2-1,0.6l-0.1,0.2
		c-2.9,4.5-6.3,10.5-6.3,13.3C42.6,18.1,45.9,21.4,50,21.4z"/>
</g>
</svg>
