<svg version="1.1" id="Layer_1" xmlns="http://www.w3.org/2000/svg" xmlns:xlink="http://www.w3.org/1999/xlink" x="0px" y="0px"
	 viewBox="0 0 71.9 71.9" style="enable-background:new 0 0 71.9 71.9;" xml:space="preserve">
<g>
	<path d="M67.4,38.4c-2.2,0-4.1,1.6-4.5,3.7h-5.3c-1.9-5.6-6-10.2-11.3-12.9v-9.3c0-0.6-0.5-1.1-1.1-1.1h-3.7v-7.2h9.8
		c3.2,0,5.9-2.6,5.9-5.8S54.6,0,51.3,0H20.8c-3.2,0-5.9,2.6-5.9,5.8s2.6,5.8,5.9,5.8h9.8v7.2h-3.7c-0.6,0-1.1,0.5-1.1,1.1v9.3
		c-5.3,2.7-9.4,7.3-11.3,12.9H9.1c-0.4-2.1-2.3-3.7-4.5-3.7C2.1,38.4,0,40.5,0,43v12.7c0,2.5,2.1,4.6,4.6,4.6c2.2,0,4.1-1.6,4.5-3.7
		h5.3C17.5,65.5,26,71.9,36,71.9s18.5-6.4,21.5-15.3h5.3c0.4,2.1,2.3,3.7,4.5,3.7c2.5,0,4.6-2.1,4.6-4.6V43
		C72,40.4,69.9,38.4,67.4,38.4z M17.1,5.7c0-2,1.7-3.7,3.7-3.7h30.4c2,0,3.7,1.6,3.7,3.7s-1.7,3.7-3.7,3.7H20.8
		C18.8,9.4,17.1,7.7,17.1,5.7z M32.8,11.6h6.4v7.2h-6.4V11.6z M28,20.9h16.1v7.3c-2.5-0.9-5.2-1.5-8-1.5s-5.5,0.5-8,1.5L28,20.9
		L28,20.9z M7,55.7c0,1.3-1.1,2.4-2.4,2.4S2.2,57,2.2,55.7V43c0-1.3,1.1-2.4,2.4-2.4S7,41.7,7,43V55.7z M9.2,54.4V44.2h4.6
		c-0.4,1.6-0.6,3.3-0.6,5.1s0.2,3.4,0.6,5.1C13.8,54.4,9.2,54.4,9.2,54.4z M36,69.7c-11.3,0-20.6-9.2-20.6-20.4
		c0-11.3,9.3-20.4,20.6-20.4s20.6,9.2,20.6,20.4C56.6,60.6,47.4,69.7,36,69.7z M62.8,54.4h-4.6c0.4-1.6,0.6-3.3,0.6-5.1
		c0-1.7-0.2-3.4-0.6-5.1h4.6V54.4z M69.8,55.6c0,1.3-1.1,2.4-2.4,2.4S65,57,65,55.6V43c0-1.3,1.1-2.4,2.4-2.4s2.4,1.1,2.4,2.4V55.6z
		"/>
	<path d="M36,33.2c0.6,0,1.1-0.5,1.1-1.1v-0.4c0-0.6-0.5-1.1-1.1-1.1s-1.1,0.5-1.1,1.1v0.4C34.9,32.7,35.4,33.2,36,33.2z"/>
	<path d="M36,34.7c-8.1,0-14.7,6.6-14.7,14.6c0,8.1,6.6,14.6,14.7,14.6s14.7-6.6,14.7-14.6C50.7,41.2,44.1,34.7,36,34.7z M36,61.7
		c-6.9,0-12.5-5.6-12.5-12.4S29.1,36.9,36,36.9s12.5,5.6,12.5,12.4S42.9,61.7,36,61.7z"/>
	<path d="M48.3,38.2c0.3,0,0.6-0.1,0.8-0.3l0.3-0.3c0.4-0.4,0.4-1.1,0-1.5s-1.1-0.4-1.6,0l-0.3,0.3c-0.4,0.4-0.4,1.1,0,1.5
		C47.7,38.1,48,38.2,48.3,38.2z"/>
	<path d="M23,60.7L22.7,61c-0.4,0.4-0.4,1.1,0,1.5c0.2,0.2,0.5,0.3,0.8,0.3s0.6-0.1,0.8-0.3l0.3-0.3c0.4-0.4,0.4-1.1,0-1.5
		C24.1,60.3,23.4,60.3,23,60.7z"/>
	<path d="M53.8,48.2h-0.4c-0.6,0-1.1,0.5-1.1,1.1s0.5,1.1,1.1,1.1h0.4c0.6,0,1.1-0.5,1.1-1.1S54.4,48.2,53.8,48.2z"/>
	<path d="M18.7,48.2h-0.4c-0.6,0-1.1,0.5-1.1,1.1s0.5,1.1,1.1,1.1h0.4c0.6,0,1.1-0.5,1.1-1.1S19.3,48.2,18.7,48.2z"/>
	<path d="M49.1,60.7c-0.4-0.4-1.1-0.4-1.6,0c-0.4,0.4-0.4,1.1,0,1.5l0.3,0.3c0.2,0.2,0.5,0.3,0.8,0.3s0.6-0.1,0.8-0.3
		c0.4-0.4,0.4-1.1,0-1.5L49.1,60.7z"/>
	<path d="M23,37.9c0.2,0.2,0.5,0.3,0.8,0.3s0.6-0.1,0.8-0.3c0.4-0.4,0.4-1.1,0-1.5l-0.3-0.3c-0.4-0.4-1.1-0.4-1.6,0
		c-0.4,0.4-0.4,1.1,0,1.5L23,37.9z"/>
</g>
</svg>
