<svg version="1.1" id="Layer_1" xmlns="http://www.w3.org/2000/svg" xmlns:xlink="http://www.w3.org/1999/xlink" x="0px" y="0px"
	 viewBox="0 0 128 128" style="enable-background:new 0 0 128 128;" xml:space="preserve">
<g>
	<g>
		<path d="M82,115.8H44.2c-0.7,0-1.4-0.2-1.8-0.9c-0.5-0.5-0.7-1.1-0.5-1.8l12.5-73.6c0.2-1.1,1.1-1.8,2.3-1.8h12.5
			c1.1,0,2,0.9,2.3,1.8L84,113.1c0,0.7,0,1.4-0.5,1.8C83.3,115.6,82.6,115.8,82,115.8z M47,111.3h32.3L67.4,42.2h-8.6L47,111.3z"/>
	</g>
	<g>
		<path d="M48.1,93.3c-0.7,0-1.4-0.5-1.8-1.1C45.6,91,45.8,89.7,47,89l20.5-13.2H51c-1.4,0-2.3-0.9-2.3-2.3s0.9-2.3,2.3-2.3h24.1
			c0.9,0,1.8,0.7,2.3,1.6c0.2,0.9,0,2-0.9,2.5l-27,17.5C49,93.1,48.5,93.3,48.1,93.3z"/>
	</g>
	<g>
		<path d="M75.1,75.8c-0.5,0-1.1-0.2-1.4-0.5L52.6,57.9c-0.7-0.7-0.9-1.6-0.7-2.5c0.2-0.9,1.1-1.6,2-1.6h18.2c1.4,0,2.3,0.9,2.3,2.3
			s-0.9,2.3-2.3,2.3H60.4l16.1,13.4c0.9,0.9,1.1,2.3,0.2,3.2C76.5,75.6,75.8,75.8,75.1,75.8z"/>
	</g>
	<g>
		<path d="M91,115.8H35.1c-1.4,0-2.3-0.9-2.3-2.3c0-1.4,0.9-2.3,2.3-2.3h55.7c1.4,0,2.3,0.9,2.3,2.3C93.1,114.9,92.2,115.8,91,115.8
			z"/>
	</g>
	<g>
		<path d="M82,115.8c-0.5,0-0.9-0.2-1.4-0.5L46.7,92.9c-0.9-0.5-1.1-1.6-0.9-2.5c0.2-0.9,1.1-1.6,2.3-1.6h30c1.4,0,2.3,0.9,2.3,2.3
			s-0.9,2.3-2.3,2.3H55.6l27.7,18.4c1.1,0.7,1.4,2,0.7,3.2C83.3,115.3,82.6,115.8,82,115.8z"/>
	</g>
	<g>
		<path d="M54,58.3c-0.5,0-1.1-0.2-1.6-0.7c-0.9-0.9-0.9-2.3,0-3.2l15.2-16.4c0.9-0.9,2.3-0.9,3.2,0c0.9,0.9,0.9,2.3,0,3.2
			L55.6,57.6C55.4,58.1,54.7,58.3,54,58.3z"/>
	</g>
	<g>
		<path d="M63.1,42.2c-3.9,0-6.8-3.2-6.8-6.8c0-3,1.8-5.7,4.8-6.6c1.1-0.5,2.5,0.2,3,1.4c0,0.2,0.2,0.7,0,0.9c0-0.2,0.2-0.5,0.5-0.7
			c0.7-0.9,2.3-1.1,3.2-0.2c1.6,1.4,2.5,3.2,2.5,5.2C70.1,39,67,42.2,63.1,42.2z M63.8,31.5c-0.2,0.7-0.7,1.1-1.4,1.4
			c-0.9,0.2-1.6,1.1-1.6,2.3c0,1.4,1.1,2.3,2.3,2.3c1.1,0,2.3-1.1,2.3-2.3c0-0.7-0.2-1.4-0.9-1.8C64,32.9,63.8,32.2,63.8,31.5z"/>
	</g>
	<g>
		<g>
			<path d="M99.9,40.4c-0.2,0-0.2,0-0.5,0l-88.2-17c-3-0.7-5-3.4-4.5-6.6v-0.2C7,15.1,7.9,13.8,9,12.9c1.6-0.7,3-1.1,4.5-0.7
				l88.2,17c0.7,0.2,1.1,0.5,1.4,0.9c0.2,0.5,0.5,1.1,0.5,1.6l-1.4,6.8C101.9,39.7,101,40.4,99.9,40.4z M12.4,16.5
				c-0.2,0-0.5,0-0.7,0.2c-0.2,0-0.5,0.2-0.5,0.7v0.2c0,0.7,0.2,1.1,0.9,1.1l85.9,16.6l0.5-2.3L12.4,16.5
				C12.6,16.5,12.6,16.5,12.4,16.5z"/>
		</g>
		<g>
			<path d="M114.9,69.9c-0.9,0-1.6-0.5-2-1.1l-15-29.5c-0.5-1.1-0.2-2.5,0.9-3c1.1-0.7,2.5-0.2,3,0.9l12,23.6
				c2-13.6,0.5-26.4-0.2-31.6l-11.6,4.3c-1.1,0.5-2.5-0.2-3-1.4c-0.5-1.1,0.2-2.5,1.4-3l14.1-5.5c0.7-0.2,1.4-0.2,1.8,0.2
				c0.7,0.2,0.9,0.9,1.1,1.6c0.2,0.9,4.3,21.8-0.5,42.7c-0.2,0.9-0.9,1.6-2,1.8C115.1,69.9,114.9,69.9,114.9,69.9z"/>
		</g>
	</g>
	<g>
		<path d="M114.9,104.4c-1.4,0-2.3-0.9-2.3-2.3V75.6c0-1.4,0.9-2.3,2.3-2.3c1.4,0,2.3,0.9,2.3,2.3v26.6
			C117.2,103.5,116,104.4,114.9,104.4z"/>
	</g>
	<g>
		<path d="M121.9,116h-14.1c-1.4,0-2.3-0.9-2.3-2.3v-10.2c0-1.4,0.9-2.3,2.3-2.3s2.3,0.9,2.3,2.3v8h9.5v-8c0-1.4,0.9-2.3,2.3-2.3
			c1.4,0,2.3,0.9,2.3,2.3v10.2C124.2,114.9,123.3,116,121.9,116z"/>
	</g>
	<g>
		<path d="M10.4,98.8c-1.4,0-2.3-0.9-2.3-2.3V28.5c0-1.4,0.9-2.3,2.3-2.3s2.3,0.9,2.3,2.3v67.9C12.6,97.9,11.7,98.8,10.4,98.8z"/>
	</g>
	<g>
		<path d="M14.7,115.8H6.1c-1.4,0-2.3-0.9-2.3-2.3v-17c0-1.4,0.9-2.3,2.3-2.3h8.6c1.4,0,2.3,0.9,2.3,2.3v17
			C17,114.7,16.1,115.8,14.7,115.8z M8.3,111.3h4.1V98.8H8.3V111.3z"/>
	</g>
</g>
</svg>
