<svg version="1.1" id="Layer_1" xmlns="http://www.w3.org/2000/svg" xmlns:xlink="http://www.w3.org/1999/xlink" x="0px" y="0px"
	 viewBox="0 0 128 128" style="enable-background:new 0 0 128 128;" xml:space="preserve">
<desc>Created with Sketch.</desc>
<path d="M67.6,76.3C83.9,76,97.3,74,97.4,74c0.4-0.1,0.8-0.2,1.1-0.5l28.4-26.9c0.6-0.6,0.8-1.5,0.4-2.3L118,25
	c-0.3-0.6-0.9-1-1.5-1.1l-40.8-5.2c-1.9-0.3-32.2-5.5-54.8,2.2C8.9,25,1.4,33,0.6,42.4c-0.2,1.9-0.1,3.7,0.3,5.5
	c0.7,6.2,4.3,10.4,7.3,13.9c1.6,1.8,3.1,3.6,3.7,5.2c0.3,0.8,0.6,1.8,0.8,2.9c0.5,2.3,1.1,4.9,3,6.9c2.8,3,7.6,4,11.6,4
	c0.2,3.5,1,10.3,4.1,13.5c3.3,3.4,7.9,3.8,10.6,3.8c0.4,2.6,1.5,6.9,4.9,10.2c0.2,0.2,0.3,0.3,0.5,0.4c3.9,1.8,10,2.5,16.7,2.5
	c14.9,0,32.8-3.2,35.9-4c1.1-0.3,1.7-1.3,1.5-2.4c-0.3-1.1-1.3-1.7-2.4-1.5c-7.2,1.7-38.8,6.6-49.7,1.9c-3.6-3.7-3.6-9.3-3.6-9.3
	c0-0.6-0.3-1.2-0.7-1.5c-0.5-0.4-1.1-0.5-1.6-0.4c-0.1,0-5.9,1-9.2-2.4c-1.5-1.6-2.4-5.6-2.8-9.2c11,7.9,50.9,7.6,67.6,4.1
	c1.1-0.2,1.8-1.3,1.5-2.4c-0.2-1.1-1.3-1.8-2.4-1.5c-17.4,3.7-56.8,3.3-64.9-3.8c-2.3-2-3.3-4-3-6C40,75.4,52.5,76.6,67.6,76.3z
	 M96.2,70.1c-5,0.7-39.9,5.2-64.2-1c2.7-3.1,8.4-6.5,18.2-8.6c15.4-3.3,44.8,0.4,54.2,1.7L96.2,70.1z M9.8,56.2c0,0.1,0,0.2-0.1,0.3
	c-2.6-2.9-4.2-6-4.9-9.2c0-0.1,0-0.2,0-0.3c0-0.2-0.1-0.4-0.1-0.6c-0.2-1.2-0.2-2.4-0.1-3.6c0.7-7.8,7.2-14.5,17.5-18
	c21.8-7.5,52.5-2.1,52.8-2.1c0,0,0.1,0,0.1,0l39.8,5.1l7.2,14.7c-10.2-1.4-58.5-8-79.8-4.1C24.3,41.7,11.5,48.7,9.8,56.2z
	 M18.5,74.1c-1.1-1.2-1.5-3.1-2-5c-0.2-0.8-0.3-1.6-0.6-2.3c0.8,0.5,1.5,0.9,2.3,1.4c2.4,1.3,5,2.5,8,3.5c-0.3,1.5-0.3,3.3,0.5,5.3
	C23.3,76.8,20.1,75.8,18.5,74.1z M27.9,67.9c-2.8-0.9-5.3-2-7.7-3.3c-1.7-1-3.3-2-4.8-3c-2.3-2.2-1.9-3.9-1.8-4.5
	c1.1-4.9,11.6-11.5,29.3-14.8c20.2-3.7,67.5,2.6,78.2,4.1l-13,12.4c0,0-0.1,0-0.1,0c-1.6-0.3-39.5-6.2-58.6-2.1
	C38.9,58.9,31.2,63,27.9,67.9z"/>
</svg>
