<svg height='100px' width='100px'  fill="#000000" xmlns="http://www.w3.org/2000/svg" data-name="Layer 1" viewBox="0 0 100 100" x="0px" y="0px"><title>Paper-Airplane</title><path d="M74.15,86.86a1.89,1.89,0,0,1-.79-0.17L40.6,71.92a1.92,1.92,0,0,1-.6-3.09L79.94,27l-0.42-.21L29.75,66.53a2,2,0,0,1-1.84.31L4.15,58.49a1.93,1.93,0,0,1-.22-3.54L94.48,10a1.93,1.93,0,0,1,2.71,2.26L76,85.47A1.92,1.92,0,0,1,74.15,86.86Zm-37.09,5.3a1.92,1.92,0,0,1-1.73-1.07l-6.9-14a1.93,1.93,0,0,1,2.42-2.65L42.09,78.8a1.92,1.92,0,0,1,1.06,2.59L38.82,91a1.93,1.93,0,0,1-1.72,1.14h0Z"></path></svg>