
<svg version="1.1" xmlns="http://www.w3.org/2000/svg" xmlns:xlink="http://www.w3.org/1999/xlink"
	 x="0px" y="0px"
	 viewBox="31 31 138 138" enable-background="new 31 31 138 138" xml:space="preserve">
	<g transform="translate(50 50) scale(0.69 0.69) rotate(0) translate(-50 -50)">
		<path
				d="M39.664,45.464v177h142.599c12.8,0,23-10.4,23-23v-177h-142.6C50.064,22.464,39.664,32.863,39.664,45.464z"/>
		<rect x="67.064" y="142.463" fill="#FFFFFF" width="110.201" height="12.4"/>
		<rect x="67.064" y="161.063" fill="#FFFFFF" width="110.201" height="12.4"/>
		<rect x="67.064" y="179.464" fill="#FFFFFF" width="110.201" height="12.4"/>
  </g>
	<path fill="#FFFFFF" d="M69.8,61.6c1.8-0.4,4.2-0.6,7.4-0.6c3.4,0,5.8,0.6,7.4,2s2.6,3.4,2.6,6s-0.8,4.8-2.2,6.2
		C83.2,77,80.4,78,77,78c-0.8,0-1.4,0-1.8-0.2V87h-5.4V61.6z M75.2,73.4c0.4,0.2,1,0.2,1.8,0.2c3,0,4.8-1.6,4.8-4.2
		c0-2.4-1.6-3.8-4.4-3.8c-1,0-1.8,0-2.2,0.2V73.4z"/>
	<path fill="#FFFFFF" d="M90.8,61.6c2-0.4,4.6-0.6,7.4-0.6c4.6,0,7.8,1,10,2.8c2.6,2,4.2,5.2,4.2,9.8c0,5-1.801,8.4-4,10.4
		c-2.601,2.2-6.601,3.4-11.4,3.4c-2.8,0-5-0.2-6.2-0.4V61.6z M96.4,82.6c0.4,0.2,1.2,0.2,2,0.2c5,0,8.4-2.8,8.4-9
		c0-5.4-3-8.2-7.8-8.2c-1.2,0-2,0.2-2.6,0.2V82.6z"/>
	<path fill="#FFFFFF" d="M116.2,61.4h15V66h-9.4v6h8.8v4.8h-8.8v10.4h-5.6V61.4z"/>
</svg>
