<svg height='100px' width='100px'  fill="#000000" xmlns="http://www.w3.org/2000/svg" xmlns:xlink="http://www.w3.org/1999/xlink" version="1.1" x="0px" y="0px" viewBox="0 0 100 100" enable-background="new 0 0 100 100" xml:space="preserve"><g><path fill="#000000" d="M65,15H35c-4.40002,0-8,3.59998-8,8v57c0,4.41821,3.58173,8,8,8h30c4.41827,0,8-3.58179,8-8V23   C73,18.59998,69.40002,15,65,15z M45,19h9v4h-9V19z M50,84c-1.65686,0-3-1.34314-3-3s1.34314-3,3-3s3,1.34314,3,3   S51.65686,84,50,84z M68,74H32V27h36V74z"></path></g></svg>