<?xml version="1.0" encoding="utf-8"?>
<!-- Generator: Adobe Illustrator 24.2.1, SVG Export Plug-In . SVG Version: 6.00 Build 0)  -->
<svg version="1.1" id="Layer_1" xmlns="http://www.w3.org/2000/svg" xmlns:xlink="http://www.w3.org/1999/xlink" x="0px" y="0px"
	 viewBox="0 0 128 128" style="enable-background:new 0 0 128 128;" xml:space="preserve">
<g>
	<path d="M59,108.2c1.3,0,2.3-1,2.3-2.3c0-1.3-1.1-2.4-2.3-2.4c-1.3,0-2.3,1-2.3,2.3C56.7,107.1,57.8,108.2,59,108.2z"/>
	<path d="M48.4,108.2c1.3,0,2.3-1,2.3-2.3s-1-2.3-2.3-2.3c-1.3,0-2.3,1-2.3,2.3S47.1,108.2,48.4,108.2z"/>
	<path d="M37.9,108.1c1.3,0,2.3-1,2.3-2.3s-1-2.3-2.3-2.3c-1.3,0-2.3,1-2.3,2.3S36.6,108.1,37.9,108.1z"/>
	<path d="M27.3,108.1c1.3,0,2.3-1,2.3-2.3s-1-2.3-2.3-2.3c-1.3,0-2.3,1-2.3,2.3S26,108.1,27.3,108.1z"/>
	<path d="M16.8,108.1c1.3,0,2.3-1,2.3-2.3s-1-2.3-2.3-2.3c-1.3,0-2.3,1-2.3,2.3S15.5,108.1,16.8,108.1z"/>
	<path d="M125,67c-0.3-0.4-0.8-0.6-1.3-0.6h-6.1V11c0-1-0.8-1.8-1.8-1.8H84.6c-0.4,0-0.9,0.2-1.3,0.5L52.8,40.3H11.2
		c-4.8,0-8.7,3.9-8.7,8.7v25.7c0,4.8,3.9,8.7,8.7,8.7h16.5v9.4H15.6c-7.2,0-13.1,5.9-13.1,13.1S8.4,119,15.6,119h44.5
		c7.2,0,13.1-5.9,13.1-13.1s-5.9-13.1-13.1-13.1H48.2v-9.4h15.1c5.4,0,9.9-4.4,10-9.9V60.2c0-0.3-0.1-0.9-0.5-1.3l-10-9.9l27.1-27.1
		H108c1,0,1.8-0.8,1.8-1.8c0-1-0.8-1.8-1.8-1.8H89.1c-0.4,0-0.9,0.2-1.3,0.5L59,47.6c-0.3,0.3-0.5,0.8-0.5,1.3s0.2,0.9,0.5,1.3
		l10.8,10.8v12.4c0,3.5-2.8,6.3-6.3,6.3H11.2c-2.8,0-5-2.2-5-5V48.9c0-2.8,2.2-5,5-5h42.3c0.4,0,0.9-0.2,1.3-0.5l30.6-30.6h28.6
		v53.7h-6.2c-1,0-1.8,0.8-1.8,1.8V79c0,0.3,0,0.6,0.2,0.9l3.4,6.9v13.1c0,1,0.8,1.8,1.8,1.8h8.7c1,0,1.8-0.8,1.8-1.7V86.8l3.4-7
		c0.2-0.3,0.2-0.6,0.2-0.8l0-10.6C125.5,67.8,125.3,67.4,125,67z M112.9,85.4l-3.4-6.9v-8.4h5.7c0.3,0.1,0.5,0.1,0.6,0.1
		c0.2,0,0.4,0,0.6-0.1h5.4v8.6l-3.4,7c-0.2,0.3-0.2,0.6-0.2,0.8v11.7h-5.1V86.3C113.1,86,113.1,85.7,112.9,85.4z M15.6,96.3h44.5
		c5.2,0,9.5,4.3,9.5,9.5s-4.3,9.5-9.5,9.5H15.6c-5.2,0-9.5-4.3-9.5-9.5S10.4,96.3,15.6,96.3z M31.3,92.8v-9.4h13.2v9.4H31.3z"/>
	<path d="M120,103.6h-8.7c-1,0-1.8,0.8-1.8,1.8c0,1,0.8,1.8,1.8,1.8h2.6v9.7c0,1,0.8,1.8,1.8,1.8s1.8-0.8,1.8-1.8v-9.7h2.4
		c1,0,1.8-0.8,1.8-1.7c0.1-0.5-0.1-0.9-0.4-1.3C121,103.8,120.5,103.6,120,103.6z"/>
</g>
</svg>
