<svg version="1.1" id="Layer_1" xmlns="http://www.w3.org/2000/svg" xmlns:xlink="http://www.w3.org/1999/xlink" x="0px" y="0px"
	 viewBox="0 0 128 128" style="enable-background:new 0 0 128 128;" xml:space="preserve">
<path d="M125.6,109.3l0.2-4.1c-13.9-0.6-27.2,0.8-39.7,4.2c-5,1.3-9.4,2.8-13.2,4.2c-6.8,2.3-12.6,4.4-19.2,4.6l0.1,4.1
	c7.2-0.2,13.3-2.3,20.4-4.8c4-1.4,8.1-2.8,13-4.1C99.2,110.2,112.2,108.8,125.6,109.3z"/>
<path d="M91.3,125.6c8.4-2.2,17.2-3.6,26.3-4l-0.2-4.1c-9.4,0.4-18.5,1.8-27.2,4.2L91.3,125.6z"/>
<path d="M28.8,118.5c1.5,0.2,2.8,0.5,4,0.8l0.9-4c-1.2-0.3-2.6-0.5-4.2-0.8c-9-1.4-18.2-1.4-27.4,0l0.6,4.1
	C11.5,117.1,20.2,117.1,28.8,118.5z"/>
<rect x="2.4" y="86.6" width="34.9" height="4.1"/>
<rect x="49.6" y="86.6" width="76.1" height="4.1"/>
<path d="M37.3,72.2v-4.1h-4.1v2.1H2.4v4.1h32.9C36.4,74.3,37.3,73.4,37.3,72.2z"/>
<path d="M37.3,119.5c0,3.4,2.8,6.2,6.3,6.2c3.5,0,6.3-2.8,6.3-6.2c0-2.7-1.8-5-4.3-5.8V64h2.1c1.1,0,2.1-0.9,2.1-2.1v-8.2
	c0-1.1-0.9-2.1-2.1-2.1h-2.1v-7.5l5.8-7.7c0.3-0.4,0.4-0.8,0.4-1.2v-2.4l18-3.5l-7.4,40.9h-8.6v-2.1h-4.1v4.1c0,1.1,0.9,2.1,2.1,2.1
	h51.4h16.4h6.2v-4.1h-4.1V55.8c0-1.1-0.9-2.1-2.1-2.1h-6.2V20.5c1.3-0.9,2-2.4,1.8-4l-1.5-10.3c-0.2-1.1-0.8-2.1-1.7-2.8
	s-2.1-0.9-3.2-0.7L51.7,14.2v-3.7c0-0.5-0.2-1.1-0.6-1.5l-6.2-6.2c-0.8-0.8-2.1-0.8-2.9,0l-6.2,6.2c-0.4,0.4-0.6,0.9-0.6,1.5v24.7
	c0,0.4,0.1,0.9,0.4,1.2l5.8,7.7v7.5h-2.1c-1.1,0-2.1,0.9-2.1,2.1v8.2c0,1.1,0.9,2.1,2.1,2.1h2.1v49.7
	C39,114.6,37.3,116.9,37.3,119.5z M82.8,26.8l2.6,15L73.6,31.6l-0.1,0.1l0.6-3.3L82.8,26.8z M69.7,52.8l15.8,8.6l-18.4,5.7
	L69.7,52.8z M72.7,36.2l9.5,8.2l-11.5,2.5L72.7,36.2z M89.4,64.5l1,5.7H71L89.4,64.5z M73.9,50.4l12.5-2.8l1.8,10.6L73.9,50.4z
	 M105.1,70.2v-4.1h12.3v4.1H105.1z M117.5,61.9h-12.3v-4.1h12.3V61.9z M103.1,53.7c-1.1,0-2.1,0.9-2.1,2.1v14.4h-6.5L86.9,26
	l22.4-4.3v32.1H103.1z M109.6,6.8l1.5,10.3L51.7,28.6V18.4L109.6,6.8z M39.4,11.4l4.1-4.1l4.1,4.1v23.1L43.5,40l-4.1-5.5V11.4z
	 M41.4,55.8h4.1v4.1h-4.1V55.8z M43.6,121.6c-1.2,0-2.2-0.9-2.2-2.1c0-1.1,1-2.1,2.2-2.1c1.2,0,2.2,0.9,2.2,2.1
	C45.7,120.6,44.8,121.6,43.6,121.6z"/>
<path d="M51.7,98.9L51.7,98.9c-1.1,0-2.1,0.9-2.1,2.1l0,0c0,1.1,0.9,2.1,2.1,2.1l0,0c1.1,0,2.1-0.9,2.1-2.1l0,0
	C53.8,99.9,52.8,98.9,51.7,98.9z"/>
<path d="M68.1,96.9L68.1,96.9c0-1.1-0.9-2.1-2.1-2.1l0,0c-1.1,0-2.1,0.9-2.1,2.1l0,0c0,1.1,0.9,2.1,2.1,2.1l0,0
	C67.2,98.9,68.1,98,68.1,96.9z"/>
<path d="M59.9,109.2L59.9,109.2c0-1.1-0.9-2.1-2.1-2.1l0,0c-1.1,0-2.1,0.9-2.1,2.1l0,0c0,1.1,0.9,2.1,2.1,2.1l0,0
	C59,111.3,59.9,110.4,59.9,109.2z"/>
<path d="M78.4,105.1L78.4,105.1c0-1.1-0.9-2.1-2.1-2.1l0,0c-1.1,0-2.1,0.9-2.1,2.1l0,0c0,1.1,0.9,2.1,2.1,2.1l0,0
	C77.5,107.2,78.4,106.2,78.4,105.1z"/>
<path d="M88.7,96.9L88.7,96.9c0-1.1-0.9-2.1-2.1-2.1l0,0c-1.1,0-2.1,0.9-2.1,2.1l0,0c0,1.1,0.9,2.1,2.1,2.1l0,0
	C87.8,98.9,88.7,98,88.7,96.9z"/>
<path d="M119.5,96.9L119.5,96.9c0-1.1-0.9-2.1-2.1-2.1l0,0c-1.1,0-2.1,0.9-2.1,2.1l0,0c0,1.1,0.9,2.1,2.1,2.1l0,0
	C118.6,98.9,119.5,98,119.5,96.9z"/>
<path d="M105.1,98.9L105.1,98.9c0-1.1-0.9-2.1-2.1-2.1l0,0c-1.1,0-2.1,0.9-2.1,2.1l0,0c0,1.1,0.9,2.1,2.1,2.1l0,0
	C104.2,101,105.1,100.1,105.1,98.9z"/>
<path d="M8.5,96.9L8.5,96.9c0-1.1-0.9-2.1-2.1-2.1l0,0c-1.1,0-2.1,0.9-2.1,2.1l0,0c0,1.1,0.9,2.1,2.1,2.1l0,0
	C7.6,98.9,8.5,98,8.5,96.9z"/>
<path d="M20.9,105.1L20.9,105.1c0-1.1-0.9-2.1-2.1-2.1l0,0c-1.1,0-2.1,0.9-2.1,2.1l0,0c0,1.1,0.9,2.1,2.1,2.1l0,0
	C19.9,107.2,20.9,106.2,20.9,105.1z"/>
<path d="M35.2,101L35.2,101c0-1.1-0.9-2.1-2.1-2.1l0,0c-1.1,0-2.1,0.9-2.1,2.1l0,0c0,1.1,0.9,2.1,2.1,2.1l0,0
	C34.3,103.1,35.2,102.1,35.2,101z"/>
<rect x="96.8" y="11.6" transform="matrix(0.9806 -0.1961 0.1961 0.9806 -0.6932 20.2781)" width="10.5" height="4.1"/>
<rect x="41.4" y="20.8" width="4.1" height="4.1"/>
</svg>
