<svg version="1.1" id="Layer_1" xmlns="http://www.w3.org/2000/svg" xmlns:xlink="http://www.w3.org/1999/xlink" x="0px" y="0px"
	 viewBox="0 0 128 128" style="enable-background:new 0 0 128 128;" xml:space="preserve">
<g>
	<path d="M78.4,34c-1-0.7-2.2-0.4-2.9,0.4L59.6,56.6l-7.2-9.9c-0.7-1-1.9-1.1-2.9-0.4c-1,0.7-1.1,1.9-0.4,2.9L58,61.4
		c0.4,0.6,1,0.8,1.7,0.8s1.2-0.3,1.7-0.8l17.6-24.5C79.6,35.9,79.4,34.7,78.4,34z"/>
	<path d="M64.1,15.1c-16.1,0-29.2,13.1-29.2,29.2s13.1,29.2,29.2,29.2s29.2-13.1,29.2-29.2S80.2,15.1,64.1,15.1z M64.1,69.4
		C50.3,69.4,39,58.1,39,44.3s11.3-25.1,25.1-25.1s25.1,11.3,25.1,25.1S77.8,69.4,64.1,69.4z"/>
	<path d="M101.7,67.2c0.7-0.4,1-1.1,1-1.8V54.6l5.4-9.4c0.4-0.7,0.4-1.4,0-2.1l-5.4-9.2V23.2c0-0.7-0.4-1.4-1.1-1.8L92.2,16
		l-5.4-9.4C86.4,6,85.7,5.6,85,5.6H74.3l-9.4-5.4c-0.7-0.4-1.4-0.4-2.1,0l-9.4,5.4H42.7c-0.7,0-1.4,0.4-1.8,1.1L35.5,16l-9.4,5.4
		c-0.7,0.4-1.1,1.1-1.1,1.8V34l-5.4,9.4c-0.4,0.7-0.4,1.4,0,2.1l5.4,9.4v10.6c0,0.7,0.4,1.4,1.1,1.8l9.4,5.4l3.3,5.8l-15.2,38.9
		c-0.3,0.8-0.1,1.7,0.6,2.2c0.6,0.6,1.5,0.7,2.3,0.4l12.4-5.7l5.2,12.5c0.3,0.8,1.1,1.2,1.9,1.2l0,0c0.8,0,1.7-0.6,1.9-1.4l15-38.3
		c0.3,0.1,0.6,0.1,0.8,0.1c0.3,0,0.6-0.1,0.8-0.1l15,38.3c0.3,0.8,1.1,1.2,1.9,1.4l0,0c0.8,0,1.5-0.6,1.9-1.2l5.2-12.5l12.4,5.7
		c0.8,0.4,1.7,0.1,2.3-0.4c0.6-0.6,0.8-1.5,0.6-2.2L89,78.4l3.3-5.8L101.7,67.2z M46.3,120.6l-4.1-9.8c-0.3-0.6-0.7-1-1.1-1.1
		c-0.3-0.1-0.6-0.1-0.7-0.1c-0.3,0-0.6,0-0.8,0.1l-9.7,4.4l12.3-31.4l0,0c0.1,0,0.3,0.1,0.4,0.1h0.1c0.1,0,0.4,0.1,0.6,0.1
		c1.7,0,3,0,4.3,0c5-0.1,6.6-0.1,11.3,2.8c0,0,0,0,0.1,0c0.3,0.1,0.6,0.3,0.8,0.6c0,0,0.1,0,0.1,0.1L46.3,120.6z M88.9,109.7
		c-0.6-0.3-1.1-0.3-1.7,0c-0.6,0.1-1,0.6-1.1,1.1l-4.1,9.8L68.6,86.2c5.5-3.6,7-3.4,12.4-3.4c1.2,0,2.5,0,4.1,0l0,0l0,0
		c0.4,0,0.8-0.1,1.2-0.3l12.1,31.6L88.9,109.7z M89,70l-4.1,7.2l0,0l-1,1.7c-1.1,0-2.1,0-3,0c-0.1,0-0.3,0-0.4,0
		c-5.9-0.1-8.1,0.1-14.3,4.1c-0.4,0.3-0.8,0.6-1.4,0.8l-0.7,0.4l-0.7-0.4c-0.4-0.3-0.8-0.6-1.2-0.8c-0.1-0.1-0.4-0.3-0.6-0.3
		c-0.1-0.1-0.4-0.3-0.6-0.4c-0.3-0.1-0.4-0.3-0.6-0.4c-0.1-0.1-0.3-0.1-0.4-0.3c-0.1-0.1-0.4-0.3-0.6-0.3c-0.1-0.1-0.3-0.1-0.4-0.3
		c-0.1-0.1-0.4-0.1-0.6-0.3c-0.1,0-0.3-0.1-0.4-0.1c-0.1-0.1-0.4-0.1-0.6-0.3c-0.1,0-0.3-0.1-0.3-0.1c-0.1-0.1-0.4-0.1-0.6-0.3
		c-0.1,0-0.1-0.1-0.3-0.1c-0.3-0.1-0.6-0.3-1-0.3c-0.1,0-0.3-0.1-0.4-0.1s-0.3-0.1-0.4-0.1c-0.3,0-0.4,0-0.6,0c-0.1,0-0.3,0-0.4-0.1
		c-0.1,0-0.3,0-0.4-0.1c-0.1,0-0.3,0-0.4,0s-0.3,0-0.4,0c-0.1,0-0.3,0-0.4,0c-0.1,0-0.3,0-0.6,0c-0.1,0-0.3,0-0.3,0
		c-0.1,0-0.4,0-0.7,0c-0.1,0-0.1,0-0.3,0c-0.3,0-0.7,0-1,0c-0.7,0-1.5,0-2.3,0c-0.8,0-1.9,0-3,0l-1-1.7l0,0l-4.1-7.2
		c-0.1-0.3-0.4-0.6-0.7-0.7l-8.5-5.2V54.1c0-0.4-0.1-0.7-0.3-1.1l-5.1-8.8l5.1-8.8c0.1-0.3,0.3-0.7,0.3-1.1V24.2l8.8-5.1
		c0.3-0.1,0.6-0.4,0.7-0.7l5.1-8.8h10.1c0.4,0,0.7-0.1,1.1-0.3l8.7-4.8l8.8,5.1c0.3,0.1,0.7,0.3,1.1,0.3H84l5.1,8.8
		c0.1,0.3,0.4,0.6,0.7,0.7l8.8,5.1v10.1c0,0.4,0.1,0.7,0.3,1.1l5.1,8.8L98.8,53c-0.1,0.3-0.3,0.7-0.3,1.1v10.1l-8.8,5.1
		C89.4,69.4,89.3,69.7,89,70z"/>
</g>
</svg>
