<svg version="1.1" id="Layer_1" xmlns="http://www.w3.org/2000/svg" xmlns:xlink="http://www.w3.org/1999/xlink" x="0px" y="0px"
	 viewBox="0 0 128 128" style="enable-background:new 0 0 128 128;" xml:space="preserve">
<path d="M126.1,67.3L115,68.5c-0.6,0-1,0.4-1.3,0.9c-4.4,9.7-20.6,11.5-20.8,11.5c-0.3,0-0.6,0.1-0.7,0.3l-9.6,6.4l-7.9,1.3
	c-1.3,0.1-2.3-0.1-2.9-1c-0.7-1-0.9-2.6-0.4-3.9c0.4-0.9,1.1-2,3-2.1l0,0c2-0.3,4-0.6,5.6-0.9c0.1,0,0.4-0.1,0.6-0.3l13-9.6
	c0.6-0.4,0.9-1.3,0.4-2c0-0.1-1.7-3.4-5.3-4.6c-2.4-0.9-5.2-0.4-8,1c-0.7,0.4-1.6,0.9-2.6,1.4c-0.6,0.3-1.3,0.7-1.9,1.1l1.1-8.2
	C77.6,59,77,58.2,76,58c-0.9-0.1-1.7,0.4-1.9,1.4L72.7,70v0.1c0,0.7,0.3,1.3,0.9,1.6c1.1,0.7,2.6,0,6.2-2.1c0.9-0.4,1.7-1,2.4-1.3
	c2.1-1.1,4-1.4,5.6-0.9c1.3,0.4,2.1,1.1,2.7,1.9L79,77.8c-2.3,0.6-6.4,1-8.2,1.1L70,79.1c-1.6,0.1-2.9,0.3-3.4-0.3
	c-0.4-0.4-0.7-1.4-0.9-3c-0.1-1.3,0.4-10,0.9-16.5c0.3-5.3,0.6-10,0.6-11.5c0-3.6,6.7-3.9,6.7-3.9H74c0.7-0.1,5.6,0.6,10.3,1.1
	c19.8,2.7,37.8,4.7,42.7,2.1c0.7-0.4,1-1.4,0.6-2.1c-0.4-0.7-1.4-1-2.1-0.6c-4.3,2.4-28.9-0.9-40.8-2.4c-7.4-1-10-1.3-11-1.1
	c-2.9,0.1-7.2,1.1-9,4.2c-1.7-3-6.2-4-9-4.2c-1-0.1-3.4,0.3-10,1.1c-12,1.7-37.4,5.3-43.1,2.3c-0.7-0.4-1.7-0.1-2.1,0.7
	c-0.4,0.7-0.1,1.7,0.7,2.1c6.2,3.3,25.6,0.7,45.2-2c4.3-0.6,8.4-1.3,9.2-1.1h0.1c0,0,6.7,0.3,6.7,3.9l-0.1,16.3l0,0l0,0
	c0.3,3.6,0.4,9.6,0.1,11.3c-0.3,1.9-0.9,3.1-1.6,3.7c-0.4,0.3-1.1,0.6-3,0.1c-1-0.1-6.4-1.4-8.4-2.1h-0.1c-0.7-0.4-1.9-3.9-2.3-7.3
	c2-0.9,4.2-1.7,6.2-2.9l1,5.3c0.1,0.7,0.9,1.3,1.6,1.3c0.1,0,0.1,0,0.3,0c0.9-0.1,1.4-1,1.3-1.9l-1.4-7.4c-0.1-0.6-0.4-1-0.9-1.1
	c-0.4-0.1-1-0.1-1.4,0.1c-14.5,8.4-30.9,9.6-42.1,3c-0.3-0.1-0.6-0.3-0.9-0.3H1.8c-0.9,0-1.6,0.7-1.6,1.6s0.7,1.6,1.6,1.6l0,0H10
	c1.6,0.9,3.1,1.6,4.9,2.3c6.9,10,19,10.5,21.9,10.5l9.4,6.6l0.1,0.1c1.6,0.9,3,1.1,4.3,1.1c2.1,0,3.9-1,5-2.3c1.1-1.4,1.7-3.3,1.4-5
	l0,0c0.7,0.1,1.4,0.3,2.1,0.3c1.3,0,2.4-0.3,3.3-1c0.6-0.3,1-0.9,1.3-1.3c0.1,0.3,0.4,0.6,0.7,0.7c1,0.9,2.3,1.1,3.6,1.1
	c0.1,0,0.3,0,0.6,0c0,0.1-0.1,0.3-0.1,0.4c-1,2.3-0.7,5.2,0.9,7c1.1,1.4,2.9,2.3,4.7,2.3c0.4,0,0.7,0,1.1-0.1l8.3-1.3
	c0.3,0,0.4-0.1,0.6-0.3l9.4-6.4c2.7-0.3,17.3-2.6,22.6-12.5l10.3-1.1c0.9-0.1,1.6-0.9,1.4-1.7C127.8,67.9,127,67.2,126.1,67.3z
	 M53.1,85.6c-1.1,1.3-3.1,1.4-5.3,0.4l-9.7-6.9c-0.3-0.1-0.7-0.3-1-0.3c-0.1,0-9.9,0.4-16.8-5.7c7.3,1.4,15.5,0.7,23.5-1.9
	c0.4,3.3,1.7,8.6,4.6,9.3c1.1,0.3,3.3,0.9,5.2,1.3C54.1,83.1,54,84.5,53.1,85.6z"/>
</svg>
