<svg version="1.1" id="Layer_1" xmlns="http://www.w3.org/2000/svg" xmlns:xlink="http://www.w3.org/1999/xlink" x="0px" y="0px"
	 viewBox="0 0 846.7 846.7" style="enable-background:new 0 0 846.7 846.7;" xml:space="preserve">
<g>
	<path d="M597.5,514l0.8-0.2l-1,0.2C597.4,514,597.4,514,597.5,514z"/>
	<path d="M512.1,258.6c0-0.2-0.1-0.5-0.2-0.7L512.1,258.6z"/>
	<path d="M310.7,222.1h0.1c6.9,0,12.6-5.2,13.2-12.1c1.5-16.6,6.3-47.1,21.4-70.2c3.7-5.6,2.7-13-2.3-17.4c-6.1-5.4-15.6-4-20,2.7
		c-18.3,28.1-24,63-25.7,82.5C296.8,215.3,302.8,222.1,310.7,222.1z"/>
	<path d="M392.6,279.4l11.5,3.6c0.2-0.7,19.1-58.2,90.9-86.8c6.5-2.6,10-9.9,7.7-16.5c-2.4-7.3-10.5-11.2-17.6-8.3
		c-61.1,24.3-89.4,67.1-100.5,89.3C381.1,268,384.8,276.9,392.6,279.4z"/>
	<path d="M478.7,229.2l5.4,12c14.5-6.5,52.8-22.4,78.7-27.8c6.5-1.4,11.1-7.4,10.6-14c-0.6-8.1-8.2-13.7-16.1-12
		c-24.4,5.1-54.8,17-71.6,24.1C478.8,214.3,475.6,222.4,478.7,229.2z"/>
	<path d="M626,433.7c6.9,4.2,15.9,11.1,21,21.5c2.7,5.5,8.7,8.3,14.6,7.1c8.4-1.8,13.2-11.1,9.4-18.8c-8-16.3-21.3-26.8-31.6-32.9
		c-7.3-4.3-16.8-0.7-19.4,7.3C618.1,424,620.6,430.5,626,433.7z"/>
	<path d="M651.3,493.1c-4.9-6.9-14.7-7.5-20.6-1.4c-4.3,4.6-4.9,11.7-1.3,16.8c6.1,8.6,14.6,23.8,18.9,45.7
		c1.3,6.8,7.6,11.5,14.5,10.7c7.8-0.8,13.2-8.2,11.7-15.8C669.4,522.8,659.1,504.1,651.3,493.1z"/>
	<path d="M618.6,552.3l-3.8,0.7c-6.2,1.1-10.3,7-9.3,13.2s7,10.3,13.2,9.3l3.8-0.7c6.3-1.1,10.3-7,9.3-13.2S624.8,551.2,618.6,552.3
		z"/>
	<path d="M588.4,370.5l-3.7-2.5c-6.1-4.2-14.4-2.7-18.6,3.3s-2.7,14.4,3.3,18.6l3.7,2.5c6.1,4.2,14.4,2.7,18.6-3.3
		C595.9,383,594.4,374.6,588.4,370.5z"/>
	<path d="M251,343l-0.8,0.2l1-0.2C251.1,343,251.1,343,251,343z"/>
	<path d="M223.6,423.5c-7-4-16.1-10.9-21.4-21.3c-2.7-5.4-8.8-8.2-14.7-6.9c-8.4,1.9-13.1,11.2-9.2,18.9c8.2,16.2,21.6,26.5,32,32.5
		c7.4,4.3,16.8,0.6,19.4-7.5C231.6,433.3,229.1,426.7,223.6,423.5z"/>
	<path d="M197.6,364.7c4.9,6.8,14.9,7.4,20.6,1.2c4.3-4.6,4.8-11.7,1.1-16.8c-6.2-8.6-14.9-23.7-19.5-45.4
		c-1.4-6.8-7.7-11.4-14.6-10.6c-7.7,1-13.1,8.3-11.5,16.1C179,335.2,189.6,353.6,197.6,364.7z"/>
	<path d="M229.5,304.8l3.8-0.7c6.2-1.2,10.2-7.1,9-13.3s-7.1-10.2-13.3-9l-3.8,0.7c-6.2,1.2-10.2,7.1-9,13.3
		C217.3,302,223.3,306,229.5,304.8z"/>
	<path d="M262.1,486.3l3.7,2.5c6.1,4.2,14.4,2.5,18.6-3.6s2.5-14.4-3.6-18.6l-3.7-2.5c-6.1-4.2-14.4-2.5-18.6,3.6
		C254.3,473.8,256,482.1,262.1,486.3z"/>
	<path d="M557.3,243.2c1.2,7.3,8.1,12.2,15.3,10.9l40.3-6.7c7.3-1.2,12.2-8.1,10.9-15.3c-1.2-7.3-8.1-12.2-15.3-10.9l-40.3,6.7
		C561,229.1,556.1,236,557.3,243.2z"/>
	<path d="M545.3,635.9h-0.1c-6.9,0-12.6,5.2-13.2,12.1c-1.5,16.6-6.3,47.1-21.4,70.2c-3.7,5.6-2.7,13,2.3,17.4
		c6.1,5.4,15.6,4,20-2.7c18.3-28.1,24-63,25.7-82.5C559.2,642.7,553.2,635.9,545.3,635.9z"/>
	<path d="M463.4,578.6l-11.5-3.6c-0.2,0.7-19.1,58.2-90.9,86.8c-6.5,2.6-10,9.9-7.7,16.5c2.4,7.3,10.5,11.2,17.6,8.3
		c61.1-24.3,89.4-67.1,100.5-89.3C474.9,590,471.2,581.1,463.4,578.6z"/>
	<path d="M377.3,628.8l-5.4-12c-14.5,6.5-52.8,22.4-78.7,27.8c-6.5,1.4-11.1,7.4-10.6,14c0.6,8.1,8.2,13.7,16.1,12
		c24.4-5.1,54.8-17,71.6-24.1C377.2,643.6,380.4,635.6,377.3,628.8z"/>
	<path d="M298.7,614.7c-1.2-7.3-8.1-12.2-15.3-10.9l-40.3,6.7c-7.3,1.2-12.2,8.1-10.9,15.3c1.2,7.3,8.1,12.2,15.3,10.9l40.3-6.7
		C295,628.9,299.9,622,298.7,614.7z"/>
	<path d="M428.9,35.6c-59.4,0-115.7,13.2-166.1,36.8l-0.9-0.3c-0.1,0.2-0.2,0.5-0.3,0.9C128.6,135.8,36.7,271.1,36.7,427.8
		c0,55.6,11.6,108.6,32.5,156.5l-0.8,2.2c0.3,0.1,1,0.3,2,0.6C131.6,724.4,269.1,820,428.9,820c216.6,0,392.2-175.6,392.2-392.2
		S645.5,35.6,428.9,35.6z M713.9,259.2c-67.1-6.4-175.6,0-293.2,73.9c31.2-35.4,64.8-51.7,82.3-58.4c6.3-2.3,10-8.6,9.3-15.1
		c0,0.1,0.1,0.3,0.1,0.4l2.6,10.7l-2.7-11.3c0-0.1,0-0.2,0-0.3c0-0.1-0.1-0.2-0.1-0.4l-0.1-0.2c0,0,0,0.1,0,0.1
		c-2.6-7.5-11.1-11.7-18.7-8.8c-30.7,11.7-98.7,46.9-138.5,138.5c-20.2-87.8,4.3-153.3,16.2-177.9c3-6.2,0.8-13.6-5-17.1
		c-6.8-4.2-15.7-1.7-19,5.6c-12.7,26.8-37,92-21.5,179c-51.3-99.9-53.7-190.3-48.1-244.6c45.4-23.4,96.9-36.7,151.6-36.7
		C550.2,96.7,656.2,161.9,713.9,259.2z M248.6,150.1c-4.1,67.6,6,171.9,78.2,283.6c-36.5-31.3-53.2-65.3-59.7-82.4
		c-2.4-6.3-9.2-9.8-15.7-8.1c-7.8,1.9-12.1,10.3-9.3,17.8c11.5,29.8,47.4,98.8,140.7,137.9c-87.6,21.3-153.4-2.5-178.3-13.9
		c-6.2-2.9-13.4-0.7-17,5.1l-0.1,0.1c-4,6.8-1.3,15.6,5.8,18.9c25.4,11.8,85.5,33.3,165.4,21.6c-93.2,43.5-176.8,45.5-228.2,40.2
		c-20.9-43.4-32.5-92-32.5-143.3C97.8,311.4,157.8,209.1,248.6,150.1z M145.9,599.8c71,4.5,182.8-6.8,301.2-89.6
		c-34.1,45.8-74.4,65.6-94.2,73c-5.9,2.2-9.6,8-9.4,14.1l-2.5-10.2l2.5,10.5c0,0.4,0.1,0.8,0.1,1.2c2.4,7.8,11.1,12.2,18.9,9.3
		c30.7-11.7,98.7-46.9,138.5-138.5c20.2,87.8-4.3,153.3-16.2,177.9c-3,6.2-0.8,13.6,5,17.1c6.8,4.2,15.7,1.7,19-5.6
		c11.8-24.7,33.4-82.6,24.3-160.2c41.9,95.4,41.1,179.7,34.6,229.6c-42.3,19.6-89.3,30.5-138.9,30.5
		C309.1,758.9,204.1,695.2,145.9,599.8z M597,713.1c6-67.3-1-174.7-74-290.9c36,31.8,52.3,65.9,58.7,83.2c2.4,6.3,9,9.9,15.6,8.3
		c7.8-1.9,12.2-10.1,9.4-17.7c-11.2-30.1-46.1-99.3-139-139.7c87.9-20.2,153.4,4.4,178,16.2c6.1,3,13.4,0.8,17-5l0.1-0.1
		c4.2-6.8,1.5-15.6-5.6-18.9c-25.2-12-85-34.4-165.1-23.7c99.1-44.9,186.7-43.5,237.1-36.5c19.7,42.4,30.8,89.7,30.8,139.5
		C760,549.3,694.5,655.5,597,713.1z"/>
</g>
</svg>
