<svg version="1.1"
	 id="Layer_1" xmlns:cc="http://creativecommons.org/ns#" xmlns:dc="http://purl.org/dc/elements/1.1/" xmlns:inkscape="http://www.inkscape.org/namespaces/inkscape" xmlns:rdf="http://www.w3.org/1999/02/22-rdf-syntax-ns#" xmlns:sodipodi="http://sodipodi.sourceforge.net/DTD/sodipodi-0.dtd" xmlns:svg="http://www.w3.org/2000/svg"
	 xmlns="http://www.w3.org/2000/svg" xmlns:xlink="http://www.w3.org/1999/xlink" x="0px" y="0px" viewBox="0 0 128 128"
	 style="enable-background:new 0 0 128 128;" xml:space="preserve">
<g>
	<path d="M100.6,121.1c0.7,0,1.4-0.4,1.8-1.1l7-13.1c0.2-0.3,0.3-0.7,0.3-1.1v-1.5c0-0.4,0.3-0.8,0.8-0.8h9v-16h-9
		c-0.4,0-0.8-0.3-0.8-0.8v-6.5H18.2c-1,0.1-1.8,1.1-1.8,2.2v4.4c0,0.4-0.3,0.8-0.8,0.8H8.4c-0.9,0.1-1.8,1.1-1.8,2.2v13.8h9
		c0.4,0,0.8,0.3,0.8,0.8v1.5c0,0.4,0.1,0.7,0.3,1.1l7,13.1c0.3,0.7,1.1,1.1,1.8,1.1h25.1c0.6,0,1.2-0.3,1.6-0.9l8.4-11.7
		c0.2-0.3,0.4-0.7,0.4-1l1.1-9.1c0-0.4,0.4-0.7,0.7-0.7h0.6c0.4,0,0.7,0.3,0.7,0.7l1.1,9.1c0.1,0.4,0.2,0.7,0.4,1l8.4,11.7
		c0.4,0.5,1,0.9,1.6,0.9H100.6z M109.6,92.7c0-0.4,0.3-0.8,0.8-0.8h4.2c0.4,0,0.8,0.3,0.8,0.8v5.8c0,0.4-0.3,0.8-0.8,0.8h-4.2
		c-0.4,0-0.8-0.3-0.8-0.8V92.7z M16.4,98.5c0,0.4-0.3,0.8-0.8,0.8h-4.2c-0.4,0-0.8-0.3-0.8-0.8v-5.8c0-0.4,0.3-0.8,0.8-0.8h4.2
		c0.4,0,0.8,0.3,0.8,0.8V98.5z M69.3,106.6c-0.1-0.1-0.1-0.2-0.1-0.3l-1.3-10.9c-0.1-1-1.1-1.9-2-1.9c0,0,0,0,0,0h-5.6c0,0,0,0,0,0
		c-1,0-1.9,0.9-2,1.9l-1.3,10.9c0,0.1-0.1,0.2-0.1,0.3l-7,9.8c-0.1,0.2-0.4,0.3-0.6,0.3h-22c-0.3,0-0.5-0.2-0.7-0.4l-5.8-11
		c-0.1-0.1-0.1-0.2-0.1-0.4V85.4c0-0.4,0.3-0.8,0.8-0.8h83.5c0.4,0,0.8,0.3,0.8,0.8V105c0,0.1,0,0.2-0.1,0.4l-5.8,11
		c-0.1,0.2-0.4,0.4-0.7,0.4h-22c-0.2,0-0.5-0.1-0.6-0.3L69.3,106.6z"/>
	<path d="M34.9,108c0.6,0.1,1.1,0,1.5-0.3c0.4-0.3,0.7-0.8,0.8-1.5c0.1-0.6,0-1.3-0.4-1.7l-5.6-8.8c-0.4-0.7-1.2-1.1-1.9-1
		c-0.6,0.1-1.2,0.5-1.5,1.2c-0.4,0.8-0.3,1.6,0,2.2l5.6,8.8C33.8,107.5,34.3,107.9,34.9,108z"/>
	<path d="M39.7,91.5c-0.4-0.7-1.1-1.1-1.8-1.1c0,0-0.1,0-0.1,0c0,0,0,0,0,0c-0.6,0-1.2,0.5-1.6,1.1c-0.4,0.7-0.4,1.6-0.1,2.2
		l8.6,14.9c1.1,0.8,2.1,0.8,2.8,0.2c0.7-0.7,0.9-2,0.4-2.8L39.7,91.5z"/>
	<path d="M50.3,5.9c-1,0.1-1.8,1.1-1.8,2.2V17c0,0.3-0.2,0.6-0.6,0.7c-15.5,4-24,14.7-28.4,23c-2.7,5.1-4.1,9.8-4.9,12.9
		c-0.4,1.4-0.6,2.8-0.8,4.2c-0.1,0.4-0.4,0.6-0.7,0.6c-1.1,0-2.3,0-3.5,0c-1.7,0-3.5,0-5.1,0c-1,0-2,1.1-2,2.2v13.8h121V60.6
		c0-1.1-1-2.1-2-2.2c-1.6,0-3.4,0-5.1,0c-1.2,0-2.3,0-3.5,0c-0.4,0-0.7-0.3-0.7-0.6c-0.2-1.1-0.4-2.5-0.9-4.2
		c-0.8-3.1-2.2-7.8-4.9-12.9c-4.4-8.3-12.8-19-28.3-23c-0.3-0.1-0.6-0.4-0.6-0.7V5.9H50.3z M77.9,22.4c0.2-0.1,0.4-0.2,0.7-0.1
		c10.6,3.1,18.8,10,24.4,20.6c2,3.7,3.6,7.9,4.5,11.8c0.3,1.3,0.6,2.6,0.8,4c0,0.3,0.1,0.6,0.1,0.9c0.1,0.1,0.1,0.3,0.1,0.5
		c0,0,0,0,0,0c-0.1,0.6,0.1,1.3,0.5,1.8c0.4,0.5,0.9,0.8,1.5,0.8c1.9,0.1,4.2,0,6.4,0l2,0c0.2,0,0.4,0.1,0.5,0.2
		c0.1,0.1,0.2,0.3,0.2,0.5v5.8c0,0.4-0.3,0.8-0.8,0.8H7.3c-0.4,0-0.8-0.3-0.8-0.8v-5.8c0-0.2,0.1-0.4,0.2-0.5
		c0.1-0.1,0.4-0.2,0.5-0.2l2,0c2.2,0,4.5,0,6.4,0c0.5,0,1-0.3,1.4-0.7c0.4-0.5,0.6-1.2,0.6-1.7c0-0.1,0-0.2,0-0.3v0
		c0-0.3,0-0.8,0.1-1.3c0.2-1.3,0.4-2.6,0.8-4c0.7-2.8,2-7.2,4.5-11.8c5.6-10.6,13.8-17.5,24.4-20.6c0.2-0.1,0.5,0,0.7,0.1
		c0.2,0.1,0.3,0.4,0.3,0.6v6.7c0,0.6,0.2,1.1,0.7,1.6c0.8,0.8,1.9,0.8,2.7,0c0.4-0.4,0.7-1,0.7-1.6V11c0-0.4,0.3-0.8,0.8-0.8h19.5
		c0.4,0,0.8,0.3,0.8,0.8v18.6c0,0.6,0.2,1.1,0.7,1.6c0.8,0.8,1.9,0.8,2.7,0c0.4-0.4,0.7-1,0.7-1.6V23C77.6,22.8,77.7,22.5,77.9,22.4
		z"/>
</g>
</svg>
