<?xml version="1.0" encoding="utf-8"?>
<!-- Generator: Adobe Illustrator 24.2.0, SVG Export Plug-In . SVG Version: 6.00 Build 0)  -->
<svg version="1.1" id="Layer_1" xmlns="http://www.w3.org/2000/svg" xmlns:xlink="http://www.w3.org/1999/xlink" x="0px" y="0px"
	 viewBox="0 0 128 128" style="enable-background:new 0 0 128 128;" xml:space="preserve">
<path d="M126,34.7C126,34.7,126,34.7,126,34.7c-5.5-1.7-7.6-2-11.5-2.5c-1.2-0.1-2.7-0.3-4.5-0.6c-7.1-0.9-11.2-3.2-17.2-6.6
	c-3.4-1.9-7.5-4.1-13-6.7c-4.2-1.8-8.3-4-12-6.5c-1.3-1.3-3.1-1.6-4.7-0.9c-1.2,0.3-6,2.4-18.3,8.2C28.7,26.5,8.9,34.9,1,36.8
	c-0.7,0.2-1.1,0.8-0.9,1.5c0.2,0.7,0.9,1.1,1.5,0.9c7.2-1.7,24.2-8.6,44.3-17.9c5.4-2.5,10.7-4.9,14.1-6.5c-1.3,1.4-2.8,3.1-4.4,4.8
	c-2.8,1.7-25.7,11.7-42.5,19c-4.7,2-9,3.9-12.4,5.4c-0.6,0.3-0.9,1-0.6,1.6c0.2,0.4,0.6,0.7,1.1,0.7c0.2,0,0.3,0,0.6,0
	c3.1-1.4,7-3,11.1-4.8C26.1,36,42.3,29,51.5,24.7c-2,2.3-3.5,4.2-4.6,5.7c-7,2.9-44.1,19.9-45.8,20.7c-0.3,0.1-0.5,0.4-0.6,0.7
	c-0.1,0.3-0.1,0.7,0.1,1c0.2,0.4,0.6,0.7,1,0.7c0,0,0,0,0,0c0.2,0,0.4,0,0.5,0c0,0,0.1,0,0.1-0.1C2.8,53,33.6,38.9,45.3,33.7
	c-0.4,1.3-0.6,2.7-0.8,4C39.2,40.3,6.6,56.3,1.1,58.9c-0.3,0.1-0.5,0.4-0.6,0.7c-0.1,0.3-0.1,0.6,0,1c0.2,0.4,0.6,0.7,1.1,0.7
	c0.2,0,0.3,0,0.5,0c0,0,0.1,0,0.1,0c5.1-2.4,33.6-16.3,42-20.6c-0.1,1.3-0.2,2.8-0.3,4.7c-2.6,1.3-9.6,5.1-18.4,10
	c-9.8,5.4-17.9,9.5-23.9,12.5c-0.3,0.1-0.5,0.4-0.6,0.7s-0.1,0.6,0.1,1c0.2,0.4,0.6,0.6,1,0.7c0.2,0,0.4,0,0.5,0c0,0,0.1,0,0.1,0
	C4,69.5,5.5,68.8,7,68c5.4-2.7,12-6.2,19.7-10.4c4.9-2.7,13.3-7.3,17.2-9.3v5C32.6,59.1,4.1,75.2,1.7,76.6c-0.6,0.4-0.8,1.1-0.4,1.7
	c0.2,0.4,0.6,0.6,1.1,0.6c0.2,0,0.5-0.1,0.7-0.2c2.1-1.2,29-16.4,40.9-22.6c0,1.7,0.1,2.8,0.1,3.3l0,0.1c0,0.1,0,0.3,0,0.5l0,2.1
	c-3.2,1.6-10.9,5.6-18.3,9.7c-2.8,1.5-5.7,3.1-8.5,4.7C10.9,80,5,83.4,2.9,84.3c-0.3,0.1-0.5,0.4-0.6,0.7c-0.1,0.3-0.1,0.7,0.1,0.9
	c0.2,0.4,0.6,0.7,1.1,0.7c0.2,0,0.3,0,0.5,0c0,0,0.1,0,0.1,0c2.1-1,7.6-4.1,13.9-7.6c2.8-1.6,5.8-3.2,8.6-4.7
	c6.4-3.5,14-7.5,17.7-9.4c0.1,1.7,0.5,3.4,0.9,5c-2.8,1.4-11.2,6.4-26.4,15.6c-2.7,1.6-6.5,3.8-9.6,5.6c-1.8,1-3.3,1.9-4.2,2.4
	c-0.3,0.2-0.5,0.4-0.6,0.8c-0.1,0.3,0,0.7,0.1,0.9c0.2,0.4,0.7,0.6,1.1,0.6c0.2,0,0.5-0.1,0.6-0.2c1-0.6,2.6-1.5,4.4-2.5
	c3-1.7,6.7-3.8,9.4-5.5c5.2-3.2,21.7-13.3,25.9-15.4c0.7,1.7,1.7,3.2,3,4.5c-4,2-20.8,11.9-30.9,18.2c-2.6,1.6-3.6,2.3-4.4,2.8
	c-0.8,0.5-1.3,0.9-2.8,1.8c-0.6,0.4-0.8,1.1-0.4,1.7c0.2,0.4,0.6,0.6,1.1,0.6c0.3,0,0.4-0.1,0.6-0.2c1.6-0.9,2.1-1.3,2.9-1.8
	c0.8-0.5,1.8-1.2,4.4-2.8c9.1-5.7,29.9-17.9,31.4-18.4c1.2,1.7,2.1,3.6,2.7,5.6c-3.6,1.8-21.5,12.1-31.8,18.4
	c-2.1,1.3-2.3,1.5-2.5,1.6c-0.1,0.1-0.2,0.2-1.4,0.9c-0.6,0.4-0.8,1.1-0.4,1.7c0.2,0.4,0.6,0.6,1.1,0.6c0.3,0,0.4-0.1,0.6-0.2
	c1.2-0.7,1.3-0.8,1.5-1c0.2-0.1,0.4-0.3,2.4-1.6c7.2-4.3,27.2-16,31.3-18.1c0.6,1.9,1.1,4.1,1.7,6.7c-2.6,1.6-15.6,9-19.7,11.4
	c-2.2,1.3-3.7,2.1-5,2.7c-1.5,0.8-2.8,1.5-4.7,2.6c-0.3,0.2-0.5,0.5-0.5,0.8c-0.1,0.3,0,0.7,0.2,0.9c0.2,0.3,0.6,0.6,1,0.6
	c0.2,0,0.5-0.1,0.7-0.2c1.9-1.1,3.1-1.8,4.6-2.6c1.3-0.7,2.8-1.5,5-2.7c3.8-2.2,15.8-9.1,19-11c0.4,2.1,0.8,4.1,1.1,5.9
	c0,0.1,0,0.2,0,0.3l-0.4,0.3c-4.9,3.2-15.6,9.2-21.2,12.1c-0.6,0.3-0.9,1-0.6,1.7c0.2,0.4,0.7,0.7,1,0.7c0.2,0,0.3,0,0.5,0
	c0,0,0.1,0,0.1,0c4.9-2.5,15.6-8.5,21.1-12c0.2,1.2,0.5,2.3,0.9,3.4c0.3,0.6,0.5,1.2,0.6,1.9c0.2,1.8,0.2,3.7,0,5.5
	c-0.1,0.2-0.2,0.5-0.2,0.8c0,0.3,0.2,0.6,0.5,0.9c0.2,0.2,0.5,0.3,0.8,0.3c0,0,0,0,0,0c0.4,0,0.7-0.2,1-0.5c0.9-1.2,0.4-7.1,0.4-7.2
	c-0.2-0.9-0.4-1.8-0.8-2.6c-0.5-1.5-0.8-3.1-1-4.5c0-0.3-0.1-0.5-0.1-0.8c0-0.1-0.1-0.2-0.1-0.4l-0.1-0.3c-0.4-2.2-0.9-4.7-1.4-7.4
	c-2-9.6-4.4-15.6-7.2-18.1c-3-2.7-4.6-6.9-4.8-12.8l0-3.5c-0.5-8.8-0.3-23.9,2.2-27.3c4.1-5.7,14.1-16.7,16.4-19
	c0.3,0.1,0.6,0.3,1.2,0.7c3.9,2.6,8.1,4.9,12.5,6.8c5.5,2.5,9.3,4.7,12.8,6.6c6.1,3.4,10.5,5.9,18.2,6.9c1.8,0.3,3.3,0.4,4.5,0.6
	c3.8,0.4,5.6,0.7,10.9,2.3c1,0.3,1.8-0.2,2-0.8C127.3,35.8,127.1,35.1,126,34.7z"/>
</svg>
