<svg xmlns="http://www.w3.org/2000/svg" viewBox="0 0 21 21" version="1.1" x="0px" y="0px">
  <g stroke="none" stroke-width="1" fill-rule="evenodd">
    <path
      d="M8.6953,14.3916 C5.5543,14.3916 3.0003,11.8356 3.0003,8.6956 C3.0003,5.5546 5.5543,2.9996 8.6953,2.9996 C11.8363,2.9996 14.3913,5.5546 14.3913,8.6956 C14.3913,11.8356 11.8363,14.3916 8.6953,14.3916 L8.6953,14.3916 Z M15.8423,13.7216 L15.6073,13.9566 C16.7213,12.4956 17.3913,10.6756 17.3913,8.6956 C17.3913,3.8936 13.4983,-0.0004 8.6953,-0.0004 C3.8933,-0.0004 0.0003,3.8936 0.0003,8.6956 C0.0003,13.4976 3.8933,17.3916 8.6953,17.3916 C10.6753,17.3916 12.4953,16.7216 13.9573,15.6076 L13.7213,15.8426 L18.3343,20.4546 L20.4553,18.3336 L15.8423,13.7216 Z"
      fill-rule="nonzero"></path>
  </g>
</svg>
