<?xml version="1.0" encoding="utf-8"?>
<!-- Generator: Adobe Illustrator 24.2.0, SVG Export Plug-In . SVG Version: 6.00 Build 0)  -->
<svg version="1.1" id="Layer_1" xmlns="http://www.w3.org/2000/svg" xmlns:xlink="http://www.w3.org/1999/xlink" x="0px" y="0px"
	 viewBox="0 0 128 128" style="enable-background:new 0 0 128 128;" xml:space="preserve">
<g>
	<path d="M73.7,7.6h-23c-0.5,0-1,0.2-1.4,0.6c-0.4,0.4-0.6,0.9-0.6,1.4l0.1,83.3c0,0.3,0.1,0.6,0.2,0.8L59,116.3
		c0.3,0.7,1,1.2,1.7,1.2c0,0,0.1,0,0.1,0c0.7,0,1.4-0.4,1.8-1l12.4-22.6c0,0,0,0,0-0.1c0-0.1,0.1-0.2,0.1-0.3c0,0,0-0.1,0-0.1
		c0-0.1,0.1-0.3,0.1-0.4c0,0,0,0,0,0l0.5-83.3c0-0.5-0.2-1-0.6-1.4C74.7,7.8,74.2,7.6,73.7,7.6z M61,111l-8.2-18.6l-0.1-80.8h19
		l-0.5,77.8c-7.6-3.4-14.4-0.3-14.7-0.1c-1,0.5-1.4,1.7-0.9,2.7c0.5,1,1.7,1.4,2.7,0.9c0.1,0,5.9-2.8,12.3,0.7L61,111z"/>
	<path d="M125.3,43.1H82.2c-1.1,0-2,0.9-2,2s0.9,2,2,2h43.1c1.1,0,2-0.9,2-2S126.4,43.1,125.3,43.1z"/>
	<circle cx="84.5" cy="57.2" r="2"/>
	<path d="M123.9,55.2h-2.4c-1.1,0-2,0.9-2,2c0,1.1,0.9,2,2,2h2.4c1.1,0,2-0.9,2-2C125.9,56.1,125,55.2,123.9,55.2z"/>
	<circle cx="113.5" cy="57.2" r="2"/>
	<path d="M101.5,55.2h-9c-1.1,0-2,0.9-2,2c0,1.1,0.9,2,2,2h9c1.1,0,2-0.9,2-2C103.5,56.1,102.6,55.2,101.5,55.2z"/>
	<path d="M2.9,47.1h38.9c1.1,0,2-0.9,2-2s-0.9-2-2-2H2.9c-1.1,0-2,0.9-2,2S1.8,47.1,2.9,47.1z"/>
	<path d="M84.7,81.7c-0.6-0.9-1.9-1.1-2.8-0.5c-0.9,0.6-1.1,1.9-0.5,2.8c0.3,0.4,7,10.6-2.8,20.7c-0.8,0.8-0.8,2.1,0,2.8
		c0.4,0.4,0.9,0.6,1.4,0.6c0.5,0,1-0.2,1.4-0.6C93.6,95,84.8,81.8,84.7,81.7z"/>
	<path d="M92.2,72c-0.9,0.7-1.1,1.9-0.4,2.8c0.7,0.9,16.5,22.7-7.3,42.1c-0.9,0.7-1,2-0.3,2.8c0.4,0.5,1,0.7,1.6,0.7
		c0.4,0,0.9-0.1,1.3-0.4c21.4-17.4,14.6-38.7,8-47.6C94.4,71.5,93.1,71.3,92.2,72z"/>
	<path d="M44.1,83.9c0.6-0.9,0.4-2.2-0.5-2.8c-0.9-0.6-2.2-0.4-2.8,0.5c-0.1,0.1-8.9,13.3,3.2,25.8c0.4,0.4,0.9,0.6,1.4,0.6
		c0.5,0,1-0.2,1.4-0.6c0.8-0.8,0.8-2,0-2.8C37.1,94.6,43.8,84.4,44.1,83.9z"/>
	<path d="M41,116.8c-23.8-19.3-8-41.1-7.3-42.1c0.7-0.9,0.5-2.1-0.4-2.8c-0.9-0.7-2.1-0.5-2.8,0.4c-6.6,8.8-13.4,30.2,8,47.6
		c0.4,0.3,0.8,0.4,1.3,0.4c0.6,0,1.2-0.3,1.6-0.7C42,118.8,41.8,117.5,41,116.8z"/>
	<path d="M42.1,55.2h-2.4c-1.1,0-2,0.9-2,2c0,1.1,0.9,2,2,2h2.4c1.1,0,2-0.9,2-2C44.1,56.1,43.2,55.2,42.1,55.2z"/>
	<circle cx="2.7" cy="57.2" r="2"/>
	<circle cx="31.7" cy="57.2" r="2"/>
	<path d="M19.7,55.2h-9c-1.1,0-2,0.9-2,2c0,1.1,0.9,2,2,2h9c1.1,0,2-0.9,2-2C21.7,56.1,20.8,55.2,19.7,55.2z"/>
</g>
</svg>
