<?xml version="1.0" encoding="utf-8"?>
<!-- Generator: Adobe Illustrator 24.2.0, SVG Export Plug-In . SVG Version: 6.00 Build 0)  -->
<svg version="1.1" id="Layer_1" xmlns="http://www.w3.org/2000/svg" xmlns:xlink="http://www.w3.org/1999/xlink" x="0px" y="0px"
	 viewBox="0 0 128 128" style="enable-background:new 0 0 128 128;" xml:space="preserve">
<path d="M127.5,9.2c-0.6-0.9-1.8-1.2-2.8-0.6c-3.9,2.4-6.4,6.4-7.4,11.8c-2,10.7-5,20.5-9,29.6c-3.3-0.2-5.5-1.3-7.9-2.5
	c-1.7-0.8-3.4-1.7-5.4-2.2c-1-0.3-2.1-0.5-3.6-0.5c-5.1,0-7.6,1.7-9.8,3.3c-2,1.4-3.6,2.5-7.5,2.5c-3.8,0-6.6-1.4-9.6-2.9
	c-2.8-1.4-5.7-2.9-9.3-2.9c-3.6,0-5.9,1.5-8.2,2.9c-2.5,1.5-4.8,2.9-9.1,2.9c-3.8,0-6.6-1.4-9.6-2.9c-2.8-1.4-5.7-2.9-9.3-2.9
	c-3.6,0-5.9,1.6-8.2,3.2c-2.4,1.7-4.6,3.2-8.8,3.2c-1.1,0-2,0.9-2,2s0.9,2,2,2c5.4,0,8.6-2.2,11.1-3.9c2-1.4,3.5-2.5,5.9-2.5
	c2.6,0,4.9,1.1,7.5,2.4c3.1,1.6,6.7,3.4,11.4,3.4c5.4,0,8.6-2,11.2-3.5c2.1-1.3,3.7-2.3,6.1-2.3c2.6,0,4.9,1.1,7.5,2.4
	c3.1,1.6,6.7,3.4,11.4,3.4c5.1,0,7.5-1.7,9.7-3.2c2-1.4,3.7-2.6,7.6-2.6c1,0,1.8,0.1,2.4,0.3c0.1,0,0.1,0,0.2,0
	c1.6,0.4,3.1,1.1,4.6,1.9c2.2,1.1,4.6,2.3,7.9,2.8c-1.5,3.1-3.1,6.1-4.9,9.1c-0.4-0.2-0.8-0.4-1.2-0.6c-2.7-1.2-5.5-2.5-9-2.5
	c-1.6,0-3.3,0.3-5,1.1c-1.2,0.5-2.3,1.2-3.3,1.8c-2.5,1.5-4.8,2.9-9,2.9c-3.3,0-5.4-1.2-7.8-2.7c-2.8-1.7-6-3.6-11.1-3.1
	c-5.2,0-7.7,1.7-9.9,3.3c-1.9,1.4-3.5,2.5-7.3,2.5c-3.5,0-6-1.3-8.5-2.7c-2.7-1.5-5.8-3.1-10.1-3.1c-0.1,0-0.3,0-0.4,0
	c-5,0-7.4,1.9-9.5,3.6c-1.9,1.5-3.5,2.8-7.3,2.8c-1.1,0-2,0.9-2,2s0.9,2,2,2c5.1,0,7.6-1.9,9.8-3.7c2-1.6,3.5-2.8,7.3-2.7
	c3.5,0,5.8,1.2,8.5,2.6c2.8,1.5,5.9,3.2,10.4,3.2c5,0,7.5-1.7,9.6-3.3c2-1.4,3.7-2.6,7.7-2.5c0.1,0,0.1,0,0.2,0
	c3.9-0.4,6.2,1,8.8,2.6c2.6,1.5,5.5,3.2,9.9,3.2c5.3,0,8.5-1.9,11.1-3.5c1-0.6,1.9-1.1,2.8-1.5c1.2-0.5,2.3-0.7,3.4-0.7
	c2.6,0,4.8,1,7.3,2.2c0.3,0.1,0.5,0.2,0.8,0.3c-1.9,2.9-3.9,5.8-6.1,8.6c-0.7-0.1-1.3-0.1-2-0.1c-4.2,0-6.7,1.6-8.9,3
	c-2.2,1.4-4.3,2.8-8.3,2.8c-3.5,0-5.7-1.2-8.2-2.6c-2.7-1.5-5.8-3.2-10.7-3.2c0,0,0,0,0,0c0,0,0,0-0.1,0c-0.3,0-0.6,0-0.9,0
	c-4,0.2-6.3,1.7-8.4,3.1c-1.6,1-3,2-5.2,2.4c-0.8,0.2-1.8,0.2-2.8,0.2c-3.5,0-5.7-1.2-8.2-2.6c-2.7-1.5-5.8-3.2-10.7-3.2
	c-4.9,0-7.4,1.9-9.6,3.6c-2,1.5-3.6,2.8-7.4,2.8c-1.1,0-2,0.9-2,2s0.9,2,2,2c5.2,0,7.7-1.9,9.9-3.7c2-1.5,3.5-2.7,7.1-2.7
	c3.8,0,6.2,1.3,8.7,2.7c2.6,1.5,5.7,3.1,10.2,3.1c0,0,0,0,0.1,0c0,0,0,0,0,0c1.9,0,3.5-0.3,4.9-0.7c2.6-0.7,4.5-1.9,6.2-2.9
	c2-1.2,3.5-2.1,5.8-2.2c0.1,0,0.3,0,0.4,0c3.8,0,6.2,1.3,8.7,2.7c2.6,1.5,5.7,3.1,10.2,3.1c0,0,0,0,0.1,0c0,0,0,0,0,0
	c0,0,0.1,0,0.1,0c5.1,0,7.9-1.8,10.4-3.4c1.8-1.2,3.3-2.1,5.6-2.3c-4.1,4.9-8.7,9.7-13.8,14.4c-6.2,2.4-9.2,0.9-12.1-0.6
	c-0.2-0.1-0.3-0.2-0.5-0.2c-0.1-0.1-0.2-0.2-0.4-0.2c-0.5-0.2-0.9-0.5-1.2-0.7c-1.7-1.1-3-1.7-7.1-1.7c0,0,0,0,0,0c0,0-0.1,0-0.1,0
	c-0.4,0-0.9,0-1.3,0.1c-3.5,0.3-5.8,1.7-7.7,3c-1.4,0.9-2.7,1.7-4.4,2.2c-1.1,0.3-2.4,0.5-3.9,0.5c-3.5,0-5.7-1.2-8.2-2.6
	c-2.7-1.5-5.8-3.2-10.7-3.2c-3.6,0-5.9,1.6-8.2,3.2c-2.4,1.7-4.6,3.2-8.8,3.2c-1.1,0-2,0.9-2,2s0.9,2,2,2c5.4,0,8.6-2.2,11.1-3.9
	c2-1.4,3.5-2.5,5.9-2.5c3.8,0,6.2,1.3,8.7,2.7c2.6,1.5,5.7,3.1,10.2,3.1c0,0,0,0,0.1,0c0,0,0,0,0,0c2,0,3.7-0.3,5.1-0.7
	c0.1,0,0.2-0.1,0.2-0.1c0.2-0.1,0.3-0.1,0.5-0.2c2.1-0.7,3.8-1.7,5.3-2.6c1.9-1.2,3.5-2.1,5.6-2.2c0.2,0,0.4,0,0.6,0
	c3.1,0,3.7,0.4,4.8,1.1c0.4,0.3,0.9,0.6,1.6,0.9c0.3,0.1,0.6,0.3,0.9,0.4c2,1,4.4,2.2,7.8,2.3c-8.1,6.5-17.4,10.5-26.6,12.8
	c-6.7,0.6-10.6-1.4-14.3-3.4c-3-1.6-6.2-3.2-10.5-3.2c-4.6,0-7,1.8-9.2,3.5c-1.2,0.9-2.3,1.8-3.8,2.3c-1.3,0.4-2.5,0.6-4,0.6
	c-0.8,0-1.5,0.7-1.5,1.5c0,0.4,0.2,0.8,0.5,1.1c-0.5,0.3-0.8,0.8-0.9,1.4c-0.2,1.1,0.6,2.1,1.6,2.3c0.7,0.1,7,1.1,16.2,1.1
	c15.4,0,38.8-2.9,56.4-18c8.3-7.1,15.4-14.4,21.5-22.1c0.1-0.1,0.1-0.1,0.2-0.2c13-16.6,21-35,25.2-57.1c0.8-4.3,2.7-7.4,5.6-9.2
	C127.8,11.4,128.1,10.1,127.5,9.2z M5.3,113.8c0.6-0.1,1.2-0.3,1.9-0.5c1.9-0.7,3.3-1.8,4.6-2.8c2-1.5,3.7-2.8,7.4-2.8
	c3.6,0,6.2,1.3,9.2,2.9c1.8,0.9,3.7,1.9,5.9,2.7C21.5,115.2,10.3,114.4,5.3,113.8z"/>
</svg>
