<svg version="1.1" id="Layer_1" xmlns="http://www.w3.org/2000/svg" xmlns:xlink="http://www.w3.org/1999/xlink" x="0px" y="0px"
	 viewBox="0 0 128 128" style="enable-background:new 0 0 128 128;" xml:space="preserve">
<g>
	<path d="M116.8,27.6c3.1,0,5.7-2.6,5.7-5.8c0-2.7-3.2-6.3-4.2-7.3c-0.4-0.4-0.9-0.6-1.4-0.6c-0.6,0-1.1,0.2-1.4,0.6
		c-1,1-4.4,4.6-4.4,7.4C111,25.1,113.5,27.6,116.8,27.6z M116.8,18.9c1,1.2,1.7,2.4,1.7,2.9c0,1-0.7,1.8-1.7,1.8
		c-1,0-1.8-0.8-1.8-1.8C115,21.3,115.7,20.1,116.8,18.9z"/>
	<path d="M11.4,27.6c3.2,0,5.8-2.7,5.8-5.8c0-2.8-3.4-6.3-4.4-7.4c-0.8-0.8-2-0.8-2.8,0c-1,1-4.4,4.6-4.4,7.4
		C5.6,25.1,8.1,27.6,11.4,27.6z M11.4,18.8c1,1.3,1.8,2.5,1.8,3c0,1-1,1.8-1.8,1.8c-1,0-1.8-0.8-1.8-1.8
		C9.6,21.3,10.3,20.1,11.4,18.8z"/>
	<path d="M108.2,34.3c-9.5-9.5-26.2-16.6-42.2-18v-4.1c0-1.1-0.9-2-2-2s-2,0.9-2,2v4.1c-15.8,1.4-32.5,8.5-42.2,18
		C8.2,46.1,1.7,61.7,1.6,78.3c0,2.4,1.4,4.6,3.6,5.5c2.1,0.9,4.5,0.5,6.2-1.1c9-8.3,21.2-8.3,29.7-0.1c1,1,2.4,1.6,3.9,1.7
		c1.5,0,3-0.5,4.1-1.6c2.3-2,4.7-3.5,7.2-4.7c0.1,0,0.1-0.1,0.2-0.1c1.7-1,3-1,5-1.1v39.5c0,2.9-2.3,5.2-5.2,5.2s-5.2-2.3-5.2-5.2
		c0-1.1-0.9-2-2-2s-2,0.9-2,2c0,5.1,4.1,9.2,9.2,9.2s9.2-4.1,9.2-9.2V76.7c2.7,0.1,5.4,0.9,6.3,1.3c2.6,1.1,5,2.7,7.3,4.7
		c2.3,2.1,5.8,2.1,7.9,0c8.5-8.2,20.8-8.2,29.9,0c1,1,2.5,1.6,4,1.6c3.1,0,5.7-2.6,5.7-5.8C126.4,61.7,120,46.1,108.2,34.3z
		 M44.7,43.9c-2.3,8.7-2.7,21.8-2.8,34.1c-9.9-7.8-23.5-7.3-33.3,1.7c-0.8,0.7-1.5,0.6-1.9,0.4c-0.6-0.2-1.2-0.9-1.2-1.8
		c0.1-15.5,6.2-30.1,17.1-41.2c8.4-8.3,22.8-14.7,36.8-16.5C52,27,47.3,34.3,44.7,43.9z M81.6,79.7c-2.6-2.3-5.4-4.1-8.4-5.4
		c-1.9-0.8-6.2-1.9-10.1-1.5c-0.7,0-1.3,0-1.8,0.1c-2.2,0-4.2,0.1-6.8,1.5c-2.9,1.3-5.6,3.1-8.2,5.3c0,0-0.1,0.1-0.1,0.1
		c-0.1,0.1-0.3,0.2-0.4,0.3c0-11.9,0.4-26.4,2.7-35.2C51.2,35.3,55.9,28.3,64,22c8.2,6.4,13,13.5,15.5,22.8
		c2.3,8.8,2.7,23.2,2.7,35.1C82,79.9,81.8,79.8,81.6,79.7z M120.8,80.2c-0.6,0-1-0.3-1.2-0.5c0,0,0,0-0.1-0.1
		c-5.3-4.8-11.6-7.2-17.9-7.2c-5.5,0-10.9,1.8-15.5,5.5c-0.1-12.3-0.5-25.4-2.8-34.1c-2.4-9.4-7.1-16.7-14.8-23.3
		c14.2,1.9,28.5,8.2,36.8,16.5c11,11,17.1,25.7,17.1,41.3C122.4,79.4,121.7,80.2,120.8,80.2z"/>
	<path d="M96,16.2c3.2,0,5.8-2.5,5.8-5.7c0-2.8-3.4-6.3-4.4-7.4c-0.4-0.4-0.9-0.6-1.4-0.6c-0.5,0-1,0.2-1.4,0.6
		c-1,1-4.2,4.6-4.2,7.3C90.4,13.6,93,16.2,96,16.2z M96.1,7.6c1,1.2,1.8,2.4,1.8,2.9c0,0.9-0.8,1.7-1.8,1.7c-0.9,0-1.7-0.8-1.7-1.7
		C94.4,10,95.1,8.8,96.1,7.6z"/>
	<path d="M32,16.2c3.2,0,5.8-2.5,5.8-5.7c0-2.8-3.4-6.3-4.4-7.4c-0.8-0.8-2-0.8-2.8,0c-1,1-4.4,4.6-4.4,7.4
		C26.2,13.6,28.8,16.2,32,16.2z M32,7.5c1,1.3,1.8,2.5,1.8,3c0,0.9-0.8,1.7-1.8,1.7s-1.8-0.7-1.8-1.7C30.2,10,31,8.8,32,7.5z"/>
</g>
</svg>
