<svg version="1.1" id="Layer_1" xmlns="http://www.w3.org/2000/svg" xmlns:xlink="http://www.w3.org/1999/xlink" x="0px" y="0px"
	 viewBox="0 0 128 128" style="enable-background:new 0 0 128 128;" xml:space="preserve">
<path d="M79.2,2.3c1.2,0,2.2,0.9,2.2,2.2s-0.9,2.2-2.2,2.2H64.8v12.3h4.8c4.5,0,8.4,2.9,9.8,7l0.5,1.3h6.3
	c19.5,0,35.4,15.8,35.4,35.4v60.9c0,1.2-0.9,2.2-2.2,2.2H94.4c-1.2,0-2.1-0.9-2.1-2.1V62.6c0-3.4-2.8-6.1-6.1-6.1h-6.3l-0.5,1.3
	c-0.5,1.5-1.3,2.8-2.5,3.9c-2,2-4.6,3.1-7.4,3.1H55.7c-4.6,0-8.4-2.9-9.9-7l-0.5-1.3h-3.5c-3.4,0-6.1,2.8-6.1,6.1v16.6
	c0,1.2-0.9,2.2-2.2,2.2H8.6c-1.2,0-2.2-0.9-2.2-2.2V62.6c0-19.5,15.8-35.4,35.4-35.4h3.6l0.5-1.3c1.4-4.1,5.3-7,9.8-7h4.8V6.6H46
	c-1.2,0-2.2-0.9-2.2-2.2s0.9-2.2,2.2-2.2L79.2,2.3z M69.5,23.3H55.7c-3.4,0-6.1,2.8-6.1,6.1v8.3c0,1.2-0.9,2.2-2.2,2.2h0
	c-1.2,0-2.2-0.9-2.2-2.2v-6.1h-3.4c-17.1,0-31.1,14-31.1,31.1v14.4h20.6V62.6c0-5.8,4.7-10.5,10.5-10.5h5.5c1.2,0,2.2,0.9,2.2,2.2
	c0,3.4,2.8,6.2,6.1,6.2h13.8c1.6,0,3.2-0.7,4.3-1.8c1.2-1.2,1.8-2.7,1.8-4.4c0-0.6,0.2-1.1,0.6-1.5c0.4-0.4,0.9-0.6,1.5-0.6h8.3
	c5.8,0,10.5,4.7,10.5,10.5v58.7h20.6V62.6c0-17.1-14-31.1-31.1-31.1H80v6.1c0,1.2-0.9,2.2-2.2,2.2s-2.2-0.9-2.2-2.2v-8.3
	C75.7,26,72.9,23.3,69.5,23.3L69.5,23.3z M21.1,90.4c0.7,0,1.4,0.4,1.8,1l9.2,13.8c1.5,2.2,2.2,4.7,2.2,7.3
	c0,7.3-5.9,13.2-13.2,13.2s-13.2-5.9-13.2-13.2c0-2.6,0.8-5.2,2.2-7.3l9.2-13.8C19.7,90.7,20.4,90.4,21.1,90.4z M21.1,96.4
	l-7.4,11.1v0c-1,1.5-1.5,3.2-1.5,4.9c0,4.9,4,8.9,8.9,8.9s8.9-4,8.9-8.9c0-1.8-0.5-3.5-1.5-4.9l-5.8-8.6L21.1,96.4z"/>
</svg>
