<svg height='100px' width='100px'  fill="#000000" xmlns="http://www.w3.org/2000/svg" xmlns:xlink="http://www.w3.org/1999/xlink" version="1.1" x="0px" y="0px" viewBox="0 0 100 100" enable-background="new 0 0 100 100" xml:space="preserve"><g><path fill="none" d="M72.898,19.255C72.962,19.208,73,19.133,73,19.053v-1c0-0.061-0.022-0.12-0.063-0.166l-1-1.125   c-0.047-0.053-0.115-0.084-0.187-0.084h-1.394c-0.08,0-0.155,0.039-0.202,0.103c-0.047,0.065-0.061,0.148-0.035,0.225l0.465,1.402   l0.084,1.005c0.008,0.1,0.075,0.185,0.17,0.216c0.025,0.008,0.053,0.013,0.079,0.013c0.07,0,0.139-0.029,0.187-0.083l0.529-0.594   l1.042,0.327C72.753,19.315,72.834,19.302,72.898,19.255z M72.5,18.713l-0.871-0.273c-0.096-0.029-0.197-0.001-0.262,0.072   l-0.253,0.284l-0.044-0.486l-0.369-1.131h0.937l0.862,0.97V18.713z"></path><path d="M67.648,76.45c0.028-0.012,0.059-0.02,0.089-0.021l3.333-0.167l4.025-1.199c0.034-0.01,0.07-0.012,0.104-0.008l3.375,0.458   l4.064-0.459c0.028-0.003,0.058,0,0.086,0.005l3.98,0.957C91.922,68.67,95,59.697,95,50C95,25.147,74.853,5,50,5S5,25.147,5,50   c0,24.853,20.147,45,45,45c5.027,0,9.856-0.837,14.37-2.357l-3.21-0.635c-0.048-0.009-0.092-0.032-0.126-0.066l-1.955-1.915   l-1.356-0.399c-0.079-0.023-0.142-0.083-0.167-0.162c-0.025-0.078-0.012-0.164,0.038-0.229l1.087-1.437l-0.209-0.625   c-0.027-0.082-0.011-0.171,0.044-0.237l3.072-3.75l-0.904-1.93c-0.056-0.032-0.119-0.077-0.2-0.139l-3.469-2.653   c-0.169-0.129-0.383-0.183-0.593-0.149l-3.468,0.566c-0.185,0.03-0.374-0.008-0.533-0.107l-2.329-1.456   c-0.06-0.038-0.126-0.067-0.194-0.087l-2.886-0.836c-0.116-0.034-0.223-0.094-0.312-0.177l-0.776-0.724   c-0.209-0.195-0.509-0.259-0.779-0.165l-1.455,0.504c-0.176,0.061-0.368,0.056-0.54-0.013L35.4,72.706   c-0.292-0.117-0.484-0.401-0.484-0.716v-3.623c0-0.124-0.03-0.247-0.088-0.357l-2.674-5.126c-0.144-0.276-0.44-0.439-0.751-0.412   l-0.843,0.073c-0.334,0.029-0.649-0.161-0.779-0.471l-2.108-5.044c-0.005-0.013-0.01-0.026-0.015-0.039l-1.295-3.641   c-0.021-0.059-0.049-0.116-0.084-0.168l-1.935-2.914c-0.114-0.172-0.155-0.383-0.112-0.585l1.39-6.629   c0.029-0.137,0.094-0.264,0.19-0.367l1.789-1.927c0.148-0.159,0.221-0.373,0.203-0.589l-0.548-6.572   c-0.005-0.059-0.003-0.119,0.006-0.177l0.954-6.438c0.022-0.146,0.001-0.295-0.06-0.43l-1.214-2.698   c-0.119-0.264-0.375-0.439-0.664-0.454l-3.023-0.156c-0.594-0.031-0.931-0.694-0.606-1.192l1.705-2.611   c0.142-0.218,0.385-0.35,0.646-0.35l1.28-0.698l1.406-1.906L27.063,15.4c0.226,0-1.303-0.05-1.156-0.222l0.094-1l1.375-1.281   l4.563-2.5l-1.75,4.156c0.406,0.391,1.656,0.755,1.981,1.023l2.884,2.371c0.178,0.147,0.281,0.365,0.281,0.596v0.718   c0,0.304,0.179,0.58,0.457,0.704l4.143,1.85c0.044,0.02,0.086,0.044,0.126,0.071l3.575,2.487c0.129,0.09,0.283,0.138,0.441,0.138   h5.431c0.301,0,0.574,0.175,0.701,0.448l0.589,1.276c0.125,0.27,0.085,0.585-0.105,0.813c-0.899,1.083-3.456,4.173-3.525,4.379   c-0.064,0.191,0.456,1.403,0.705,1.965c0.082,0.184,0.23,0.326,0.418,0.401l5.719,2.288c0.157,0.063,0.288,0.175,0.375,0.319   c0,0,1.569,3.069,1.866,3.11c0.297,0.042,0.505-0.674,0.505-0.674c0.153-0.204,0.195-0.471,0.113-0.713l-0.818-2.39   c-0.083-0.244-0.04-0.514,0.117-0.718l0.536-0.701c0.181-0.237,0.21-0.557,0.073-0.822l-1.139-2.212   c-0.036-0.069-0.06-0.143-0.074-0.219l-0.28-1.585c-0.095-0.54,0.388-1.005,0.924-0.888l3.351,0.731   c0.072,0.016,0.141,0.041,0.205,0.076l5.37,2.929c0.022,0.012,0.043,0.025,0.064,0.039l4.533,3.076   c0.068,0.046,0.128,0.102,0.178,0.167l2.416,3.134c0.303,0.393,0.161,0.966-0.29,1.172l-0.708,0.324   c-0.253,0.116-0.55,0.087-0.775-0.077l-2.086-1.517c-0.189-0.137-0.43-0.182-0.655-0.121l-2.727,0.737v1.167l3.793,1.241   c0.427,0.14,0.644,0.613,0.473,1.028c0,0-1.042,3.054-1.266,3.064c-0.224,0.01-0.383-0.92-0.383-0.92   c-0.213-0.511-0.879-0.638-1.265-0.241l-1.837,1.89c-0.167,0.171-0.244,0.41-0.211,0.647l0.138,0.967   c0.036,0.255-0.057,0.511-0.249,0.684l-1.938,1.737c-0.112,0.1-0.192,0.232-0.231,0.377l-0.653,2.468   c-0.025,0.094-0.032,0.191-0.02,0.288l0.115,0.981c0.022,0.187-0.025,0.375-0.132,0.529l-3.398,4.908   c-0.119,0.172-0.163,0.385-0.122,0.59l0.89,4.452c0.074,0.371-0.131,0.741-0.486,0.874l-0.623,0.234   c-0.414,0.155-0.874-0.069-1.007-0.491l-1.016-3.228c-0.094-0.299-0.361-0.512-0.674-0.537l-5.509-0.447   c-0.092-0.008-0.185,0.002-0.274,0.027l-4.906,1.402c-0.137,0.039-0.26,0.115-0.357,0.22l-1.473,1.606   c-0.137,0.149-0.21,0.346-0.202,0.549l0.146,4.083c0.006,0.174,0.071,0.34,0.183,0.472l2.465,2.9   c0.125,0.147,0.301,0.242,0.492,0.266l2.68,0.335c0.225,0.028,0.451-0.044,0.618-0.198l2.465-2.27   c0.258-0.238,0.645-0.271,0.94-0.081c0,0,0.629,0.152,0.665,0.428c0.036,0.276-1.3,1.988-1.3,1.988   c-0.076,0.117-0.12,0.252-0.125,0.391l-0.047,1.171c-0.016,0.397,0.272,0.741,0.665,0.795l3.952,0.545   c0.124,0.017,0.241,0.064,0.343,0.136l2.179,1.556l2.979,2.088l3.423-2.295L67.648,76.45z M45.917,22.845h-1.542H42.58   c-0.367,0-0.716-0.163-0.951-0.445l-0.3-0.36c-0.235-0.282-0.333-0.653-0.267-1.014l0.146-0.806h-1.042l-0.458-1.042l0.87-0.759   c0.44-0.384,1.089-0.408,1.556-0.057l1.699,1.274l0.17-0.573c0.104-0.35,0.048-0.727-0.153-1.032l-0.726-1.103l1.578,0.181   c0.566,0.065,1.015,0.508,1.087,1.073l0.076,0.595c0.033,0.259-0.017,0.522-0.143,0.751c-0.222,0.404-0.556,1.025-0.556,1.108   c0,0.125,0.75,1.5,0.75,1.5V22.845z M60.73,28.076c-0.277,0.17-0.617,0.206-0.924,0.099l-1.892-0.662   c-0.081-0.028-0.161-0.047-0.247-0.055c-0.516-0.052-2.459-0.254-2.459-0.363c0-0.104-0.115-1.414-0.154-1.856   c-0.008-0.096-0.03-0.19-0.063-0.28l-0.598-1.615c-0.117-0.315-0.372-0.558-0.693-0.658l-0.825-0.258l0.554,1.663   c0.121,0.364,0.041,0.764-0.21,1.053c-0.263,0.303-0.338,0.726-0.194,1.1l0.599,1.559l-1.801-1.554   c-0.208-0.18-0.34-0.432-0.37-0.705l-0.25-2.34c-0.025-0.234-0.125-0.453-0.285-0.624l-0.513-0.55   c-0.253-0.271-0.35-0.653-0.257-1.012l0.149-0.572c0.138-0.533,0.654-0.877,1.199-0.8l1.573,0.221   c0.091,0.013,0.181,0.037,0.266,0.073l5.585,2.327c0.188,0.078,0.349,0.208,0.467,0.373l1.445,2.038L59,24.72l2.583,2.833   L60.73,28.076z M69.21,27.47c-0.27,0-0.531-0.095-0.738-0.269l-1.424-1.198c-0.06-0.05-0.123-0.094-0.192-0.13   c-0.466-0.252-2.372-1.278-2.481-1.278c-0.125,0-1.083-1.917-1.208-2.25c-0.076-0.202-0.244-0.758-0.364-1.163   c-0.088-0.297-0.291-0.544-0.566-0.687c-0.769-0.403-2.31-1.213-2.404-1.275c-0.086-0.058-0.811-0.793-1.249-1.241   c-0.216-0.22-0.509-0.342-0.817-0.342h-2.313c-0.267,0-0.525-0.093-0.731-0.263l-0.475-0.393c-0.263-0.218-0.415-0.541-0.415-0.883   v-2.001c0-0.192,0.048-0.381,0.141-0.55l0.646-1.18c0.249-0.455,0.772-0.686,1.276-0.563l0.194,0.047   c0.314,0.076,0.646,0.017,0.914-0.165l0.256-0.173c0.374-0.253,0.861-0.264,1.245-0.027c0.797,0.493,2.077,1.276,2.163,1.276   c0.104,0,1.81,0.572,2.391,0.768c0.131,0.044,0.247,0.109,0.353,0.197l1.868,1.527c0.118,0.096,0.216,0.216,0.287,0.35l1.1,2.074   l1.202,2.233c0.159,0.296,0.18,0.647,0.058,0.96c-0.09,0.232-0.177,0.477-0.177,0.557c0,0.149,0.862,1.392,1.048,1.658   c0.026,0.037,0.046,0.071,0.067,0.111l1.273,2.388c0.018,0.034,0.035,0.069,0.049,0.105l0.082,0.199   C70.579,26.644,70.024,27.47,69.21,27.47z M71.633,18.965l-0.529,0.594c-0.048,0.054-0.116,0.083-0.187,0.083   c-0.026,0-0.054-0.004-0.079-0.013c-0.095-0.032-0.162-0.117-0.17-0.216l-0.084-1.005l-0.465-1.402   c-0.025-0.076-0.012-0.16,0.035-0.225c0.047-0.064,0.122-0.103,0.202-0.103h1.394c0.071,0,0.14,0.031,0.187,0.084l1,1.125   C72.978,17.933,73,17.992,73,18.053v1c0,0.08-0.038,0.154-0.102,0.202c-0.064,0.047-0.146,0.06-0.224,0.037L71.633,18.965z    M64.409,70.885l-1.22-0.223c-0.313-0.057-0.637-0.018-0.927,0.114l-0.348,0.157c-0.457,0.206-0.984,0.182-1.42-0.066l-0.515-0.293   l-0.083-0.708l-2.729-0.083l-0.938-0.208l-1.708,0.188l1.736-1.038c0.188-0.112,0.397-0.184,0.614-0.21l1.395-0.171   c0.21-0.026,0.422-0.009,0.625,0.05l1.714,0.495l1.307,0.442c0.031,0.011,0.063,0.022,0.093,0.035l1.543,0.634   c0.189,0.078,0.391,0.118,0.596,0.118h2.26c0.093,0,0.185-0.008,0.276-0.024l1.859-0.333c0.341-0.061,0.695-0.011,1,0.153   c0.115,0.062,0.222,0.113,0.275,0.12c0.146,0.021,2.673-0.688,2.673-0.688v0.5l-2.101,0.623c-0.145,0.043-0.295,0.065-0.445,0.065   H67.93c-0.065,0-0.129,0.004-0.193,0.012l-2.853,0.354C64.726,70.918,64.566,70.914,64.409,70.885z"></path><path d="M70.701,17.178l0.369,1.131l0.044,0.486l0.253-0.284c0.064-0.074,0.166-0.102,0.262-0.072l0.871,0.273v-0.564l-0.862-0.97   H70.701z"></path><path d="M61.098,80.962l1.009,2.156c0.041,0.087,0.027,0.19-0.033,0.265l-3.085,3.765l0.207,0.619   c0.026,0.078,0.012,0.164-0.038,0.23l-0.947,1.253l1.068,0.314c0.039,0.011,0.075,0.033,0.104,0.061l1.947,1.906l3.99,0.79   c8.518-3.084,15.833-8.669,21.073-15.865l-3.741-0.9l-4.082,0.454l-3.383-0.452l-4.032,1.193l-3.345,0.174l-2.583,1.148   l-4.145,2.784l-0.024,0.016L61.098,80.962z"></path></g></svg>