<svg version="1.1" id="Layer_1" xmlns="http://www.w3.org/2000/svg" x="0" y="0" viewBox="0 0 852 251.8" xml:space="preserve"><style>.st1{fill:#41627c}.st4{fill:#3b4a67}.st5{fill:#fff}</style><path d="M7.8 118.3h20.4V76.1h8v42.2h20V10.9h-20v34.3H28V10.9H7.9l-.1 107.4zm258.5-30.7c-.1 3.7.1 7.8.7 11.5 1.8 11.2 6.9 22.6 23.5 22.6 10.7 0 15.8-5 19-10.9 3.7-6.5 5.7-15.4 5.7-26.7 0-7-1.2-13.2-3-18.1-1.9-5.1-5-10.2-11.6-13.7l-6.2-3.3c-6.6-3.4-7.5-8.6-7.5-12.3 0-4.7 1.7-8 3.9-8s4.1 3.2 4.1 10.7h18.5c.1-9.6-2.1-18.6-6.2-24.6-2.4-3.4-7-7.3-15.3-7.3-19.1 0-24.9 16.7-24.9 35.3 0 8.4 1.3 14.8 3.7 20.1 1.5 3.1 4.4 7.5 11.1 11.4l5.7 3.3c6 3.4 7.1 8.2 7.1 13.2 0 6-2 9.5-4.3 9.5s-4.4-2.9-4.5-12.6h-19.5zM86.2 79.5l3.5-40.7 3.4 40.7h-6.9zm152.9 38.8h20V10.9H239l.1 107.4zm-177.6 0H83l1.5-17.5H95l1.4 17.5h21.4L103.5 10.9H75.8L61.5 118.3z" fill-rule="evenodd" clip-rule="evenodd" fill="#3b4a67"/><path class="st1" d="M328.8 9.8h36.9V18h-30.3v39.6h28.3v8.2h-28.3v44.5h31.2v8.2h-37.9V9.8zm64.4 62.1l-17.3 46.8h-6.7l20.5-55.5-19.1-53.4h7.1L393.5 54l16.1-44.2h6.7l-19.2 53.4 20.6 55.5h-7.1l-17.4-46.8zm30.2-62.1h20.1c14.4 0 20.5 12.3 20.5 30.8 0 16.8-5.7 30.8-22.7 30.8H430v47.3h-6.7V9.8zm6.6 53.4h11.4c8.9 0 15.9-5.8 15.9-22.6 0-16.3-5.6-22.6-15.9-22.6H430v45.2zm43.5-53.4h6.7v100.6H511v8.2h-37.6V9.8zM541.1 8c15.2 0 23.8 17.2 23.8 56.2s-8.6 56.3-23.8 56.3c-15.2 0-23.8-17.2-23.8-56.3S525.8 8 541.1 8zm0 104.3c10.6 0 17.1-12.8 17.1-48s-6.5-48-17.1-48S524 29 524 64.3s6.4 48 17.1 48zM575.9 9.8h22.2c12.4 0 19.3 10.4 19.3 27.3 0 13.1-3.5 24.8-13.5 27.6v.3c9.3 1.2 12.4 9 12.7 25.8l.2 11.9c.1 5.9.5 11.7 3.1 16h-7.8c-1.6-3.8-1.9-9.5-2-15.2l-.2-9.1c-.4-19.2-2.8-25.3-14.8-25.3h-12.6v49.7h-6.7V9.8zm6.7 50.9h11.5c10.5 0 16.7-7 16.7-21.3 0-13.3-3.9-21.3-16-21.3h-12.2v42.6zm61.6-50.9h8.3l22 108.8h-7.1l-6-31.6h-26.1l-6.1 31.7h-7.1L644.2 9.8zm15.7 68.9l-11.5-61.3h-.2l-11.5 61.3h23.2zm28.6-60.6h-19.2V9.8h45.1V18h-19.2v100.6h-6.7V18.1zm32.8-8.3h6.7v108.8h-6.7V9.8zm42-1.8c15.2 0 23.8 17.2 23.8 56.2s-8.6 56.3-23.8 56.3c-15.2 0-23.8-17.2-23.8-56.3S748 8 763.3 8zm0 104.3c10.6 0 17.1-12.8 17.1-48s-6.5-48-17.1-48c-10.6 0-17.1 12.8-17.1 48s6.4 48 17.1 48zM798.1 9.8h9l28.5 94.8h.2V9.8h6.7v108.8h-9L805 23.9h-.2v94.8h-6.7V9.8z"/><path d="M335 211c-1.6-2.2-2.5-3.7-5.2-3.7-3.3 0-6 1.8-6 5.1 0 2.7 3.3 4.3 5.4 5.4l2.2 1.1c4.3 2.2 8.1 4.3 8.1 9.8 0 6-4.9 10.9-10.9 10.9-5.4 0-9.8-3.8-10.9-8.7l3.8-1.1c.5 3.3 2.9 6 6.7 6s7.4-2.2 7.4-6-3.3-5.4-6.5-7.1l-2.2-1.1c-3.8-1.6-7.6-3.8-7.6-8.7 0-5.4 4.3-8.7 9.8-8.7 3.8 0 7.1 2.2 8.7 5.4L335 211zm15.4 17.6l-4.3 9.8h-4.3l15.7-36.4 15.7 36.4h-4.3l-4.3-9.8h-14.2zm7-17.2l-5.4 13.4 11.3.2-5.9-13.6zm23.9-3.9v10.3h11.4v3.8h-11.4V239h-3.8v-34.7h15.7v3.8h-11.9v-.6zm17.9-3.8h17.9v3.8H403v10.3h13.6v3.8H403v13.6h14.1v3.8h-17.9v-35.3zm33.7 34.7h-3.8v-30.9H421v-3.8h20.6v3.8h-8.7v30.9zm9.2-34.7h4.3l8.7 15.2 8.7-15.2h4.3l-11.4 19.5v14.7H453v-14.7l-10.9-19.5zm48.3 34.7h-3.8v-34.7h3.8v34.7zm22.3-27.3c-1.6-2.2-3.2-3.8-5.9-3.8-3.3 0-5.4 1.7-5.4 5 0 2.7 3.3 4.3 5.4 5.4l2.2 1.1c4.3 2.2 8.1 4.3 8.1 9.8 0 6-4.9 10.9-10.9 10.9-5.4 0-9.8-3.8-10.9-8.7l3.8-1.1c.5 3.3 3.3 6.1 7.1 6.1s7-2.3 7-6.1-3.3-5.4-6.5-7.1l-2.2-1.1c-3.8-1.6-7.6-3.8-7.6-8.7 0-5.4 4.3-8.7 9.8-8.7 3.8 0 7.1 2.2 8.7 5.4l-2.7 1.6zm58.6 9.9c0 9.8-8.1 17.9-17.9 17.9-9.8 0-17.9-8.1-17.9-17.9 0-9.8 8.1-17.9 17.9-17.9 9.8 0 17.9 8.2 17.9 17.9zm-32 0c0 7.6 6.5 14.1 14.1 14.1s14.1-6.5 14.1-14.1-6-14.1-14.1-14.1c-7.6 0-14.1 6.5-14.1 14.1zm41.3 3.3c0 2.7 0 5.4 1.6 7.6 1.6 2.2 4.3 3.3 7.1 3.3s5.4-1.1 6.5-3.3c1.6-2.2 1.6-5.4 1.6-8.1v-20.6h3.8v21.7c0 3.8-.5 6.5-3.3 9.8-2.2 2.7-6 3.8-9.2 3.8-3.3 0-6.5-1.1-8.7-3.3-3.3-2.7-3.3-6-3.3-9.8v-21.7h3.8l.1 20.6zm31.4 14.1h-3.8v-34.7h4.9c6.5 0 12.5 1.6 12.5 9.8 0 5.4-3.3 9.2-8.7 9.8l10.9 15.7h-4.9l-10.3-15.2h-1.1l.5 14.6zm0-18.5h1.1c4.3 0 8.7-1.1 8.7-6 0-5.4-4.3-6-8.7-6H612v12zm61.4-8.6c-2.7-2.7-6.5-4.3-10.3-4.3-7.6 0-14.1 6.5-14.1 14.1s6.5 14.1 14.1 14.1c3.8 0 7.6-1.6 10.3-4.3v4.9c-2.7 2.2-6.5 3.3-10.3 3.3-9.8 0-17.9-8.1-17.9-17.9s8.1-17.9 17.9-17.9c3.8 0 7.1 1.1 10.3 3.3v4.7zm40.7 9.7c0 9.8-8.1 17.9-17.9 17.9-9.8 0-17.9-8.1-17.9-17.9 0-9.8 8.1-17.9 17.9-17.9 9.8 0 17.9 8.2 17.9 17.9zm-32 0c0 7.6 6.5 14.1 14.1 14.1s14.1-6.5 14.1-14.1-6-14.1-14.1-14.1-14.1 6.5-14.1 14.1zm41.2 17.4h-3.8v-34.7h4.9c6.5 0 12.5 1.6 12.5 9.8 0 5.4-3.3 9.2-8.7 9.8l10.9 15.7h-4.9l-10.3-15.2h-1.1l.5 14.6zm0-18.5h1.1c4.3 0 8.7-1.1 8.7-6 0-5.4-4.3-6-8.7-6h-1.1v12zm20.7-16.2h17.9v3.8h-14.1v10.3h13.6v3.8h-13.6v13.6h14.1v3.8H744v-35.3z" fill="#96a23b"/><path d="M665.5 150.5c-8.6 0-15.8 6.8-15.8 15.4 0 8.1 7.2 15.4 15.8 15.4 3.6 0 7.2-1.4 9.9-3.6v-3.2l-.5.5c-2.3 2.7-6.3 4.5-9.9 4.5-3.2 0-6.8-1.4-9.5-4.1-2.7-2.7-4.1-5.9-4.1-9 0-7.2 6.3-13.6 13.6-13.6 3.6 0 7.7 1.8 9.9 4.5l.5.5v-3.2c-2.2-2.7-5.9-4.1-9.9-4.1zm29.4 0c-8.6 0-15.4 7.2-15.4 15.4 0 8.1 7.2 15.4 15.4 15.4 8.6 0 15.4-7.2 15.4-15.4-.1-8.2-7.3-15.4-15.4-15.4zm0 28.5c-7.2 0-13.6-6.3-13.6-13.6 0-7.2 6.3-13.6 13.6-13.6 7.2 0 13.6 6.3 13.6 13.6-.1 7.2-6.4 13.6-13.6 13.6zm45.2-29.4l-10.9 27.1-10.8-27.1-6.8 31.2h2.2l5-24.4 10.4 25.7 10.4-25.7 5 24.4h2.2l-6.3-30.8zm25.7 2.7c-1.8-1.8-4.1-1.8-6.3-1.8h-7.7v29.8h2.3v-14h5.4c1.8 0 4.5 0 6.8-1.8 1.4-1.4 2.7-3.6 2.7-5.9-.5-2.2-1.4-4.5-3.2-6.3zm-6.3 12.2h-5.4v-11.8h5c1.8 0 3.6 0 5 1.4 1.4.9 2.3 2.7 2.3 4.5 0 1.8-.5 3.2-1.8 4.5-1.5 1-2.9 1.4-5.1 1.4zm5.9 15.8h2.3l4.1-9.9h12.7l4.1 9.5h2.3L778 148.7l-12.6 31.6zM778 155l5.4 14h-11.3l5.9-14zm39.8 21.3l-24.9-25.8-.4-.5v30.8h2.2v-25.3l24.9 26.6v-31.6h-1.8zm24.8-25.8l-8.5 14.9L825 151v-.5h-2.2l9.9 17.6v12.7h2.3v-12.7l9.9-17.6zm-573 28.9h2.3l4.1-9.9h12.7l4.1 9.5h1.8l-12.7-31.2-12.3 31.6zm12.2-25.3l5.4 14h-10.8l5.4-14zm40.6 21.3L298 149.6l-.4-.5v30.8h2.2v-25.3l24.9 26.6v-31.6h-2.3zm165-10.4c0 8.6-7.2 14.9-15.8 14.9h-7.7v-30.3h7.7c8.6 0 15.8 6.8 15.8 15.4m-21.2-13.1v25.8h5.4c7.2 0 13.1-5.9 13.1-13.1 0-7.2-5.9-12.7-13.1-12.7h-5.4zm36.1 17.1c-.9 0-2.3-.5-2.7-.5l10.8 10.4-1.8 1.4-14-13.6h6.3c3.6 0 7.7-2.7 7.7-7.7 0-3.6-2.7-7.2-7.7-7.2h-7.2v28h-2.3v-30.3h9.5c6.3 0 9.9 5 9.9 9.5.1 5.5-3.5 10-8.5 10m14.5-19.4h2.3v30.3h-2.3zm9 0h2.7v28h16.3v2.3h-19zm22.2 0h2.7v28h16.2v2.3H548zm22.6 0h2.3v30.3h-2.3zm31.6 25.3v-25.3h2.3v31.2L581.9 155v24.9h-2.3v-31.2zm23.1 3.6c3.2 0 6.8-1.4 9-3.2v-5.9h-9v-2.3h11.3v9c-3.2 2.7-7.2 4.5-11.3 4.5-9.9 0-16.7-7.7-16.7-15.8 0-9.5 7.7-15.8 16.3-15.8 5 0 9 1.8 11.8 4.5l-1.8 1.4c-2.3-2.3-5.9-4.1-10.4-4.1-7.2 0-14 5.9-14 13.6.7 7.8 6.6 14.1 14.8 14.1m-259.5-16.7c0-8.1-5.4-13.1-13.1-13.1-9.5 0-14.9 7.2-14.9 15.8s5.9 16.3 16.7 16.3c4.5 0 7.7-1.4 10.4-2.3l-.5-5c-2.7 1.4-6.3 2.3-9 2.3-5.4 0-9.9-2.3-10.8-9.9h21.2c-.4-1.8 0-3.2 0-4.1zm-21.7-.9c.9-4.1 3.6-6.8 8.1-6.8 5 0 6.8 2.7 6.8 6.8h-14.9zm49.7 19.4h-1.4c-5 0-6.3-1.4-7.7-4.1-2.3 2.7-5.4 4.1-9.5 4.1-5.4 0-9-3.6-9-9 0-8.6 10.8-10.8 18.1-10.8 0-5-2.3-6.3-6.3-6.3-2.7 0-5 .5-8.1 2.7l-.9-5c2.7-1.8 6.8-3.2 10.8-3.2 7.7 0 10.8 3.6 10.8 14v6.8c0 4.5.5 5.9 3.2 5.9h.9l-.9 4.9zm-9.4-15.8c-7.2.5-11.3 2.3-11.3 6.3 0 3.2 1.8 4.5 4.5 4.5 2.3 0 5-1.4 6.8-3.6v-7.2zm27.1-9.5h-1.8c-2.7 0-5.4 1.8-6.3 3.6v21.2h-6.8v-30.7h5.4l.5 4.5c3.2-3.2 5.9-5 9.5-5h.5l-1 6.4zm18 24.9h-5.4c-5.9 0-8.1-3.6-8.1-7.7v-17.6h-3.2l1.4-6.3h2.3v-6.8l6.3-.5v8.1h7.7v5.9h-7.7v14c0 5.4.5 5.9 5.9 5.9h1.8l-1 5zm22.6 0v-16.3c0-6.8-1.8-9.5-6.8-9.5-3.2 0-5.4.9-7.2 3.6v22.1h-6.3v-46.6h6.3v18.5c1.8-2.3 4.5-3.2 8.1-3.2 9 0 12.7 5.9 12.7 14.9v16.3c0 .2-6.8.2-6.8.2z" fill="#313332"/><path class="st1" d="M165.3 171.4l64 30.9.2-20.7-87.6-39.2z"/><path class="st4" d="M220.2 64.2c6.1-3.5 9.6-13.2 9.6-25.5 0-9.9-2.5-18.7-6.8-23.7-3.6-4.2-7.6-4-11.6-4H181v99.4l14.4 6.4 5.5 2.5h.1V73.5c5.7-.9 8.4 4.2 8.4 14.7l-.2 36 19.6 8.9.4-46.4c0-7.1-.7-10.8-1.9-13.9-1-3.9-3.9-7.5-7.1-8.6zm-16.1-11.7s-2.7 0-3-.1V31.1h2.9c3.4 0 5.2 3.6 5.2 10.9 0 6.7-1.8 10.5-5.1 10.5z"/><path class="st1" d="M171.6 122.3V86.4c0-7.1-.7-10.8-1.9-13.9-1.4-3.6-4.2-7.3-7.3-8.3 6-3.5 9.5-13.2 9.5-25.5 0-9.9-2.5-18.7-6.8-23.7-3.6-4.2-7.6-4-11.6-4h-30.4v89.7l-.1-.1v19l2.6.9 17.6 8.1v-18.3h-.1V73.4c5.7-.9 8.3 4.1 8.3 14.6v26.3h-.1l-.1 18 77.9 34.6.1-18.7-57.6-25.9zm-25.5-69.8s-2.6 0-2.9-.1V31.1h2.9c3.4 0 5.2 3.6 5.2 10.9 0 6.7-1.9 10.5-5.2 10.5zM229.4 251l.2-34.9-46.5-22.5z"/><path class="st5" d="M776 203.8h66.8v35H776z"/><path d="M776 203.7h66.8v2.8H776zm0 5.4h66.8v2.8H776zm0 5.4h66.8v2.8H776zm0 5.4h66.8v2.8H776zm0 5.4h66.8v2.8H776zm0 5.4h66.8v2.8H776zm0 5.5h66.8v2.8H776z" fill="#991e20"/><path class="st4" d="M776 203.7h26.7v19H776z"/><path class="st5" d="M778.3 204.4l.3.8h.8l-.7.4.3.8-.7-.5-.6.5.2-.8-.6-.4h.8zm2.2 1.9l.3.8h.8l-.7.5.3.8-.7-.5-.6.5.2-.8-.6-.5h.8zm0 3.8l.3.8h.8l-.7.5.3.8-.7-.5-.6.5.2-.8-.6-.5h.8zm0 3.9l.3.7h.8l-.7.5.3.8-.7-.5-.6.5.2-.8-.6-.5h.8zm0 3.8l.3.8h.8l-.7.4.3.8-.7-.5-.6.5.2-.8-.6-.4h.8zm4.5-11.5l.2.8h.8l-.6.5.2.8-.6-.5-.7.5.3-.8-.7-.5h.8zm0 3.8l.2.8h.8l-.6.5.2.8-.6-.5-.7.5.3-.8-.7-.5h.8zm0 3.9l.2.7h.8l-.6.5.2.8-.6-.5-.7.5.3-.8-.7-.5h.8zm0 3.8l.2.8h.8l-.6.4.2.8-.6-.5-.7.5.3-.8-.7-.4h.8zm4.4-11.5l.3.8h.8l-.7.5.3.8-.7-.5-.6.5.2-.8-.6-.5h.8zm0 3.8l.3.8h.8l-.7.5.3.8-.7-.5-.6.5.2-.8-.6-.5h.8zm0 3.9l.3.7h.8l-.7.5.3.8-.7-.5-.6.5.2-.8-.6-.5h.8zm0 3.8l.3.8h.8l-.7.4.3.8-.7-.5-.6.5.2-.8-.6-.4h.8zm4.5-11.5l.2.8h.8l-.6.5.2.8-.6-.5-.7.5.3-.8-.7-.5h.8zm0 3.8l.2.8h.8l-.6.5.2.8-.6-.5-.7.5.3-.8-.7-.5h.8zm0 3.9l.2.7h.8l-.6.5.2.8-.6-.5-.7.5.3-.8-.7-.5h.8zm0 3.8l.2.8h.8l-.6.4.2.8-.6-.5-.7.5.3-.8-.7-.4h.8zm4.4-11.5l.3.8h.8l-.7.5.3.8-.7-.5-.6.5.2-.8-.6-.5h.8zm0 3.8l.3.8h.8l-.7.5.3.8-.7-.5-.6.5.2-.8-.6-.5h.8zm0 3.9l.3.7h.8l-.7.5.3.8-.7-.5-.6.5.2-.8-.6-.5h.8zm0 3.8l.3.8h.8l-.7.4.3.8-.7-.5-.6.5.2-.8-.6-.4h.8zm-20-9.6l.3.8h.8l-.7.5.3.7-.7-.4-.6.4.2-.7-.6-.5h.8zm0 3.8l.3.8h.8l-.7.5.3.7-.7-.4-.6.4.2-.7-.6-.5h.8zm0 3.8l.3.8h.8l-.7.5.3.8-.7-.5-.6.5.2-.8-.6-.5h.8zm0 3.8l.3.8h.8l-.7.5.3.8-.7-.5-.6.5.2-.8-.6-.5h.8zm4.4-15.2l.3.8h.8l-.7.4.3.8-.7-.5-.6.5.2-.8-.6-.4h.8zm0 3.8l.3.8h.8l-.7.5.3.7-.7-.4-.6.4.2-.7-.6-.5h.8zm0 3.8l.3.8h.8l-.7.5.3.7-.7-.4-.6.4.2-.7-.6-.5h.8zm0 3.8l.3.8h.8l-.7.5.3.8-.7-.5-.6.5.2-.8-.6-.5h.8zm0 3.8l.3.8h.8l-.7.5.3.8-.7-.5-.6.5.2-.8-.6-.5h.8zm4.5-15.2l.3.8h.8l-.7.4.3.8-.7-.5-.6.5.2-.8-.6-.4h.8zm0 3.8l.3.8h.8l-.7.5.3.7-.7-.4-.6.4.2-.7-.6-.5h.8zm0 3.8l.3.8h.8l-.7.5.3.7-.7-.4-.6.4.2-.7-.6-.5h.8zm0 3.8l.3.8h.8l-.7.5.3.8-.7-.5-.6.5.2-.8-.6-.5h.8zm0 3.8l.3.8h.8l-.7.5.3.8-.7-.5-.6.5.2-.8-.6-.5h.8zm4.5-15.2l.2.8h.8l-.6.4.2.8-.6-.5-.7.5.2-.8-.6-.4h.8zm0 3.8l.2.8h.8l-.6.5.2.7-.6-.4-.7.4.2-.7-.6-.5h.8zm0 3.8l.2.8h.8l-.6.5.2.7-.6-.4-.7.4.2-.7-.6-.5h.8zm0 3.8l.2.8h.8l-.6.5.2.8-.6-.5-.7.5.2-.8-.6-.5h.8zm0 3.8l.2.8h.8l-.6.5.2.8-.6-.5-.7.5.2-.8-.6-.5h.8zm4.4-15.2l.2.8h.8l-.6.4.2.8-.6-.5-.7.5.3-.8-.7-.4h.8zm0 3.8l.2.8h.8l-.6.5.2.7-.6-.4-.7.4.3-.7-.7-.5h.8zm0 3.8l.2.8h.8l-.6.5.2.7-.6-.4-.7.4.3-.7-.7-.5h.8zm0 3.8l.2.8h.8l-.6.5.2.8-.6-.5-.7.5.3-.8-.7-.5h.8zm0 3.8l.2.8h.8l-.6.5.2.8-.6-.5-.7.5.3-.8-.7-.5h.8zm4.5-15.2l.2.8h.9l-.7.4.3.8-.7-.5-.7.5.3-.8-.7-.4h.8zm0 3.8l.2.8h.9l-.7.5.3.7-.7-.4-.7.4.3-.7-.7-.5h.8zm0 3.8l.2.8h.9l-.7.5.3.7-.7-.4-.7.4.3-.7-.7-.5h.8zm0 3.8l.2.8h.9l-.7.5.3.8-.7-.5-.7.5.3-.8-.7-.5h.8zm0 3.8l.2.8h.9l-.7.5.3.8-.7-.5-.7.5.3-.8-.7-.5h.8z"/></svg>